<?xml version="1.0" encoding="UTF-8" standalone="no"?>
<svg id="完成形" xmlns="http://www.w3.org/2000/svg" xmlns:xlink="http://www.w3.org/1999/xlink" width="1873.7" height="1840.406" viewBox="0 0 1873.7 1840.406"><defs><style>.cls-1{fill:url(#名称未設定グラデーション_24);}.cls-2{fill:url(#名称未設定グラデーション_24-2);}.cls-3{fill:url(#名称未設定グラデーション_24-3);}.cls-4{fill:url(#名称未設定グラデーション_24-4);}.cls-5{fill:url(#名称未設定グラデーション_24-5);}.cls-6{fill:url(#名称未設定グラデーション_24-6);}</style><linearGradient id="名称未設定グラデーション_24" x1="453.997" y1="1562.157" x2="454.021" y2="1562.157" gradientUnits="userSpaceOnUse"><stop offset="0" stop-color="#bf272d"/><stop offset="0.531" stop-color="#77272d"/><stop offset="1" stop-color="#c1272d"/></linearGradient><linearGradient id="名称未設定グラデーション_24-2" x1="54.673" y1="888.752" x2="1865.29" y2="888.752" xlink:href="#名称未設定グラデーション_24"/><linearGradient id="名称未設定グラデーション_24-3" x1="323.459" y1="1030" x2="1596.541" y2="1030" xlink:href="#名称未設定グラデーション_24"/><linearGradient id="名称未設定グラデーション_24-4" x1="1256.548" y1="582.975" x2="1896.85" y2="582.975" xlink:href="#名称未設定グラデーション_24"/><linearGradient id="名称未設定グラデーション_24-5" x1="23.15" y1="582.975" x2="663.452" y2="582.975" xlink:href="#名称未設定グラデーション_24"/><linearGradient id="名称未設定グラデーション_24-6" x1="335.678" y1="1736" x2="1584.322" y2="1736" xlink:href="#名称未設定グラデーション_24"/></defs><path class="cls-1" d="M454.021,1562.315s-.017-.3-.021-.315A2.17,2.17,0,0,0,454.021,1562.315Z" transform="translate(-23.15 -39.143)"/><path class="cls-2" d="M1759.314,1067.664c-.386-.471-4.8-5.937-4.713-6.009.021-.018.251.343.4.345,2.266.034,3.719-47.873,3.719-47.873,2.293-75.629,3.69-113.465.372-149.37A792.525,792.525,0,0,0,1736.52,736.8Q1673.46,495.921,1485.8,331.792c-64.5-56.469-136.738-100.586-215.626-133.927-2.233-.944-10.753-6.354-10.489-6.847.041-.076.253,0,.312-.018,1.471-.347-15.732-71.795-35-150-8.557-1.586-521.764-3.233-525,0l-2,2s-23.808,136.286-26,142c-.047.122-1.03,2.65-1.068,3.017-2.6.936-79.737,38.419-90.289,43.653-157.08,77.9-272.889,239.472-272.889,239.472Q195.605,628.155,164.2,840.192c-10.049,66.862-8.168,134.264.883,201.323.082.606-1.879,8.118-.613,8.592.252.094.518-.13.535-.107.33.434-92.063,88.305-105.658,99.168-1.471,1.175-4.954,6.734-4.651,6.979.063.05.277-.129.309-.147,3.335-1.906,261.8,453.646,261.875,453.781L317,1610c77.419-27.488,136.881-48.447,137-48,.581-.833,77.8,52.113,87.189,58.5,101.358,68.908,212.862,92.252,253.713,100.867a796.3,796.3,0,0,0,164.77,17q39.3,0,79.45-3.712c84.738-7.839,165.889-29.933,243.989-63.057,59.617-25.285,114.784-58.569,166.129-98.068,3.273-2.518,6.2-3.837,9.676-3.837a18.957,18.957,0,0,1,5.784,1.021c43.563,13.944,87.373,27.117,130.96,40.989.314.1,2.891-.507,4.876.923.3.216.425.359.464.38,3.518,1.909,262.225-456.662,264-455a4.427,4.427,0,0,0,.289.4c.047-.028-1-1.894-1.289-2.4C1860.8,1150.317,1768.2,1078.511,1759.314,1067.664Zm-192.646,451.123c-1.684-.527-5.194-1.624-9.616-2.981-58.53-17.964-111.058-30.8-111.052-30.806s-87.639,67.025-194.126,112.943a756.561,756.561,0,0,1-108.535,37.269,694.377,694.377,0,0,1-111.587,19.777c-24.179,2.237-48.431,3.372-72.08,3.372a714.58,714.58,0,0,1-194.234-26.6c-86.823-24.517-148.293-59.6-183.146-79.895C534.228,1523.871,463,1476,463,1476s-54.426,17.036-110.259,37.331l-1.058.385c-65.793-114-132.2-228.821-198.122-342.533q6.3-5.827,12.509-11.586c41.032-38.019,39.332-35.836,47.8-44.091C237.23,1092.729,258,1069,258,1069s-13.034-36.479-13.641-38.186c-7.546-21.237-16.37-76.814-1.053-178.732,9.282-61.756,24.2-120.211,44.336-173.739a703.95,703.95,0,0,1,76.5-148.21A691.566,691.566,0,0,1,473.9,404.994c42.624-38.269,91.722-73.119,145.932-103.582a595.529,595.529,0,0,1,75.217-35.119C710.128,260.177,744,247,744,247q4.115-25.983,8.531-52.309,6.185-36.843,12.715-72.861,43.215.074,86.423.078c6.748,0,22.714,0,29.462,0v.344h80q28.327,0,56.655.013,28.358.01,56.713.013c24.821,0,54.724-.01,86.434-.07q1.886,8.376,3.755,16.639c7.727,34.191,8.494,38.665,13.787,62.1C1184.053,225.647,1190,251,1190,251s40.253,16.833,49.033,20.554a816.2,816.2,0,0,1,102.27,52.639,693.842,693.842,0,0,1,91.8,67.791c56.235,49.231,103.716,104.822,141.127,165.23,37.444,60.462,66.007,127.7,84.894,199.85,3.285,12.547,15.06,59.451,21.052,123.752A853.737,853.737,0,0,1,1673,1095c.9.844,31.815,31.65,58.241,53.563,2.41,2,11.564,9.524,24.756,20.578l8.569,7.18C1700.5,1286.922,1635.291,1399.774,1566.668,1518.787Z" transform="translate(-23.15 -39.143)"/><path class="cls-3" d="M1067.745,506.089c-33.617,11.673-21.6,71.382-47.07,151.505C1006.607,701.85,984.308,742.263,960,777.177c-24.308-34.914-46.607-75.327-60.675-119.583-25.471-80.123-13.453-139.832-47.07-151.505-28.57-9.919-64.118,23.651-76.488,34.567-56.882,50.2-175.8,104.753-452.308,114a284.714,284.714,0,0,0,44.127,38.979C435.309,741.915,521.3,757.614,521.3,757.617s48.855-28.656,104.435-47.8c7.285-2.51,8.494-2.723,8.826-2.206,4.88,7.6-194.9,149.055-261.824,172.833-2.666.947-13.638,4.734-13.239,6.619.81,3.817,47.684-2.742,75.753-7.355,87.277-14.341,165.479-38.245,165.479-38.243s68.9-40.83,122.821-72.076c2.22-1.286,6.11-3.589,6.62-2.941C733.462,770.632,588.98,889.99,588.96,890c.01-.008,58.113,5.523,103.7-2.206,4.674-.793,29.418-5.15,29.418-5.149s16.052-28.2,25.006-53.688a196.541,196.541,0,0,0,10.3-48.541c.029.095.05.162.077.252,0,0,8.681,28.366-6.7,81.384,0,0,28.614-41.5,47.805-91.932,13.269-34.867,19.939-44.6,30.154-46.334,9.153-1.557,17.4,4.893,21.329,8.09,16.4,13.357,50.2,45.619,84.514,79.176A469.082,469.082,0,0,1,822.144,912.7q56.3,50.934,113.8,106.4,3.723,3.6,7.422,7.191-17.845,18.312-37.954,36.294-17.178,15.3-34.233,28.681A1076.986,1076.986,0,0,1,922.992,1254.1s21.115,91.221,37.008,301.617c0-.044-.9-138.124-12.953-253.506a1533.51,1533.51,0,0,0-37.008-210.022q24.5-24.732,49.961-49.679,25.452,24.939,49.961,49.679a1533.51,1533.51,0,0,0-37.008,210.022C960.9,1417.6,960,1555.677,960,1555.721c15.893-210.4,37.008-301.617,37.008-301.617a1076.986,1076.986,0,0,1,51.812-162.836q-17.018-13.407-34.233-28.681-20.139-17.932-37.954-36.294,3.7-3.594,7.422-7.191,57.434-55.488,113.8-106.4A469.082,469.082,0,0,1,985.437,811.052c34.315-33.557,68.117-65.819,84.514-79.176,3.926-3.2,12.176-9.647,21.329-8.09,10.215,1.737,16.885,11.467,30.154,46.334,19.191,50.428,47.8,91.927,47.805,91.932-15.378-53.018-6.7-81.384-6.7-81.384.027-.09.048-.157.078-.252a196.5,196.5,0,0,0,10.3,48.541c8.954,25.485,25.005,53.686,25.006,53.688s24.744,4.356,29.418,5.149c45.587,7.729,103.69,2.2,103.7,2.206-.02-.01-144.5-119.368-141.208-123.557.509-.648,4.4,1.655,6.619,2.941,53.918,31.246,122.823,72.074,122.821,72.076s78.2,23.9,165.479,38.243c28.069,4.613,74.943,11.172,75.753,7.355.4-1.885-10.573-5.672-13.239-6.619-66.919-23.778-266.7-165.238-261.824-172.833.332-.517,1.541-.3,8.826,2.206,55.58,19.149,104.435,47.8,104.435,47.8s85.989-15.7,153.711-63.985a284.682,284.682,0,0,0,44.128-38.979c-276.508-9.244-395.426-63.8-452.308-114C1131.863,529.74,1096.315,496.17,1067.745,506.089Zm-32.36,405.239A766.749,766.749,0,0,1,960,1008.661a766.749,766.749,0,0,1-75.385-97.333c2.815-2.845,36.637-37,75.385-75.27C998.748,874.33,1032.57,908.483,1035.385,911.328Z" transform="translate(-23.15 -39.143)"/><path class="cls-4" d="M1756.5,424.5C1586.033,155.268,1329.287,63.65,1256.548,40.451L1282.5,171.5c72.585,32.047,241.474,118.452,367,309,159.495,242.113,141.812,489.681,134,562l91,83C1888.738,1063.135,1955.973,739.542,1756.5,424.5Z" transform="translate(-23.15 -39.143)"/><path class="cls-5" d="M270.5,480.5c125.526-190.548,294.415-276.953,367-309L663.452,40.451C590.713,63.65,333.967,155.268,163.5,424.5c-199.473,315.042-132.238,638.635-118,701l91-83C128.688,970.181,111.005,722.613,270.5,480.5Z" transform="translate(-23.15 -39.143)"/><path class="cls-6" d="M1006.582,1758.189c-289.448,16.659-494.808-122.73-553.471-165.738l-117.433,37.141c46.829,43.58,293.138,263.953,665.73,249.255,318.414-12.561,526.381-188.805,582.914-240.118l-126.406-43.23C1393.8,1642.245,1234.383,1745.079,1006.582,1758.189Z" transform="translate(-23.15 -39.143)"/></svg>