<?xml version="1.0" encoding="utf-8"?>
<svg id="レイヤー_1" data-name="レイヤー 1" xmlns="http://www.w3.org/2000/svg" width="1920" height="1920" viewBox="0 0 1920 1920"><defs><style>.cls-1{fill:#fefefe;}.cls-2{fill:#fdfdfd;}.cls-3{fill:#d9d9d9;}.cls-4{fill:#515153;}</style></defs><path d="M1436.805,829.365c-4.987,134.1-86.55,274.546-247.946,366.874-17.273,9.881-24.961,19.4-24.755,39.976.454,45.475,6.912,90,15.146,134.423,3.215,17.345,5.561,34.593,2.62,52.183-4.98,29.788-22.733,51.051-44.623,53.427-25.009,2.714-58.141-18.815-67.608-44.02-6.4-17.03-5.483-34.356-1.76-51.744,8.507-39.724,12.846-80.036,17.21-120.357,1.629-15.048-.2-21.817-19.034-16.9-37.52,9.791-76.169,14.487-115.082,12.233-16.1-.933-24.1,4.2-30.708,19.506-40.425,93.625-26.483,185.76,6.292,277.243,17.956,50.121,21.249,99.49-6.074,146.516-32.876,56.585-94.733,55.812-127.553-.594-27.554-47.355-25.57-95.224-5.778-145.8,39.687-101.41,54.763-204.216,7.648-308.588-7.589-16.812-17.512-31.8-34.6-29.825-19.523,2.255-25.863,21.2-26.885,39.958-1.406,25.832-.879,51.61,2.877,77.259,3.351,22.883,5.192,45.874,2.687,68.933-2.01,18.5-11.535,30.917-30.977,33.362-18.958,2.384-32.256-6.358-39.957-23.053-18-39.014-13.321-79.211-4.731-119.341,5.222-24.395,9.632-48.872,9.213-73.89-.627-37.375-12.5-68.228-41.518-95.131-216.443-200.649-191.224-560.832,50.142-731.75,205.379-145.435,478.664-114.112,641.962,75.688C1399.655,555.037,1438.6,659.679,1436.805,829.365Z"/><path d="M1119.006,1618.023c-28.9-.033-53.446-24.522-52.594-52.471.842-27.592,24.152-49.556,52.6-49.562,30.9-.005,52.219,21.7,51.415,52.348C1169.66,1597.492,1148.377,1618.058,1119.006,1618.023Z"/><path class="cls-1" d="M894,349.5c53.264-9.942,106.15-6.964,158.788,4.628,32.433,7.142,45.325,39.89,25.489,73.8-.089-20.833-9.227-25.4-25.49-20.122-17.536,5.7-33.535,16.132-26.715,34.975,14.482,40.016-4.112,60.406-36.737,75.908-4.037,1.919-9.942,5.153-10.441,8.463-5.24,34.731-24.606,64.273-34.819,97.107,5.419,11.985,24.133-5.466,26.99,12.191-38.461,29.731-68.384,66.273-91.366,109.269-16.2,30.316-17.735,61.808-12.509,94,5.559,34.252,31.885,56.657,67.34,57.887,25.752.893,51.606-1.612,77.4-1.288,34.387.432,50.3,13.649,58.455,47.112,9.1,37.331,6.043,75.183,3.676,112.89-2.486,39.6-6.014,78.95,11.258,116.84,6.976,15.3-3.484,20.242-17.128,23.826-102.51,26.922-201.06,15.005-295.863-30.275-15.251-7.284-39.4-9.307-42.8-26.946-6.173-32.047-16.889-64.608-8.487-98.246,1.859-7.441,4.966-13.985,12.35-17.314,25.452-11.476,15.944-24.436,1.183-36.758-10.578-8.83-21.1-18.712-33.372-24.355-50.867-23.38-77.083-66.866-96.213-115.835-10.267-26.281-24.04-46.978-53.15-54.632-19.668-5.171-27.234-18.709-23.844-39.294,4.036-24.513,5.169-49.566,10.179-73.844C554.2,601.843,607.206,551.417,685.3,538.661c14.6-2.384,27.322-5.666,31.4-21.945,3.6-14.376,17.042-15.427,27.341-20.566,21.854-10.9,37.588-26.486,40.264-51.955.638-6.077,2.029-13.767-4.744-17.374-6.422-3.42-12.728.169-17.658,4.533-8.262,7.316-15.862,15.378-24.1,22.721-7.6,6.776-16.722,10.173-24.144.992-7.226-8.938-7.222-23.661,2.785-26.426,42.665-11.787,69.254-50.29,110.376-63.665,8.7-2.83,17.912-4.086,26.889-6.067,4.571-2.183,7.566.283,10.329,3.462,11.888,19.79,6.069,36.779-8.1,52.7-12.111,13.609-26.847,24.936-38.328,42.537,9.271,1.859,13.454-2.977,17.225-7.051,14.96-16.16,33.616-25.425,54.758-30.122,15.03-3.338,26.928-11.538,36.873-22.875,6.021-6.865,13.824-13.64,10.863-23.937-3.129-10.878-13.485-11.051-22.6-12.228-3.645-.472-7.335-.6-10.978-1.308C898.646,358.268,892.9,357.012,894,349.5Z"/><path class="cls-1" d="M1297.146,797.949c29.436-12.6,43.416-35.592,44.232-66.935.817-31.367-32.209-43.2-42.736-70.483,32.244-5.585,56.532,9.682,81.237,22.713,8.649,4.561,7.148,14.572,8.236,22.414Q1423.88,963.4,1219.3,1124.437c-13.716,10.813-26.83,24.647-46.7,27.178,7.427-32.009,24.226-56.084,43.725-79.574,49.521-59.653,80.467-129.6,105.288-202.222,14.385-42.085,11.5-47.412-23.946-72.4Z"/><path class="cls-2" d="M1297.67,797.421c-31.8-14.173-54.32-38.094-66.946-69.8-17.664-44.356-47.2-67.781-96.48-65.971-32.026,1.176-62.407-4.2-80.886-36.241-6.145-10.657-18.453-11.348-29.791-8.624-11.552,2.775-22.87,6.527-34.29,9.85-5.68,2.278-7.289-.3-6.633-5.567q13.982-8.841,27.963-17.678c16.677-10.513,33.572-14.5,51.693-2.955,7.856,5,18.4,9.81,24.134-.082,4.728-8.162-7.008-11.038-12-15.483-6.265-5.575-11.523-11.4-14.717-20.556,10.333-2.362,16.83,3.611,22.55,8.143,30.873,24.462,65.394,40.319,103.937,48.471,13.484,2.852,27.013,9.1,33.853,22.04,26.97,51.012,60.135,98.976,77.1,154.972C1297.146,797.949,1297.67,797.421,1297.67,797.421Z"/><path class="cls-3" d="M894,349.5l11.814,5.7c-12.074,17.545-28.251,16.192-45.5,9.878l-6.605-6.164C866.3,352.18,879.821,349.422,894,349.5Z"/><path class="cls-4" d="M860.312,365.074l45.505-9.878c14.26,1.09,33.077-3.834,40.064,10.849,8.265,17.372-7.865,30.111-18.439,42.432-4.111,4.79-8.939,11.476-14.239,12.326-34.774,5.582-63.642,21.353-88.013,46.421-3.8,3.912-10.571,5.832-15.249,2.367-7.362-5.453-.546-12,1.662-16.857,7.428-16.358,22.774-25.929,35.252-37.923C861.365,400.864,872.587,386.193,860.312,365.074Z"/></svg>