
<!-- Generator: Adobe Illustrator 25.4.1, SVG Export Plug-In . SVG Version: 6.00 Build 0)  -->
<svg version="1.1" id="レイヤー_1" xmlns="http://www.w3.org/2000/svg" xmlns:xlink="http://www.w3.org/1999/xlink" x="0px"
	 y="0px" viewBox="0 0 1920 1920" style="enable-background:new 0 0 1920 1920;" xml:space="preserve">
<style type="text/css">
	.st0{fill:#FEFEFE;}
	.st1{fill:#FDFDFD;}
</style>
<path d="M1506.5,741.5c-5.7,153.7-99.2,314.7-284.2,420.5c-19.8,11.3-28.6,22.2-28.4,45.8c0.5,52.1,7.9,103.2,17.4,154.1
	c3.7,19.9,6.4,39.7,3,59.8c-5.7,34.1-26.1,58.5-51.1,61.2c-28.7,3.1-66.6-21.6-77.5-50.5c-7.3-19.5-6.3-39.4-2-59.3
	c9.8-45.5,14.7-91.7,19.7-138c1.9-17.2-0.2-25-21.8-19.4c-43,11.2-87.3,16.6-131.9,14c-18.5-1.1-27.6,4.8-35.2,22.4
	c-46.3,107.3-30.4,212.9,7.2,317.8c20.6,57.4,24.4,114-7,167.9c-37.7,64.9-108.6,64-146.2-0.7c-31.6-54.3-29.3-109.1-6.6-167.1
	c45.5-116.2,62.8-234.1,8.8-353.7c-8.7-19.3-20.1-36.4-39.7-34.2c-22.4,2.6-29.6,24.3-30.8,45.8c-1.6,29.6-1,59.2,3.3,88.6
	c3.8,26.2,6,52.6,3.1,79c-2.3,21.2-13.2,35.4-35.5,38.2c-21.7,2.7-37-7.3-45.8-26.4c-20.6-44.7-15.3-90.8-5.4-136.8
	c6-28,11-56,10.6-84.7c-0.7-42.8-14.3-78.2-47.6-109c-248.1-230-219.2-642.8,57.5-838.7c235.4-166.7,548.7-130.8,735.8,86.8
	C1463.9,427.1,1508.6,547,1506.5,741.5z"/>
<path d="M1142.3,1645.5c-33.1,0-61.3-28.1-60.3-60.1c1-31.6,27.7-56.8,60.3-56.8c35.4,0,59.9,24.9,58.9,60
	C1200.3,1621.9,1175.9,1645.5,1142.3,1645.5z"/>
<path class="st0" d="M884.4,191.5c61.1-11.4,121.7-8,182,5.3c37.2,8.2,52,45.7,29.2,84.6c-0.1-23.9-10.6-29.1-29.2-23.1
	c-20.1,6.5-38.4,18.5-30.6,40.1c16.6,45.9-4.7,69.2-42.1,87c-4.6,2.2-11.4,5.9-12,9.7c-6,39.8-28.2,73.7-39.9,111.3
	c6.2,13.7,27.7-6.3,30.9,14c-44.1,34.1-78.4,76-104.7,125.2c-18.6,34.7-20.3,70.8-14.3,107.7c6.4,39.3,36.5,64.9,77.2,66.4
	c29.5,1,59.2-1.8,88.7-1.5c39.4,0.5,57.7,15.6,67,54c10.4,42.8,6.9,86.2,4.2,129.4c-2.8,45.4-6.9,90.5,12.9,133.9
	c8,17.5-4,23.2-19.6,27.3c-117.5,30.9-230.5,17.2-339.1-34.7c-17.5-8.3-45.2-10.7-49.1-30.9c-7.1-36.7-19.4-74.1-9.7-112.6
	c2.1-8.5,5.7-16,14.2-19.8c29.2-13.2,18.3-28,1.4-42.1c-12.1-10.1-24.2-21.4-38.3-27.9C605.1,868,575,818.1,553.1,762
	c-11.8-30.1-27.6-53.8-60.9-62.6c-22.5-5.9-31.2-21.4-27.3-45c4.6-28.1,5.9-56.8,11.7-84.6c18.4-89,79.1-146.8,168.6-161.4
	c16.7-2.7,31.3-6.5,36-25.2c4.1-16.5,19.5-17.7,31.3-23.6c25-12.5,43.1-30.4,46.2-59.6c0.7-7,2.3-15.8-5.4-19.9
	c-7.4-3.9-14.6,0.2-20.2,5.2c-9.5,8.4-18.2,17.6-27.6,26c-8.7,7.8-19.2,11.7-27.7,1.1c-8.3-10.2-8.3-27.1,3.2-30.3
	c48.9-13.5,79.4-57.6,126.5-73c10-3.2,20.5-4.7,30.8-7c5.2-2.5,8.7,0.3,11.8,4c13.6,22.7,7,42.2-9.3,60.4
	c-13.9,15.6-30.8,28.6-43.9,48.8c10.6,2.1,15.4-3.4,19.7-8.1c17.1-18.5,38.5-29.1,62.8-34.5c17.2-3.8,30.9-13.2,42.3-26.2
	c6.9-7.9,15.8-15.6,12.5-27.4c-3.6-12.5-15.5-12.7-25.9-14c-4.2-0.5-8.4-0.7-12.6-1.5C889.7,201.5,883.1,200.1,884.4,191.5z"/>
<path class="st0" d="M1346.4,705.5c33.7-14.4,49.8-40.8,50.7-76.7c0.9-36-36.9-49.5-49-80.8c37-6.4,64.8,11.1,93.1,26
	c9.9,5.2,8.2,16.7,9.4,25.7c27.3,197-37.2,357-193.5,480c-15.7,12.4-30.8,28.2-53.5,31.2c8.5-36.7,27.8-64.3,50.1-91.2
	c56.8-68.4,92.2-148.6,120.7-231.8c16.5-48.2,13.2-54.3-27.4-83L1346.4,705.5z"/>
<path class="st1" d="M1347,704.9c-36.4-16.2-62.3-43.7-76.7-80c-20.2-50.8-54.1-77.7-110.6-75.6c-36.7,1.3-71.5-4.8-92.7-41.5
	c-7-12.2-21.2-13-34.1-9.9c-13.2,3.2-26.2,7.5-39.3,11.3c-6.5,2.6-8.4-0.3-7.6-6.4c10.7-6.8,21.4-13.5,32.1-20.3
	c19.1-12,38.5-16.6,59.3-3.4c9,5.7,21.1,11.2,27.7-0.1c5.4-9.4-8-12.7-13.8-17.7c-7.2-6.4-13.2-13.1-16.9-23.6
	c11.8-2.7,19.3,4.1,25.8,9.3c35.4,28,75,46.2,119.1,55.6c15.5,3.3,31,10.4,38.8,25.3c30.9,58.5,68.9,113.4,88.4,177.6
	C1346.4,705.5,1347,704.9,1347,704.9z"/>
<path d="M845.7,209.3l52.2-11.3c16.3,1.2,37.9-4.4,45.9,12.4c9.5,19.9-9,34.5-21.1,48.6c-4.7,5.5-10.2,13.2-16.3,14.1
	c-39.9,6.4-72.9,24.5-100.9,53.2c-4.4,4.5-12.1,6.7-17.5,2.7c-8.4-6.2-0.6-13.7,1.9-19.3c8.5-18.7,26.1-29.7,40.4-43.5
	C846.9,250.3,859.8,233.5,845.7,209.3z"/>
</svg>
