<?xml version="1.0" encoding="utf-8"?>
<!-- Generator: Adobe Illustrator 25.4.1, SVG Export Plug-In . SVG Version: 6.00 Build 0)  -->
<svg version="1.1" id="レイヤー_1" opacity="0.6"
	 xmlns="http://www.w3.org/2000/svg" xmlns:xlink="http://www.w3.org/1999/xlink" x="0px" y="0px" viewBox="0 0 1920 1920"
	 style="enable-background:new 0 0 1920 1920;" xml:space="preserve">
<style type="text/css">
	.st0{fill:#FFFFFF;}
	.st1{fill:none;stroke:#FFFFFF;stroke-width:2;stroke-miterlimit:10;}
	.st2{fill:none;}
</style>
<polygon class="st0" points="966.2,966.2 947.2,947.2 961.6,975.1 "/>
<path class="st0" d="M417.1,1285.4c1.9,3.5,25.8,46.2,25.8,46.2s1.6,5.4,7.5,2.5c1.9-0.9,34.4-19,77.6-42.9
	c92.3,140.5,251.3,233.3,432,233.3c154.8,0,293.8-68.1,388.4-176.1l-68.1-68.1c-7.3,8.6-15,16.9-23,25
	c-164.5,164.2-431,164-595.2-0.5c-18.5-18.5-35.3-38.8-50-60.4c73-40.5,143-79.5,143-79.5s6.1-4.3,10.3,2.7s31.8,57.5,31.8,57.5
	l128.2-192.5l-231.2,6.8l32.3,57.7c0,0,6.9,7.6-6.4,14.8c-6.2,3.3-71.4,39.5-139.7,77.3c-2.8-5.8-5.4-11.7-7.9-17.6
	c-66.7-157.7-31-340.1,90.2-461c8-8,16.4-15.7,25-23l-68.1-68.1c-108,94.7-176.1,233.7-176.1,388.5c-0.1,79,18,157,52.9,227.9
	c-44.7,24.8-78.1,43.3-78.1,43.3S415.2,1281.9,417.1,1285.4z"/>
<path class="st0" d="M1154.6,1167.6c4.2-7,10.3-2.7,10.3-2.7l0.2,0.1l-131.2-131.2l-39.2-1.1l128.2,192.5
	C1122.8,1225.1,1150.4,1174.6,1154.6,1167.6z"/>
<path class="st0" d="M1586.1,1586.1c-2.2,3.9-4.5,7.8-6.7,11.7c-4.7,8.2-9,9.9-17.9,7.1c-38.6-12.2-77.5-23.6-116.1-35.6
	c-5.8-1.8-9.8-1-14.4,2.8c-94.6,77-201.4,128.7-320.9,153.7c-81.7,17.1-165.7,20-248.4,8.6c-135.5-18.4-255.9-71.5-362.9-156.1
	c-3.2-2.6-7.2-4.5-9.7-7.6c-8.2-9.9-16.9-9.8-28.5-5.2c-34.9,13.7-70.4,26-105.6,39.1c-5.6,2.1-8.4,1.6-11.7-4
	c-69.3-120.1-138.7-240-208.4-359.8c-2.9-5.1-0.9-7,2.3-10c30.8-28.7,61.4-57.6,92.4-86.1c5.2-4.8,6.3-9.3,5.3-16
	c-23-149.5-5.3-293.8,58.6-431.2c42.6-91.6,99.4-169.5,170.2-233.8l-32.4-32.4c-42.7,39.6-81,83.7-114.1,131.7
	c-72.9,105.1-115.5,221.9-133,348.1c-9.1,65.3-7.9,130.9,0.8,196.3c0.9,6.4-0.2,10.8-5.3,15.3c-32.6,29.8-64.8,60-97.4,89.8
	c-5.5,5-6.2,8.7-2.5,15.2c82.9,143,165.7,286.1,248.3,429.3c3.2,5.6,6,6.3,11.7,4.2c40.4-15,81-29.5,121.4-44.5
	c5.8-2.2,9.6-1.3,14.2,2.4c28.6,22.6,58.5,43.5,90.2,61.6c146.5,83.6,303.7,118.6,471.9,102.9c80.8-7.6,158.3-28.4,233-59.5
	c59.6-24.8,114.8-57.9,166-97.3c5.1-3.9,9.4-4.9,15.8-2.9c41.6,13.4,83.5,26,125.1,39.4c8,2.6,11.6,0.9,15.8-6.3
	c7.7-13.5,15.5-26.9,23.2-40.3L1586.1,1586.1z"/>
<line class="st1" x1="1616.4" y1="1616.4" x2="431.2" y2="431.2"/>
<rect x="319" y="125" class="st2" width="1920" height="1920"/>
<rect x="319" y="125" class="st2" width="1920" height="1920"/>
<path class="st0" d="M1441.7,667.3c80.1,27.6,150.6,68.9,150.6,68.9s124-22.6,221.6-92.3c23.1-16.5,44.4-35.3,63.6-56.2
	c-398.7-13.3-570.1-92-652.2-164.4c-15.6-13.8-56.7-52.5-94.3-52.5c-5.4,0-10.8,0.8-16,2.6c-48.5,16.8-31.1,102.9-67.9,218.4
	c-20.3,63.8-52.4,122.1-87.5,172.4c-35-50.3-67.2-108.6-87.5-172.4c-36.7-115.5-19.4-201.6-67.9-218.4
	c-41.2-14.3-92.4,34.1-110.3,49.8c-33.3,29.4-81.3,59.8-153.2,86.4l203.5,203.5c9.2-17.9,16.6-24.3,26.1-25.9
	c13.2-2.2,25.1,7.1,30.8,11.7c23.6,19.3,72.4,65.8,121.9,114.2c-10.7,13.4-22.8,27.6-36.6,42.2l33.4,33.4
	c12.5-12.4,25.9-25.8,39.9-39.5c55.9,55.2,104.6,104.4,108.7,108.5c-10.1,15.4-20.9,31.1-32.5,47l35.3,35.3
	c29.3-27.4,58.4-54.2,87.3-80.4c-61.6-39.7-116.4-89.2-162.1-146.6c49.5-48.4,98.2-94.9,121.9-114.2c5.7-4.6,17.6-13.9,30.8-11.7
	c14.7,2.5,24.3,16.5,43.5,66.8c27.7,72.7,68.9,132.5,68.9,132.6c-22.2-76.4-9.7-117.3-9.7-117.3c0-0.1,0.1-0.2,0.1-0.4
	c2,23.9,7,47.4,14.8,70c12.9,36.7,36.1,77.4,36.1,77.4s35.7,6.3,42.4,7.4c46.4,7.9,101.7,6.2,130.3,4.6c11.9-0.7,19.2-1.4,19.2-1.4
	s-208.3-172.1-203.6-178.1c0.7-0.9,6.3,2.4,9.5,4.2c77.7,45,177.1,103.9,177.1,103.9s112.8,34.5,238.6,55.1
	c40.5,6.7,108.1,16.1,109.2,10.6c0.6-2.7-15.2-8.2-19.1-9.5C1710,879.1,1422,675.1,1429,664.2
	C1429.5,663.4,1431.2,663.7,1441.7,667.3z"/>
<path class="st0" d="M520.6,437.2l7.4-5.4l-40.2-54.4c-5.9,6.5-7,18.2-3.2,34.9l0.1,0.6l-1.4,1.1l-18.2-24.7l60.4-44.7l18.2,24.7
	l-1.4,1l-0.6-0.3c-10.2-5.9-19-8.9-26-8.9c-2.9,0-5.8,0.6-8.4,1.8l40.2,54.4l7.4-5.4l2.2,2.9l-34.3,25.4L520.6,437.2z"/>
<path d="M525.3,346l17,23l-0.1,0.1c-10.7-6.2-19.5-9-26.5-9c-3.5-0.1-6.9,0.8-9.9,2.4l41.5,56.1l7.4-5.4l1,1.3L523,438.7l-1-1.3
	l7.4-5.4l-41.5-56.1c-6.6,6.3-8.5,18.1-4.2,36.6l-0.1,0.1l-17-23L525.3,346 M525.7,343.2l-1.6,1.2l-58.8,43.5l-1.6,1.2l1.2,1.6
	l17,23l1.2,1.6l1.6-1.2l0.1-0.1l1-0.8l-0.3-1.3c-3.6-15.5-2.8-26.6,2.1-33.1l38.9,52.6l-5.7,4.3l-1.6,1.2l1.2,1.6l1,1.3l1.2,1.6
	l1.6-1.2l32.7-24.2l1.6-1.2l-1.2-1.6l-1-1.3l-1.2-1.6l-1.6,1.2l-5.7,4.3l-38.9-52.6c2.2-0.8,4.5-1.2,6.8-1.2c6.8,0,15.4,3,25.5,8.8
	l1.1,0.7l1.1-0.8l0.1-0.1l1.6-1.2l-1.2-1.6l-17-23L525.7,343.2L525.7,343.2z"/>
<path class="st0" d="M569,401.8l4.4-2.6l-30.3-50.7l-8.8-1.5l19.8-23.7l16.8,28.2c2.7-7.6,5.8-13.4,11.4-16.7
	c2.3-1.4,4.9-2.3,7.6-2.3c5,0,9.4,3.2,13.2,9.5l17.4,29.2l4.4-2.6l1.9,3.1l-27,16.1l-1.9-3.1l3.5-2.1l-15.2-25.4
	c-2.6-4.4-4.8-6.4-6.8-6.4c-0.9,0-1.7,0.3-2.5,0.8c-1.5,0.9-2.8,2.2-3.8,3.6l19.5,32.6l3.5-2.1l1.9,3.1l-27,16.1L569,401.8z"/>
<path d="M554,325l17.2,28.8c2.8-8.3,5.8-14.7,11.7-18.2c2.1-1.4,4.5-2.1,7-2.2c4.6,0,8.7,3,12.3,9l17.9,30l4.4-2.6l0.8,1.4
	L600,386.3l-0.8-1.4l3.5-2.1L587,356.5c-2.9-4.9-5.3-6.9-7.7-6.9c-1.1,0-2.1,0.4-3,0.9c-1.8,1.1-3.3,2.7-4.5,4.4l20.3,34l3.5-2.1
	l0.8,1.4l-25.3,15.1l-0.8-1.4l4.4-2.6l-31-51.9l-7.5-1.3L554,325 M554.2,321.6l-1.8,2.2L534.7,345l-2.2,2.7l3.4,0.6l6.6,1.1
	l29.5,49.4l-2.6,1.6l-1.7,1l1,1.7l0.8,1.4l1,1.7l1.7-1l25.3-15.1l1.7-1l-1-1.7l-0.8-1.4l-1-1.7l-1.7,1l-1.8,1.1l-18.6-31.2
	c0.8-1.1,1.9-2.1,3.1-2.8c0.6-0.4,1.3-0.6,2-0.7c1.6,0,3.6,1.9,6,5.9l14.7,24.6l-1.8,1.1l-1.7,1l1,1.7l0.8,1.4l1,1.7l1.7-1
	l25.3-15.1l1.7-1l-1-1.7l-0.8-1.4l-1-1.7l-1.7,1l-2.6,1.6l-16.9-28.3c-3.9-6.6-8.7-10-14-10c-2.9,0.1-5.7,0.9-8.1,2.5
	c-5.4,3.2-8.5,8.4-11.2,15.3l-15-25.1L554.2,321.6L554.2,321.6z"/>
<path class="st0" d="M640.5,362.9c-10.1,0-18.6-5.5-23.3-15c-3.3-6.5-4.1-14-2.2-21c2.1-7.1,7-12.7,14.2-16.3c2.9-1.5,6-2.2,9.2-2.3
	c5.6,0,10.1,2.6,12.4,7.3c3.8,7.7,1.3,17.3-6.8,26.5c3.1,0.9,6.4,1.4,9.6,1.4c3.5,0.1,7-0.7,10.2-2.1c0.8-0.4,1.6-0.9,2.3-1.5
	l0.4-0.3l1.4,0.5l-0.1,0.8c-1,8.4-5.9,14.7-14.5,19C649.4,361.8,645,362.9,640.5,362.9z M625,319.4c-0.6,0-1.3,0.1-1.8,0.4
	c-2.5,1.2-1.5,4.2-0.6,5.9c3.2,6.5,9.9,12.1,18,15.3c0.5-3.7-0.2-7.3-2.3-11.5C635.2,323.3,629,319.4,625,319.4z"/>
<path d="M638.4,309.3c5.1,0,9.4,2.4,11.5,6.7c3.7,7.6,1.2,17.1-7.7,26.6c3.7,1.2,7.5,1.9,11.4,1.9c3.7,0.1,7.3-0.7,10.6-2.3
	c0.9-0.4,1.7-1,2.5-1.6h0.1c-1,7.7-5.4,14-13.9,18.2c-3.9,1.9-8.1,3-12.4,3c-9.1,0-17.6-4.8-22.4-14.5c-6.6-13.3-3.1-28.7,11.5-35.9
	C632.3,310.1,635.3,309.4,638.4,309.3 M641.3,342.3c0.9-4.5,0.1-8.7-2.2-13.3c-3.3-6.6-9.8-10.6-14.2-10.6c-0.8,0-1.6,0.1-2.3,0.5
	c-2.4,1.2-2.7,3.9-1.1,7.2C625.4,333.7,633.1,339.4,641.3,342.3 M638.4,307.3c-3.4,0.1-6.7,0.9-9.6,2.4c-7.5,3.7-12.6,9.5-14.7,16.9
	c-2,7.3-1.2,15,2.3,21.7c4.8,9.8,13.9,15.6,24.2,15.6c4.6,0,9.2-1.1,13.3-3.2c8.8-4.3,14-11.2,15-19.8l0.2-1.6l-1.5-0.5h-0.1l-1-0.4
	l-0.9,0.7c-0.7,0.5-1.4,1-2.1,1.3c-3.1,1.4-6.4,2.1-9.7,2c-2.6,0-5.3-0.3-7.8-1c7.6-9.2,9.8-18.7,5.9-26.4
	C649.2,310.2,644.3,307.3,638.4,307.3L638.4,307.3z M639.7,339.6c-7.3-3.2-13.3-8.4-16.3-14.3c-0.7-1.3-1.5-3.7,0.2-4.5
	c0.4-0.2,0.9-0.3,1.4-0.3c3.7,0,9.5,3.6,12.4,9.5C639,332.9,639.8,336.2,639.7,339.6z"/>
<path class="st0" d="M670.6,346.3l4.7-1.9l-13.5-32.8l-8.5-2.8l23.2-20.1l4.3,10.4c2.6-8.2,6.7-14.2,10.8-15.9
	c0.7-0.3,1.5-0.5,2.2-0.5h0.7l10.9,26.5l-1.4,0.6l-0.4-0.2c-9.1-4.3-15-6.3-18.6-6.3c-0.8,0-1.7,0.1-2.4,0.4l13.3,32.2l7-2.9
	l1.4,3.4l-32.4,13.3L670.6,346.3z"/>
<path d="M693.9,283.6l10.3,24.9h-0.1c-9.8-4.7-15.5-6.4-19-6.4c-1.3-0.1-2.6,0.3-3.7,0.9l14,34l7-2.9l0.6,1.5l-30.5,12.6l-0.6-1.5
	l4.7-1.9l-14.1-34.1l-7.3-2.4l20.8-18l4.8,11.7c2.5-9.3,6.7-16.2,11.1-18C692.6,283.8,693.2,283.7,693.9,283.6 M695.2,281.5
	l-1.4,0.1c-0.9,0.1-1.7,0.3-2.5,0.6c-4,1.6-7.8,6.8-10.5,14l-2.8-6.7l-1.1-2.6l-2.1,1.8l-20.8,18l-2.7,2.3l3.3,1.1l6.4,2.1
	l12.9,31.4l-2.8,1.2l-1.8,0.8l0.8,1.8l0.6,1.5l0.8,1.8l1.8-0.8l30.5-12.6l1.8-0.8l-0.8-1.8l-0.6-1.5l-0.8-1.9l-1.8,0.8l-5.2,2.1
	l-12.4-30c0.4-0.1,0.7-0.1,1.1-0.1c3.5,0,9.2,2,18.1,6.2l0.8,0.4l0.8-0.3h0.1l1.8-0.8l-0.8-1.8l-10.3-24.9L695.2,281.5L695.2,281.5z
	"/>
<path class="st0" d="M734.2,324.8c-11.5,0-21-7-24.7-18.3c-5.2-15.5,1.9-30.3,16.9-35.3c2.3-0.8,4.6-1.2,7-1.2
	c6.6,0,11.9,3.5,13.7,9c2.7,8.2-1,17.3-10.4,25.4c4.1,1.9,8.6,2.9,13.1,3c2.3,0,4.5-0.3,6.7-1c0.9-0.3,1.7-0.7,2.5-1.1l0.5-0.3
	l1.3,0.7l-0.2,0.8c-2.1,8.1-7.8,13.8-16.9,16.9C740.6,324.3,737.4,324.8,734.2,324.8z M720.3,279.3c-0.4,0-0.8,0.1-1.1,0.2
	c-0.9,0.3-1.5,0.9-1.8,1.8c-0.3,1.3-0.1,2.7,0.4,3.9c2.3,6.8,8.1,13.4,15.8,17.6c1-3.6,0.8-7.3-0.7-11.7
	C730.5,284.1,724.4,279.3,720.3,279.3z"/>
<path d="M733.4,271c6.1,0,11,3.1,12.8,8.4c2.7,8-1.1,17.1-11.3,25.3c4.6,2.3,9.7,3.6,14.9,3.7c2.4,0,4.7-0.3,7-1.1
	c0.9-0.3,1.8-0.7,2.7-1.2l0.1,0.1c-2,7.5-7.3,13.2-16.2,16.2c-2.9,1-6,1.5-9.1,1.5c-10.4,0-19.9-6-23.8-17.6
	c-4.7-14.1,0.8-28.9,16.3-34.1C728.8,271.4,731.1,271,733.4,271 M734.1,304.3c1.5-4.4,1.3-8.6-0.3-13.5c-2.5-7.5-9.1-12.5-13.5-12.5
	c-0.5,0-1,0.1-1.5,0.2c-2.5,0.8-3.2,3.4-2,7C719.5,293.5,726.3,300.2,734.1,304.3 M733.4,269c-2.5,0-5,0.4-7.3,1.2
	c-15.5,5.2-22.9,20.6-17.5,36.6c3.9,11.7,13.8,19,25.7,19c3.3,0,6.6-0.6,9.8-1.6c9.3-3.1,15.3-9.2,17.5-17.5l0.4-1.6l-1.5-0.7
	l-0.1-0.1l-1-0.5l-0.9,0.6c-0.7,0.4-1.5,0.8-2.3,1c-2,0.7-4.2,1-6.3,1c-3.8-0.1-7.7-0.8-11.2-2.3c8.8-8.1,12.2-17.2,9.4-25.4
	C746,272.7,740.4,269,733.4,269L733.4,269z M732.9,301.3c-6.9-4.1-12.1-10.1-14.2-16.4c-0.4-1.1-0.5-2.2-0.3-3.3
	c0.1-0.6,0.6-1,1.1-1.1c0.3-0.1,0.5-0.1,0.8-0.1c3.3,0,9.3,4.2,11.6,11.1C733.1,294.6,733.4,298,732.9,301.3L732.9,301.3z"/>
<path class="st0" d="M783.7,306.4l4.9-1.2l-8.3-34.7l-7.9-4.1l25.9-16.7l12.1,50.2l4.9-1.2l0.8,3.5l-31.6,7.6L783.7,306.4z
	 M784,253.5c-5.6,0-9.8-3.6-11.2-9.6c-1.7-7.3,1.8-13.1,9.1-14.8c1.2-0.3,2.4-0.4,3.6-0.4c5.6,0,9.8,3.6,11.2,9.5
	c1.8,7.4-1.7,13.1-9,14.9C786.4,253.3,785.2,253.5,784,253.5L784,253.5z"/>
<path d="M785.4,229.6c5.2,0,8.9,3.3,10.2,8.8c1.6,6.6-1.3,12-8.3,13.7c-1.1,0.3-2.2,0.4-3.4,0.4c-5.2,0-8.9-3.3-10.3-8.9
	c-1.6-6.5,1.3-11.9,8.3-13.6C783.2,229.8,784.3,229.6,785.4,229.6 M797.6,251.4l12,49.8l4.9-1.2l0.4,1.6l-29.7,7.1l-0.4-1.6l4.9-1.2
	l-8.7-36.1l-6.8-3.5L797.6,251.4 M785.4,227.6L785.4,227.6c-1.3,0-2.6,0.2-3.8,0.5c-7.8,1.9-11.7,8.2-9.8,16
	c1.6,6.5,6.1,10.4,12.2,10.4c1.3,0,2.6-0.2,3.8-0.5c7.8-1.9,11.7-8.2,9.8-16.1C796.1,231.5,791.5,227.6,785.4,227.6z M798.9,248.2
	l-2.4,1.5l-23.3,15l-2.9,1.9l3.1,1.6l6,3.1l8,33.2l-3,0.7l-1.9,0.5l0.5,1.9l0.4,1.6l0.5,1.9l1.9-0.5l29.6-7.1l1.9-0.5l-0.5-1.9
	l-0.4-1.6l-0.5-1.9l-1.9,0.5l-3,0.7l-11.5-47.9L798.9,248.2L798.9,248.2z"/>
<path class="st0" d="M824.5,300.5c-2.2,0-4.5-0.1-6.7-0.4l-0.9-0.1l0.1-18.6l1.4-0.3l15.6,14.4c0.4,0,0.8,0.1,1.1,0.1
	c0.6,0,1.1-0.1,1.7-0.2c1.7-0.2,3.3-1,4.5-2.3c1-1.2,1.3-2.8,1-4.3c-0.4-2.4-2-3.6-6.6-5l-7.2-2.3c-10-3.1-14.6-7.6-16.1-15.2
	c-2-10.7,5.6-19.3,19.2-21.8c3-0.6,6.1-0.9,9.2-0.9c2.8,0,5.5,0.2,8.2,0.7l0.9,0.2l-1.1,18.2l-1.4,0.2l-14.8-14.5
	c-0.1,0-0.2,0-0.3,0c-0.3,0-0.5,0-0.8,0.1c-1.6,0.2-3,1-4,2.1c-0.7,0.9-1,2.1-0.8,3.2c0.5,2.9,2.1,5,8.5,6.9l8.2,2.6
	c8,2.6,12.7,7.2,13.9,13.7c0.9,5.3-0.9,10.7-4.8,14.4c-3.8,3.8-9.4,6.6-15.7,7.7C832.8,300.1,828.7,300.5,824.5,300.5z"/>
<path d="M840.8,244.7c2.7,0,5.4,0.2,8.1,0.7l-1,16.5h-0.1l-14.6-14.4c-0.3,0-0.5-0.1-0.8-0.1s-0.6,0-1,0.1c-4.4,0.8-6.1,3.7-5.6,6.5
	c0.6,3.5,2.7,5.7,9.2,7.7l8.2,2.6c7.6,2.4,12.1,6.8,13.2,13c1.9,10.4-7.4,18.7-19.7,21c-4,0.7-8.1,1.1-12.2,1.1
	c-2.2,0-4.4-0.1-6.6-0.4l0.1-16.9h0.1l15.5,14.3c0.6,0.1,1.1,0.1,1.5,0.1c0.6,0,1.3-0.1,1.9-0.2c4.4-0.8,7-3.7,6.2-7.8
	c-0.6-3-2.7-4.4-7.3-5.8l-7.2-2.3c-9.1-2.9-14-6.8-15.4-14.4c-1.9-10.1,5.1-18.2,18.4-20.7C834.7,245,837.8,244.7,840.8,244.7
	 M840.8,242.7c-3.2,0-6.3,0.3-9.4,0.9c-14.3,2.6-22.1,11.6-20,23c1.5,8,6.5,12.7,16.7,16l7.2,2.3c4.6,1.4,5.6,2.5,5.9,4.2
	c0.3,1.2,0,2.5-0.8,3.5c-1,1.1-2.4,1.8-3.9,2c-0.5,0.1-1,0.2-1.5,0.2c-0.2,0-0.4,0-0.6,0L819.5,281l-0.7-0.7l-1,0.2h-0.1l-1.6,0.3
	v1.7l-0.1,16.9v1.8l1.8,0.2c2.3,0.2,4.5,0.4,6.8,0.4c4.2,0,8.4-0.4,12.5-1.2c6.6-1.2,12.3-4,16.2-8c4.2-3.9,6.1-9.7,5.1-15.3
	c-1.1-5.8-4.7-10.2-10.8-13l0.6-0.1h0.1l1.5-0.3l0.1-1.6l1-16.5l0.1-1.8l-1.8-0.3C846.4,242.9,843.6,242.7,840.8,242.7L840.8,242.7z
	 M846.6,263.5c-0.9-0.4-1.8-0.7-2.8-1l-8.2-2.6c-6.5-2-7.4-4-7.8-6.2c-0.2-0.8,0-1.7,0.6-2.4c0.9-1,2.1-1.6,3.4-1.8
	c0.2,0,0.3,0,0.5,0l14.1,13.9L846.6,263.5L846.6,263.5z"/>
<path class="st0" d="M881.7,287l5.1-0.4l-2.7-35.5l-7.2-5.3l28.2-12.4l0.7,9.4c5.8-5.6,11.2-9.4,17.7-9.9c0.5,0,1-0.1,1.5-0.1
	c5.7,0,12.8,2.7,13.8,15.7l2.6,33.9l5.1-0.4l0.3,3.6l-31.4,2.4l-0.3-3.6l4.1-0.3l-2.3-29.5c-0.6-7.6-2.5-9.2-5.2-9.2
	c-0.2,0-0.4,0-0.6,0c-1.8,0.2-3.4,0.7-5,1.6l2.9,37.9l4.1-0.3l0.3,3.6l-31.4,2.4L881.7,287z"/>
<path d="M925,233.9c7.7,0,12.1,5,12.8,14.8l2.7,34.9l5.1-0.4l0.1,1.6l-29.4,2.3l-0.1-1.6l4.1-0.3l-2.4-30.5
	c-0.6-7.5-2.5-10.1-6.2-10.1c-0.2,0-0.4,0-0.7,0c-2.1,0.2-4.1,0.9-6,2l3,39.5l4.1-0.3l0.1,1.6l-29.4,2.3l-0.1-1.6l5.1-0.4l-2.9-37
	l-6.2-4.5l25.3-11.1l0.8,10.1c6.2-6.2,11.7-10.6,18.6-11.1C924,233.9,924.5,233.9,925,233.9 M925,231.9c-0.5,0-1.1,0-1.6,0.1
	c-6.2,0.5-11.4,3.8-16.8,8.7l-0.5-5.9l-0.2-2.8l-2.6,1.1L878,244.2l-3.2,1.4l2.8,2.1l5.4,4l2.6,34.1l-3.1,0.2l-2,0.2l0.2,2l0.1,1.6
	l0.2,2l2-0.2l29.4-2.3l2-0.2l-0.2-2l-0.1-1.6l-0.2-2l-2,0.2l-2.1,0.2l-2.8-36.2c1.3-0.6,2.6-1,4-1.2c0.2,0,0.3,0,0.5,0
	c1.3,0,3.6,0,4.2,8.3l2.2,28.5l-2.1,0.2l-2,0.2l0.2,2l0.1,1.6l0.2,2l2-0.2l29.4-2.3l2-0.2l-0.2-2l-0.1-1.6l-0.2-2l-2,0.2l-3.1,0.2
	l-2.5-32.9C938.7,234.1,930,231.9,925,231.9L925,231.9z"/>
<path class="st0" d="M977.6,287.1c-14.1-0.1-29-10-28.8-28c0.2-15.5,12.3-26.8,28.9-26.8h0.4c8.6,0.1,15.9,2.7,21.3,7.6
	c5.5,5,8.4,11.8,8.3,19.9c-0.2,16.9-11.5,27.4-29.6,27.4L977.6,287.1z M967.6,237.8c-2.6,0-3,2.5-3.1,3.9
	c-0.1,9.7,17.1,39.7,24.5,39.8l0,0c1.5,0,3.2-0.5,3.2-4.1c0-4-3.9-13.8-9.3-23C977,244.2,971.1,237.8,967.6,237.8v-1V237.8z"/>
<path d="M977.7,233.2h0.4c16.8,0.2,28.8,10.5,28.6,26.4c-0.2,14.7-9.6,26.4-28.6,26.4h-0.5c-14.6-0.2-27.9-10.7-27.8-27
	C950,244.6,961.3,233.2,977.7,233.2 M989.1,282.5c2.7,0,4.1-1.7,4.2-5.1c0.1-8.5-16.7-40.5-25.6-40.6h-0.1c-2.5,0-4,1.8-4.1,4.9
	C963.4,251.7,980.7,282.4,989.1,282.5L989.1,282.5 M977.7,231.2L977.7,231.2c-7.9-0.2-15.6,2.7-21.4,8.1c-5.4,5.2-8.5,12.3-8.5,19.8
	c-0.2,8,3.1,15.7,9,21.1c5.7,5.1,13.1,8,20.8,8h0.5c9.5,0,17.4-2.9,22.8-8.3c5-5,7.7-12,7.8-20.1c0.1-8.3-2.9-15.5-8.6-20.6
	c-5.5-5-13.1-7.7-22-7.8L977.7,231.2L977.7,231.2z M989.1,280.5L989.1,280.5c-2.4,0-7.8-5-14.3-15.7c-5.4-9.1-9.3-18.8-9.3-23.1
	c0-3,1.6-3,2.1-3c2.6,0,8,5,14.5,16.2c5.2,8.9,9.2,18.7,9.1,22.5C991.2,280.5,989.9,280.5,989.1,280.5L989.1,280.5z"/>
<path class="st0" d="M1063.1,292.7c-1.4,0-2.9-0.1-4.3-0.3c-7.1-0.7-13.7-4.3-18.2-9.9c-4.2-5.5-6.1-12.6-5-19.5
	c1.9-15,13.2-25.1,28.1-25.1c1.4,0,2.8,0.1,4.1,0.2c6.1,0.7,11.9,2.5,17.3,5.4l0.7,0.4l-7.7,29.3l-1.6-0.2l-0.2-0.6
	c-6.9-17.9-14.4-29-20.1-29.7c-0.2,0-0.3,0-0.5,0c-1.7,0-2.8,1.4-3.1,4.1c-0.9,7.4,1.6,15.9,6.9,23.3c5.1,7.1,12,11.9,18.5,12.6
	c0.5,0.1,1,0.1,1.5,0.1c0.4,0,0.9,0,1.3-0.1l0.6-0.1l1,1.2l-0.5,0.6C1077.2,290,1070.9,292.7,1063.1,292.7z"/>
<path d="M1063.7,239c1.3,0,2.7,0.1,4,0.2c5.9,0.7,11.7,2.5,17,5.3l-7.3,27.7h-0.1c-7.3-18.9-14.9-29.6-21-30.3c-0.2,0-0.4,0-0.6,0
	c-2.2,0-3.7,1.7-4.1,5c-1.9,16.3,12,35.3,26.2,37c0.5,0.1,1,0.1,1.6,0.1c0.5,0,1,0,1.5-0.2l0.1,0.1c-4.5,5.3-10.7,7.8-17.9,7.8
	c-1.4,0-2.8-0.1-4.2-0.3c-13.7-1.6-24.3-12.7-22.3-28.2C1038.3,249.5,1048.6,239,1063.7,239 M1063.7,237L1063.7,237
	c-7.4-0.1-14.5,2.5-19.9,7.5c-5.1,4.9-8.4,11.4-9.2,18.4c-1.1,7.2,0.8,14.5,5.2,20.2c4.7,5.8,11.5,9.5,18.9,10.3
	c1.5,0.2,2.9,0.3,4.4,0.3c8.1,0,14.7-2.9,19.4-8.5l1-1.2l-1-1.3l-0.1-0.1l-0.8-1l-1.2,0.3c-0.4,0.1-0.7,0.1-1.1,0.1s-0.9,0-1.3-0.1
	c-6.2-0.7-12.8-5.3-17.8-12.2c-5-7-7.5-15.5-6.7-22.6c0.4-3.2,1.7-3.2,2.1-3.2l0,0c0.1,0,0.2,0,0.3,0c4.1,0.5,11.4,8.4,19.3,29.1
	l0.4,1.1l1.2,0.1h0.1l1.7,0.2l0.4-1.7l7.3-27.7l0.4-1.6l-1.4-0.7c-5.5-2.9-11.5-4.8-17.7-5.5C1066.5,237.1,1065.1,237,1063.7,237
	L1063.7,237z"/>
<path class="st0" d="M1082.1,294.3l0.7-3.6l5,0.9l6.6-34.8l-5.6-7l30.4-4.2l-2.1,11c5.8-4.8,11.7-7.5,16.1-7.5c0.6,0,1.1,0,1.7,0.1
	c0.8,0.1,1.5,0.4,2.1,0.8l0.6,0.4l-5.3,28.2l-1.5-0.3l-0.2-0.4c-6.6-10.8-10.9-15.7-14.4-16.4l-6.5,34.3l7.5,1.4l-0.7,3.6
	L1082.1,294.3z"/>
<path d="M1117.9,246.9l-2.4,12.5c6.4-5.8,13-9.1,17.6-9.1c0.5,0,1,0,1.5,0.1c0.6,0.1,1.3,0.3,1.8,0.7l-5,26.5h-0.1
	c-8.2-13.5-12.4-16.9-16-17l-6.8,36.2l7.5,1.4l-0.3,1.6l-32.5-6.1l0.3-1.6l5,0.9l6.9-36.3l-4.8-6L1117.9,246.9 M1120.4,244.5
	l-2.8,0.4l-27.3,3.7l-3.5,0.5l2.2,2.8l4.2,5.3l-6.3,33.4l-3-0.6l-2-0.4l-0.4,2l-0.3,1.6l-0.4,2l2,0.4l32.5,6.1l2,0.4l0.4-2l0.3-1.6
	l0.4-2l-2-0.4l-5.5-1l6.1-32.2c3,1.4,7.1,6.4,12.7,15.6l0.5,0.8l0.9,0.2h0.1l2,0.4l0.4-2l5-26.5l0.3-1.4l-1.3-0.7
	c-0.8-0.4-1.6-0.7-2.4-0.9c-0.6-0.1-1.2-0.2-1.9-0.2c-4.1,0-9.3,2.2-14.6,6.1l1.3-7.1L1120.4,244.5L1120.4,244.5z"/>
<path class="st0" d="M1164.4,312.4c-2.6,0-5.3-0.4-7.8-1.1c-15.2-4-23.4-17.7-19.5-32.7c3.4-13,13.5-21.4,25.9-21.4
	c2.5,0,5.1,0.3,7.5,1c9.6,2.5,15.1,10,13.1,17.9c-2.2,8.3-10.3,14-22.5,15.6c4.2,6.4,9.8,10.9,15.5,12.4c0.9,0.2,1.8,0.4,2.7,0.4
	h0.5l0.8,1.3l-0.6,0.5C1175.7,310.4,1170.1,312.5,1164.4,312.4z M1159.2,261.2c-2.1,0-3.1,2.6-3.5,4.1c-1.8,7-0.5,15.6,3.6,23.4
	c2.8-2.5,4.6-5.7,5.8-10.2c1-3.8,0.8-7.7-0.5-11.4c-1.1-3.1-2.9-5.3-4.6-5.8C1159.7,261.2,1159.4,261.2,1159.2,261.2z"/>
<path d="M1162.9,258.3c2.5,0,4.9,0.3,7.3,1c9.2,2.4,14.2,9.5,12.4,16.7c-2.1,8.2-10.3,13.7-23.2,15.1c4.2,7,10.3,12.5,16.9,14.2
	c1,0.3,1.9,0.4,2.9,0.4l0.1,0.1c-4,3.7-9.4,5.8-14.9,5.7c-2.6,0-5.1-0.4-7.6-1c-13.9-3.6-22.8-16.2-18.8-31.5
	C1141.2,266.8,1150.7,258.3,1162.9,258.3 M1158.9,290.2c3.7-2.8,5.8-6.5,7.1-11.5c2.2-8.6-1.6-17.3-5.8-18.4c-0.3-0.1-0.7-0.1-1-0.1
	c-2.1,0-3.7,1.8-4.5,4.9C1152.5,273.2,1154.6,282.6,1158.9,290.2 M1162.9,256.3L1162.9,256.3L1162.9,256.3
	c-12.8,0-23.4,8.7-26.9,22.1c-4,15.5,4.5,29.8,20.2,33.9c2.6,0.7,5.3,1.1,8.1,1.1c6,0.1,11.8-2.1,16.2-6.2l1.2-1.1l-0.8-1.4
	l-0.1-0.1l-0.6-0.9h-1.1c-0.8,0-1.7-0.2-2.5-0.4c-5-1.3-10.1-5.2-14-10.7c11.7-2,19.6-7.7,21.8-16.1c2.2-8.4-3.6-16.5-13.8-19.1
	C1168.2,256.6,1165.6,256.3,1162.9,256.3L1162.9,256.3z M1159.5,287c-3.5-7.2-4.6-15.1-2.9-21.5c0.2-0.8,1-3.4,2.6-3.4
	c0.2,0,0.4,0,0.5,0.1c1.2,0.3,2.8,2,3.9,5.1C1165.8,274.2,1164.3,281.7,1159.5,287L1159.5,287z"/>
<path class="st0" d="M1202.3,324.1l1.5-4.5c-3,1.1-6.2,1.6-9.4,1.7c-2.2,0-4.3-0.3-6.4-1c-3-0.9-5.6-2.9-7.3-5.6
	c-1.5-2.7-1.7-6-0.6-8.9c2.2-6.6,8.8-10.1,18.9-10.1c4.2,0.1,8.3,0.5,12.4,1.4c1.5-4.6,1.7-8.5,0.7-11.5s-3.5-5.4-6.5-6.2
	c-1.8-0.6-3.6-1-5.5-1c-2,0-3.9,0.4-5.7,1.1l-0.8,0.3l-1.1-2.3l0.8-0.5c6.2-3.5,12-5.2,17.7-5.2c3.5,0,7,0.6,10.3,1.8
	c6.4,2.2,10.6,5.7,12.7,10.5s1.9,10.9-0.5,18l-8.7,25.7l4.8,1.6l-1.2,3.4L1202.3,324.1z M1210.3,300.6c-4.7,0.1-7.6,2.4-9.2,7
	c-1.4,4-0.4,6.5,2.8,7.6c0.4,0.1,0.9,0.2,1.3,0.3L1210.3,300.6z"/>
<path d="M1211,272.9c3.4,0,6.7,0.6,9.9,1.7c12.1,4.1,16.2,13.2,11.5,27.2l-9,26.7l4.8,1.6l-0.5,1.5l-24.1-8.2l1.9-5.5
	c-3.5,1.5-7.2,2.3-11,2.4c-2.1,0-4.1-0.3-6.1-1c-6.3-2.1-9.3-7.1-7.2-13.2c2.1-6.3,8.5-9.5,17.9-9.5c4.4,0.1,8.8,0.6,13.1,1.6
	c3.6-10.6,1.2-17.3-6.2-19.8c-1.9-0.7-3.8-1-5.8-1c-2.1,0-4.1,0.4-6,1.1l-0.3-0.6C1199.6,274.7,1205.2,272.9,1211,272.9
	 M1205.9,316.7l5.8-17c-0.3,0-0.6,0-0.9,0c-5.7,0-8.9,2.9-10.6,7.7c-1.5,4.5-0.4,7.6,3.4,8.9
	C1204.4,316.4,1205.1,316.6,1205.9,316.7 M1211,270.9L1211,270.9c-5.9,0-11.8,1.7-18.2,5.3l-1.6,0.9l0.8,1.7l0.3,0.6l0.8,1.6
	l1.7-0.6c1.7-0.6,3.6-1,5.4-1s3.5,0.3,5.1,0.9c2.8,0.7,5,2.8,5.9,5.6c0.8,2.6,0.7,6-0.5,10c-3.9-0.8-7.8-1.2-11.7-1.3
	c-10.4,0-17.5,3.8-19.8,10.8c-1.2,3.2-1,6.7,0.6,9.7c1.8,2.9,4.6,5.1,7.8,6c2.2,0.7,4.4,1.1,6.7,1.1c2.7,0,5.3-0.4,7.8-1.2l-0.6,1.6
	l-0.6,1.9l1.9,0.6l24.1,8.2l1.9,0.6l0.6-1.9l0.5-1.5l0.6-1.9l-1.9-0.6l-2.9-1l8.4-24.8c2.5-7.4,2.7-13.7,0.5-18.7
	c-2.2-5.1-6.6-8.8-13.3-11C1218.2,271.5,1214.6,270.9,1211,270.9L1211,270.9z M1204.6,314.4c-0.1,0-0.2-0.1-0.3-0.1
	c-1.9-0.6-3.7-1.9-2.2-6.4c1.3-3.7,3.4-5.7,6.8-6.2L1204.6,314.4L1204.6,314.4z"/>
<path class="st0" d="M1260.9,345.7c-3.5,0-6.9-0.8-10.1-2.1c-5.8-2.4-9.3-5.8-10.6-10.5c-1.2-4.3-0.5-9.6,2.3-16.1l10.7-25.7l-7.2-3
	l0.6-1.5l37-10.3l-8.3,20l13.2,5.5l-1.4,3.3l-13.2-5.5l-8.7,20.9c-2.2,5.4-3.1,9.2-2.6,11.9c0.4,2.6,2.1,4.3,5.3,5.7
	c1.8,0.8,3.7,1.2,5.6,1.2h0.7l0.6,1.5l-0.6,0.5C1270.1,344.2,1265.6,345.7,1260.9,345.7z"/>
<path d="M1281.8,278l-7.9,19l13.2,5.5l-0.6,1.5l-13.2-5.5l-9.1,21.9c-4.5,10.9-3.7,16,3.3,18.9c1.9,0.8,3.9,1.3,6,1.3l0.1,0.1
	c-3.7,2.6-8,4-12.5,4c-3.4,0-6.7-0.7-9.7-2c-11.2-4.7-12.8-13.1-7.8-25.3l11.1-26.7l-7.2-3v-0.1L1281.8,278 M1285.2,275l-4,1.1
	l-34.5,9.6l-0.9,0.3l-0.4,0.9v0.1l-0.7,1.8l1.8,0.8l5.4,2.2l-10.3,24.8c-2.8,6.8-3.6,12.2-2.3,16.8c1.4,4.9,5.1,8.6,11.1,11.1
	c3.3,1.4,6.9,2.2,10.5,2.2c4.9,0,9.7-1.5,13.7-4.4l1.3-0.9l-0.6-1.5l-0.1-0.1l-0.5-1.2h-1.3c-1.8,0-3.6-0.4-5.2-1.1
	c-2.9-1.2-4.3-2.7-4.7-4.9c-0.4-2.5,0.4-6.1,2.5-11.3l8.3-20l11.4,4.7l1.8,0.8l0.8-1.8l0.6-1.5l0.8-1.8l-1.8-0.8l-11.4-4.7l7.2-17.2
	L1285.2,275L1285.2,275z"/>
<path class="st0" d="M1268.8,350.1l1.6-3.3l4.6,2.2l15.4-32.1l-3.6-8.2l30.6,3.4l-22.4,46.5l4.6,2.2l-1.6,3.3L1268.8,350.1z
	 M1313.1,309.5c-2.1,0-4.1-0.5-6-1.5c-6.8-3.3-9-9.6-5.7-16.5c2.2-4.6,6-7.2,10.4-7.2c2.1,0,4.1,0.5,6,1.5c3.1,1.3,5.5,3.9,6.7,7
	c0.9,3.1,0.6,6.5-0.9,9.4C1321.3,306.9,1317.5,309.5,1313.1,309.5L1313.1,309.5z"/>
<path d="M1311.8,285.3c1.9,0,3.8,0.5,5.6,1.4c6.5,3.1,8.2,9,5.3,15.1c-2.1,4.3-5.5,6.8-9.5,6.8c-1.9,0-3.8-0.5-5.6-1.4
	c-6.5-3.1-8.2-9-5.2-15.1C1304.3,287.7,1307.7,285.3,1311.8,285.3 M1288.4,310l27.5,3.1l-22.2,46.2l4.6,2.2l-0.7,1.5l-27.5-13.2
	l0.7-1.5l4.6,2.2l16.1-33.4L1288.4,310 M1311.8,283.3c-4.8,0-8.9,2.8-11.3,7.8c-3.5,7.3-1.1,14.3,6.2,17.8c2,1,4.2,1.5,6.4,1.6
	c4.8,0,8.9-2.9,11.4-7.9c1.6-3.1,2-6.7,1-10.1c-1.2-3.4-3.9-6.2-7.2-7.6C1316.2,283.8,1314,283.3,1311.8,283.3L1311.8,283.3z
	 M1285.2,307.6l1.4,3.2l2.7,6.2l-14.8,30.8l-2.8-1.3l-1.8-0.9l-0.9,1.8l-0.7,1.5l-0.9,1.8l1.8,0.9l27.5,13.2l1.8,0.9l0.9-1.8
	l0.7-1.5l0.9-1.8l-1.8-0.9l-2.8-1.3l21.3-44.4l1.2-2.5l-2.8-0.3l-27.5-3.1L1285.2,307.6L1285.2,307.6z"/>
<path class="st0" d="M1341.7,384.9c-5.9-0.1-11.6-1.8-16.7-4.9c-6.5-3.6-11.4-9.4-13.9-16.4c-2.5-7.3-1.6-15.3,2.2-22
	c4.7-8.4,13.5-13.6,23.2-13.6c5.4,0.1,10.7,1.5,15.4,4.2c15.6,8.8,20.6,24.2,12.7,38.3C1359.3,379.8,1351.2,384.9,1341.7,384.9z
	 M1338.6,331.6c-1.5,0-2.5,1.3-3.1,2.4c-2.2,3.9-3.5,14.3-3.1,25.2c0.4,11.4,2.5,19.9,5.4,21.5c0.5,0.3,1.1,0.5,1.7,0.5
	c1.1,0,2.2-0.9,3.2-2.6c4.2-7.4,4.6-42.6-2.4-46.6C1339.6,331.8,1339.1,331.6,1338.6,331.6L1338.6,331.6z"/>
<path d="M1336.5,329c5.2,0.1,10.4,1.5,14.9,4.1c14.6,8.3,20.1,23.1,12.3,36.9c-4.8,8.5-12.5,13.8-22,13.8c-5,0-10.4-1.5-16.2-4.7
	c-12.7-7.2-19.3-22.8-11.3-37.1C1318.7,334,1327.3,328.9,1336.5,329 M1339.4,382.2c1.5,0,2.9-1,4-3.1c4.2-7.4,5-43.5-2.8-47.9
	c-0.6-0.4-1.3-0.6-2-0.6c-1.5,0-2.9,1-4,2.9c-4.9,8.7-4.7,44,2.6,48.1C1337.8,382,1338.6,382.2,1339.4,382.2 M1336.5,327L1336.5,327
	c-10,0-19.2,5.4-24,14.1c-4,6.9-4.9,15.2-2.3,22.8c2.5,7.2,7.6,13.3,14.3,17c5.2,3.1,11.1,4.9,17.2,5c9.7,0,18.4-5.4,23.7-14.9
	c4.1-7.2,4.9-14.9,2.4-22.2c-2.4-7.1-7.8-13.1-15.5-17.5C1347.6,328.6,1342.1,327.1,1336.5,327L1336.5,327z M1339.3,380.2
	c-0.4,0-0.8-0.2-1.2-0.4c-2-1.1-4.4-8.1-4.8-20.6c-0.4-10.6,0.9-21,3-24.7c0.4-0.7,1.2-1.9,2.3-1.9c0.4,0,0.7,0.1,1,0.3
	c2.2,1.2,4.6,8.3,4.9,21.1c0.2,10.2-1,20.8-2.8,24.1C1341.1,379.1,1340.3,380.2,1339.3,380.2L1339.3,380.2z"/>
<path class="st0" d="M1380.7,413.7l2.1-3l3.3,2.3l16.8-24.4c5-7.3,3.4-9.3,1.2-10.8c-1.5-1-3.1-1.6-4.9-1.9l-21.5,31.3l3.3,2.3
	l-2.1,3l-25.9-17.8l2.1-3l4.2,2.9l20.2-29.4l-2.3-8.6l29.7,8.1l-5.3,7.8c2.2-0.2,4.1-0.3,5.8-0.3c6,0,10.5,1.2,14.2,3.7
	c3.8,2.6,5.9,5.8,6.2,9.6c0.3,3.7-1.1,7.8-4.1,12.2l-19.3,28l4.2,2.9l-2.1,3L1380.7,413.7z"/>
<path d="M1378.7,358l26.7,7.3l-5.8,8.4c2.6-0.3,5.2-0.5,7.9-0.5c5.2,0,9.7,0.9,13.6,3.6c7.1,4.9,7.7,11.9,1.9,20.4l-19.8,28.8
	l4.2,2.9l-0.9,1.3l-24.3-16.7l0.9-1.3l3.3,2.3l17.3-25.2c4.5-6.5,4.4-9.8,1-12.2c-1.8-1.1-3.8-1.9-5.9-2.2l-22.5,32.7l3.3,2.3
	l-0.9,1.3l-24.3-16.7l0.9-1.3l4.2,2.9l21-30.6L1378.7,358 M1375.8,355.2l0.9,3.4l1.7,6.5l-19.4,28.2l-2.5-1.7l-1.6-1.1l-1.1,1.6
	l-0.9,1.3l-1.1,1.6l1.6,1.1l24.3,16.7l1.6,1.1l1.1-1.6l0.9-1.3l1.1-1.6l-1.6-1.1l-1.7-1.2l20.6-29.9c1.4,0.3,2.7,0.8,3.9,1.6
	c1.4,1,3.4,2.3-1.5,9.4l-16.2,23.6l-1.7-1.2l-1.6-1.1l-1.1,1.6l-0.9,1.3l-1.1,1.6l1.6,1.1l24.3,16.7l1.6,1.1l1.1-1.6l0.9-1.3
	l1.1-1.6l-1.6-1.1l-2.5-1.7l18.7-27.2c3.2-4.6,4.6-9,4.3-12.9c-0.4-4-2.6-7.5-6.7-10.3c-3.9-2.7-8.6-3.9-14.7-3.9
	c-1.2,0-2.4,0-3.8,0.1l3.4-4.9l1.6-2.3l-2.7-0.7l-26.7-7.3L1375.8,355.2L1375.8,355.2z"/>
<path class="st0" d="M1408.9,452.1c-5-0.1-10-0.9-14.7-2.5l-1.4-0.4l1.3-1.7h1.2c8.8,0,14.2-1.8,20-6.7c-3.7-4.2-3.9-9.2-0.3-13.8
	c1.9-2.7,5-4.3,8.3-4.5c2.5,0.1,4.9,1,6.8,2.6c5.6,4.4,6,10.4,1.2,16.6C1425.9,448.5,1418.2,452.1,1408.9,452.1z"/>
<path d="M1423.3,423.5c2.3,0.1,4.5,0.9,6.2,2.4c4.6,3.6,6,8.8,1,15.2c-5.1,6.5-12.4,10.1-21.6,10.1c-4.9-0.1-9.7-0.9-14.4-2.5
	l0.1-0.2h0.7c9.7,0,15.4-2.2,21.4-7.7c-4.4-4.3-4.1-9.2-1-13.2C1417.5,425.1,1420.3,423.6,1423.3,423.5 M1423.3,421.5L1423.3,421.5
	c-3.6,0.1-7,1.9-9.1,4.8c-3.6,4.6-3.7,9.9-0.3,14.2c-5.3,4.3-10.4,5.9-18.6,5.9h-0.7h-1l-0.6,0.8l-0.1,0.2l-1.8,2.3l2.7,0.9
	c4.8,1.6,9.9,2.5,15,2.6c9.6,0,17.6-3.8,23.2-10.8c5.2-6.6,4.7-13.2-1.3-18C1428.7,422.6,1426,421.6,1423.3,421.5L1423.3,421.5z"/>
<path class="st0" d="M1479.9,488.4c-6.2-0.1-12.1-2.6-16.6-6.9c-4.6-4.3-6.7-8.7-6.3-13.4c0.4-4.5,2.9-9.2,7.7-14.4l18.9-20.5
	l-5.8-5.3l1.1-1.2l38.3,3.1l-14.7,15.9l10.5,9.7l-2.5,2.7l-10.5-9.7l-15.4,16.7c-4,4.3-6,7.5-6.5,10.2c-0.5,2.6,0.5,4.8,3,7.2
	c1.4,1.3,3,2.4,4.8,3.1l0.6,0.2l0.1,1.6l-0.8,0.2C1483.9,488.1,1481.9,488.4,1479.9,488.4z"/>
<path d="M1479.4,427.8l35.7,2.9l-14,15.1l10.5,9.7l-1.1,1.2L1500,447l-16.1,17.4c-8,8.7-9,13.7-3.4,18.8c1.5,1.4,3.2,2.5,5.2,3.3
	v0.1c-1.9,0.5-3.8,0.8-5.7,0.8c-5.9-0.1-11.6-2.5-15.9-6.6c-8.9-8.2-7.6-16.7,1.4-26.4l19.6-21.2L1479.4,427.8L1479.4,427.8
	 M1478.6,425.7l-0.7,0.7l-0.1,0.1l-1.4,1.5l1.5,1.4l4.3,4L1464,453c-5,5.4-7.6,10.3-7.9,15c-0.4,5,1.8,9.8,6.6,14.3
	c4.6,4.5,10.8,7.1,17.2,7.1c2.1,0,4.2-0.3,6.2-0.8l1.5-0.4l-0.1-1.6v-0.1l-0.1-1.3l-1.2-0.5c-1.7-0.6-3.2-1.6-4.5-2.9
	c-2.3-2.2-3.2-4-2.7-6.3c0.5-2.5,2.5-5.6,6.3-9.8l14.7-15.9l9.1,8.4l1.5,1.4l1.4-1.5l1.1-1.2l1.4-1.5l-1.5-1.4l-9.1-8.4l12.7-13.7
	l2.8-3l-4.1-0.3l-35.7-2.8L1478.6,425.7L1478.6,425.7z"/>
<path class="st0" d="M1501,517.8l2.7-2.5l2.8,3l21.7-20.2c2.7-2.5,4.3-4.6,4.7-6.3c0.4-1.5-0.1-3-1.2-4c-1.2-1.3-2.7-2.2-4.3-2.9
	l-27.8,25.9l2.8,3l-2.7,2.5l-21.5-23l2.7-2.5l3.5,3.7l43.2-40.2l-0.4-8.9l27.3,14.3l-24,22.4c8,1,14.3,2.9,18.8,7.7
	c3.1,3.4,4.5,7,4,10.7s-2.7,7.4-6.7,11.1l-24.9,23.2l3.5,3.7l-2.7,2.5L1501,517.8z"/>
<path d="M1528.2,447.1l24.5,12.9l-24.5,22.9c8.7,1,15.6,2.6,20.3,7.6c5.9,6.3,5,13.3-2.6,20.3l-25.6,23.8l3.5,3.7l-1.2,1.1
	l-20.1-21.6l1.2-1.1l2.8,3l22.4-20.9c5.8-5.4,6.4-8.6,3.6-11.7c-1.5-1.5-3.3-2.7-5.3-3.4l-29,27l2.8,3l-1.2,1.1l-20.1-21.6l1.2-1.1
	l3.5,3.7l44.3-41.2L1528.2,447.1 M1526,443.7l0.1,3.5l0.3,6.7l-42.1,39.2l-2.1-2.3l-1.4-1.5l-1.5,1.4l-1.2,1.1l-1.5,1.4l1.4,1.5
	l20.1,21.6l1.4,1.5l1.5-1.4l1.2-1.1l1.5-1.4l-1.4-1.5l-1.4-1.5l26.6-24.8c1.3,0.6,2.4,1.4,3.4,2.4c1.2,1.3,1.2,2.3,1,3
	c-0.4,1.5-1.9,3.4-4.5,5.8l-20.9,19.5l-1.4-1.5l-1.4-1.5l-1.5,1.4l-1.2,1.1l-1.5,1.4l1.4,1.5l20.1,21.6l1.4,1.5l1.5-1.4l1.2-1.1
	l1.5-1.4l-1.4-1.5l-2.1-2.3l24.1-22.5c4.1-3.8,6.5-7.8,7-11.7c0.5-4-0.9-7.9-4.3-11.5c-4.3-4.6-10-6.6-17.3-7.7l21.4-20l2.1-1.9
	l-2.5-1.3l-24.5-12.9L1526,443.7L1526,443.7z"/>
<path class="st0" d="M1558.9,574.7c-7.5,0-14-3.4-19.4-10.2c-9.8-12.3-8.1-28.2,4.1-37.9c5.1-4.2,11.6-6.6,18.2-6.7
	c8,0,15.4,3.7,20.8,10.5c6.2,7.8,6.1,17.1-0.3,22.2c-3.2,2.5-7.2,3.9-11.3,3.8c-5,0-10.4-1.6-16.1-4.8c-0.5,7.7,1.2,14.6,4.9,19.2
	c0.6,0.7,1.2,1.4,1.9,2l0.4,0.3l-0.2,1.5l-0.8,0.1C1560.4,574.6,1559.6,574.7,1558.9,574.7z M1570.2,525.4c-1.4,0.1-2.7,0.7-3.8,1.7
	c-5.7,4.5-9.8,12.2-11.2,20.8c3.7-0.3,7.1-1.7,10.8-4.7c3-2.4,5.3-5.7,6.5-9.4c1-3.1,0.9-6-0.2-7.4
	C1571.8,525.8,1571.1,525.4,1570.2,525.4L1570.2,525.4z"/>
<path d="M1561.8,520.9c7.3,0,14.5,3.2,20,10.1c5.9,7.5,5.7,16.1-0.1,20.7c-3,2.4-6.8,3.6-10.7,3.6c-5,0-10.8-1.8-16.9-5.5
	c-0.9,8.1,0.7,16.1,5,21.5c0.6,0.8,1.3,1.5,2.1,2.1v0.1c-0.7,0.1-1.4,0.1-2.1,0.1c-6.9,0-13.3-3.1-18.6-9.9
	c-8.9-11.2-8.4-26.7,3.9-36.5C1549.2,523.3,1555.4,521,1561.8,520.9 M1554.1,549c4.6,0,8.5-1.7,12.6-4.9c6.9-5.5,9.2-14.8,6.4-18.2
	c-0.7-0.9-1.7-1.4-2.9-1.4c-1.6,0.1-3.2,0.8-4.4,1.9C1559.2,531.6,1555.2,540.3,1554.1,549 M1561.8,518.9
	c-6.9,0.1-13.5,2.5-18.8,6.9c-12.6,10-14.4,26.5-4.2,39.3c5.6,7,12.4,10.6,20.2,10.6c0.8,0,1.5,0,2.3-0.1l1.6-0.1l0.2-1.6v-0.1
	l0.1-1.1l-0.9-0.7c-0.7-0.5-1.2-1.1-1.8-1.8c-3.2-4-4.9-10.2-4.8-16.9c5.4,2.8,10.4,4.2,15.2,4.2c4.3,0.1,8.5-1.3,11.9-4
	c6.8-5.4,7-15.3,0.5-23.6C1577.8,522.8,1570.1,518.9,1561.8,518.9z M1556.5,546.8c1.5-7.8,5.4-14.8,10.6-18.9c0.9-0.8,2-1.3,3.2-1.5
	c0.5,0,1,0.2,1.3,0.7c0.7,0.9,1.1,3.3,0.1,6.5C1569.2,540.3,1563.5,545.4,1556.5,546.8L1556.5,546.8z"/>
<path class="st0" d="M1553.5,580.5l3-2.1l2.9,4.2l29.2-20.1l1-8.9l24.5,18.5l-9.3,6.4c8.5,0.8,15.2,3.5,17.8,7.3
	c0.4,0.6,0.8,1.3,1,2.1l0.2,0.7l-23.6,16.2l-0.9-1.3l0.1-0.4c2.9-12.3,3.3-18.8,1.4-21.8L1572,601l4.3,6.3l-3,2.1L1553.5,580.5z"/>
<path d="M1590.3,555.5l22,16.6l-10.5,7.2c9.6,0.5,17.2,3.2,19.9,7c0.4,0.5,0.7,1.1,0.8,1.8l-22.2,15.3l-0.1-0.1
	c3.6-15.3,3.1-20.8,0.6-23.4l-30.3,20.9l4.3,6.3l-1.3,0.9l-18.7-27.2l1.3-0.9l2.9,4.2l30.4-20.9L1590.3,555.5 M1588.7,551.7
	l-0.4,3.5l-0.7,6.7l-28,19.3l-1.7-2.5l-1.1-1.6l-1.6,1.1l-1.3,0.9l-1.6,1.1l1.1,1.6l18.7,27.2l1.1,1.6l1.6-1.1l1.3-0.9l1.6-1.1
	l-1.1-1.6l-3.2-4.6l27-18.6c1.2,3.1,0.5,9.5-2,20.1l-0.2,0.9l0.5,0.7l0.1,0.1l1.1,1.7l1.7-1.1l22.2-15.3l1.2-0.8l-0.4-1.4
	c-0.2-0.8-0.6-1.6-1.1-2.3c-2.4-3.6-8.3-6.2-15.9-7.4l6-4.1l2.3-1.6l-2.2-1.7l-22-16.6L1588.7,551.7L1588.7,551.7z"/>
<path class="st0" d="M1614.3,658c-8.4-0.4-15.2-4.8-20-13c-3.7-6-5-13.2-3.5-20.1c1.6-7,6-12.8,12.7-16.8c4.6-2.8,9.9-4.3,15.4-4.4
	c9.4,0,17.6,4.9,22.7,13.5c2.4,3.7,3.4,8.2,2.9,12.6c-0.5,3.9-2.8,7.3-6.2,9.3c-2.7,1.6-5.8,2.4-8.9,2.4l0,0
	c-5.6,0-11.8-2.5-18.1-7.2c-1.5,7.5-0.7,14.6,2.3,19.7c0.5,0.8,1,1.5,1.6,2.2l0.4,0.4l-0.4,1.5L1614.3,658z M1612.2,630.8
	c0.4,0,0.7,0,1.1,0c3.6-0.1,7.2-1.2,10.3-3.2c3.3-2,6-4.9,7.7-8.4c1.4-3,1.7-5.8,0.8-7.4c-0.5-0.9-1.4-1.4-2.4-1.4
	c-1.3,0.1-2.5,0.5-3.5,1.2C1619.8,615.4,1614.7,622.5,1612.2,630.8L1612.2,630.8z"/>
<path d="M1618.9,604.7c8.5,0,16.6,4.2,21.8,13c4.9,8.2,3.4,16.8-3,20.5c-2.5,1.5-5.5,2.3-8.4,2.3c-5.7,0-12.1-2.6-18.7-7.9
	c-1.9,7.9-1.4,16.1,2,22c0.5,0.9,1.1,1.7,1.8,2.4v0.1c-7.8-0.4-14.4-4.4-19.2-12.5c-7.3-12.3-4.7-27.6,8.8-35.6
	C1608.5,606.2,1613.6,604.8,1618.9,604.7 M1613.2,631.9c3.8-0.1,7.6-1.2,10.8-3.3c7.6-4.5,11.1-13.4,8.8-17.2
	c-0.7-1.2-1.9-1.9-3.3-1.8c-1.4,0.1-2.8,0.5-4,1.3c-7.3,4.3-12.4,12.4-14.7,20.9C1611.6,631.8,1612.4,631.9,1613.2,631.9
	 M1618.9,602.7c-5.6,0.1-11.1,1.6-15.9,4.5c-6.6,3.7-11.4,10.1-13.2,17.5c-1.5,7.2-0.2,14.6,3.6,20.9c5,8.4,12.2,13.1,20.8,13.5
	l1.6,0.1l0.4-1.6v-0.1l0.3-1.1l-0.7-0.8c-0.6-0.6-1.1-1.3-1.5-2c-2.6-4.4-3.5-10.8-2.4-17.4c6,4.2,11.9,6.4,17.4,6.4
	c3.3,0,6.6-0.8,9.4-2.5c3.6-2.1,6.1-5.8,6.7-10c0.5-4.6-0.5-9.3-3-13.3C1637.2,607.8,1628.6,602.7,1618.9,602.7L1618.9,602.7z
	 M1613.5,629.9c2.6-7.6,7.4-13.9,13-17.3c0.9-0.6,1.9-1,3-1c0.6,0,1.2,0.3,1.5,0.9c0.6,1,0.6,3.4-0.8,6.4
	C1627,625.2,1620.7,629.4,1613.5,629.9L1613.5,629.9z"/>
<path class="st0" d="M1615.9,682.2l3.3-1.6l2.2,4.6l32.1-15.4l2.3-8.6l21.8,21.8l-46.6,22.3l2.2,4.6l-3.3,1.6L1615.9,682.2z
	 M1682.6,680.5c-4.5,0-8.2-2.6-10.4-7.2c-1.6-3-1.9-6.5-0.8-9.7c1.3-3,3.6-5.5,6.7-6.8c1.9-0.9,3.9-1.4,6-1.5
	c4.5,0,8.2,2.6,10.4,7.2c3.2,6.7,1,13.2-5.8,16.4C1686.8,679.9,1684.7,680.4,1682.6,680.5L1682.6,680.5z"/>
<path d="M1684,656.3c3.9,0,7.4,2.2,9.5,6.7c3.1,6.5,0.8,12.2-5.3,15.1c-1.8,0.9-3.7,1.4-5.7,1.4c-3.9,0-7.3-2.2-9.5-6.7
	c-3.1-6.5-0.8-12.2,5.4-15.1C1680.2,656.8,1682.1,656.4,1684,656.3 M1656.4,663.1l19.5,19.6l-46.2,22.1l2.2,4.6l-1.5,0.7l-13.2-27.5
	l1.5-0.7l2.2,4.6l33.5-16L1656.4,663.1 M1684,654.3L1684,654.3c-2.2,0-4.4,0.6-6.4,1.6c-3.3,1.4-5.8,4-7.2,7.3
	c-1.2,3.5-0.9,7.2,0.8,10.5c2.4,5,6.4,7.8,11.3,7.8c2.3,0,4.5-0.6,6.5-1.6c7.3-3.5,9.7-10.4,6.2-17.7
	C1692.9,657.1,1688.9,654.3,1684,654.3L1684,654.3z M1655.4,659.2l-0.9,3.3l-1.7,6.5l-30.8,14.8l-1.3-2.8l-0.9-1.8l-1.8,0.9
	l-1.5,0.7l-1.8,0.9l0.9,1.8l13.2,27.5l0.9,1.8l1.8-0.9l1.5-0.7l1.8-0.9l-0.9-1.8l-1.3-2.8l44.4-21.3l2.5-1.2l-2-2l-19.6-19.6
	L1655.4,659.2L1655.4,659.2z"/>
<path class="st0" d="M1657.3,747.8c-8,0-15.9-6.5-20.1-16.6c-2.5-5.9-4.1-12.1-4.7-18.5l-0.1-0.9l18.2-3.8l0.6,1.3l-10.9,18.2
	c0.1,0.9,0.3,1.8,0.7,2.7c1.2,2.8,3.1,4.4,5.3,4.4c0.8,0,1.5-0.2,2.3-0.5c2.2-0.9,3.1-2.8,3.5-7.5l0.7-7.6
	c1-10.4,4.3-15.9,11.5-18.9c2.1-0.9,4.3-1.4,6.6-1.4c7.8,0,14.6,5.7,18.7,15.6c2.3,5.4,3.6,11.2,3.8,17.1v0.9l-18,2.7l-0.5-1.3
	l11.1-17.5c0-0.4-0.1-0.7-0.3-1.1c-1-2.5-2.7-3.9-4.7-3.9c-0.5,0-1.1,0.1-1.6,0.3c-2.7,1.1-4.4,3.1-5,9.8l-0.8,8.6
	c-0.8,8.4-4.4,13.9-10.5,16.5C1661.3,747.4,1659.3,747.8,1657.3,747.8z"/>
<path d="M1671,699.9c7.2,0,13.8,5.3,17.8,15c2.3,5.3,3.5,11,3.7,16.7l-16.4,2.5V734l11-17.3c0-0.6-0.2-1.2-0.4-1.7
	c-1.3-3.1-3.5-4.5-5.6-4.5c-0.7,0-1.3,0.1-1.9,0.4c-3.3,1.4-5,3.8-5.6,10.6l-0.8,8.6c-0.8,7.9-4.1,13.2-9.9,15.7
	c-1.7,0.7-3.6,1.1-5.5,1.1c-7.9,0-15.2-6.6-19.1-16c-2.4-5.8-4-11.9-4.7-18.2l16.5-3.4v0.1l-10.8,18.1c0.1,1.1,0.4,2.2,0.8,3.3
	c1.3,3.2,3.6,5,6.3,5c0.9,0,1.8-0.2,2.6-0.6c2.8-1.2,3.7-3.5,4.1-8.3l0.7-7.6c0.9-9.5,3.8-15.1,10.9-18
	C1666.7,700.3,1668.8,699.9,1671,699.9 M1670.9,697.9c-2.4,0-4.8,0.5-7,1.4c-7.5,3.1-11.1,9-12.1,19.7l-0.7,7.6
	c-0.4,4.8-1.3,6-2.9,6.7c-0.6,0.3-1.2,0.4-1.9,0.4c-2.5,0-3.8-2.4-4.4-3.8c-0.3-0.7-0.5-1.4-0.6-2.1l10.4-17.5l0.5-0.9l-0.4-0.9
	v-0.1l-0.6-1.5l-1.6,0.3l-16.5,3.4l-1.8,0.4l0.2,1.8c0.7,6.5,2.3,12.8,4.8,18.8c4.3,10.5,12.6,17.2,21,17.2c2.2,0,4.3-0.4,6.3-1.3
	c5.5-2.3,9-6.7,10.5-13.3l0.2,0.5v0.1l0.6,1.4l1.5-0.2l16.4-2.5l1.8-0.3l-0.1-1.8c-0.2-6-1.5-11.9-3.9-17.4
	C1686.3,703.8,1679.2,697.9,1670.9,697.9L1670.9,697.9z M1674.2,733.2c0.2-0.9,0.3-1.9,0.4-3l0.8-8.6c0.6-6.8,2.4-8.1,4.4-8.9
	c0.4-0.2,0.8-0.2,1.2-0.2c1.5,0,2.9,1.2,3.7,3.3c0.1,0.2,0.1,0.3,0.2,0.5l-10.6,16.7L1674.2,733.2L1674.2,733.2z"/>
<path class="st0" d="M1664.6,805.5l3.5-1l1.1,3.9l28.4-8.4c3.6-1.1,5.9-2.2,7-3.5c1-1.1,1.3-2.7,0.7-4.1c-0.5-1.7-1.4-3.2-2.6-4.6
	l-36.4,10.7l1.2,3.9l-3.5,1l-8.9-30.2l3.5-1l1.4,4.9l34.2-10.1l3.7-8.1l18,25l-9,2.7c6.7,4.5,11.5,9,13.4,15.3
	c1.8,6.2,1.2,14.4-12.1,18.3l-32.6,9.6l1.4,4.9l-3.5,1L1664.6,805.5z"/>
<path d="M1698.1,761l16.2,22.5l-9.8,2.9c7.3,4.7,12.8,9.3,14.8,15.9c2.4,8.3-1.5,14.1-11.4,17l-33.5,9.9l1.4,4.9l-1.6,0.5l-8.3-28.3
	l1.6-0.5l1.2,3.9l29.3-8.7c7.6-2.2,9.6-4.8,8.4-8.8c-0.7-2-1.8-3.9-3.2-5.4l-38,11.2l1.2,3.9l-1.6,0.5l-8.3-28.3l1.6-0.5l1.4,4.9
	l35.6-10.5L1698.1,761 M1697.7,757l-1.4,3.2l-2.8,6.1l-32.8,9.7l-0.9-3l-0.6-1.9l-1.9,0.6l-1.6,0.5l-1.9,0.6l0.6,1.9l8.3,28.3
	l0.6,1.9l1.9-0.6l1.6-0.5l1.9-0.6l-0.6-1.9l-0.6-2l34.8-10.3c0.9,1.1,1.6,2.3,2,3.7c0.5,1.8,0.1,2.6-0.5,3.2c-1,1.1-3.2,2.2-6.6,3.2
	l-27.4,8.1l-0.6-2l-0.6-1.9l-1.9,0.6l-1.6,0.5l-1.9,0.6l0.6,1.9l8.3,28.3l0.6,1.9l1.9-0.6l1.6-0.5l1.9-0.6l-0.6-1.9l-0.9-3l31.6-9.3
	c11-3.2,15.5-10.2,12.8-19.5c-1.8-6-6.1-10.4-12-14.6l5.7-1.7l2.7-0.8l-1.6-2.3l-16.2-22.5L1697.7,757L1697.7,757z"/>
<path class="st0" d="M1705.1,890.5c-13.6,0-23.5-9.1-26.6-24.4c-2.8-13.8,3.8-30.4,21.4-34c1.8-0.4,3.7-0.6,5.5-0.6
	c13.2,0,24,9.5,26.8,23.6c3.5,17.5-4.8,31.4-20.7,34.6C1709.5,890.3,1707.3,890.5,1705.1,890.5z M1721.6,843.8
	c-0.5,0-0.9,0.1-1.4,0.1c-4.4,0.9-13.1,6.7-21.1,14.1c-8.4,7.8-13.4,14.9-12.7,18.1c0.1,1.5,1.5,2.6,3,2.5h0.1l0,0
	c0.6,0,1.1-0.1,1.6-0.2c8.3-1.7,35.2-24.4,33.6-32.3C1724.5,844.7,1723.1,843.6,1721.6,843.8L1721.6,843.8z"/>
<path d="M1705.5,832.6c12.2,0,23,8.6,25.8,22.8c3.3,16.4-4.3,30.3-19.9,33.5c-2.1,0.4-4.2,0.6-6.3,0.6c-12,0-22.3-7.4-25.6-23.6
	c-2.9-14.3,4.6-29.6,20.7-32.8C1701.9,832.8,1703.7,832.6,1705.5,832.6 M1689.4,879.7c0.6,0,1.2-0.1,1.8-0.2
	c8.4-1.7,36.2-24.7,34.4-33.5c-0.3-2-2.1-3.4-4.1-3.2c-0.5,0-1.1,0.1-1.6,0.2c-9.8,2-36.3,25.3-34.6,33.4
	C1685.6,878.4,1687.4,879.9,1689.4,879.7 M1705.5,830.6L1705.5,830.6L1705.5,830.6c-1.9,0-3.8,0.2-5.7,0.6
	c-7.9,1.5-14.7,6.3-18.8,13.2c-3.8,6.6-5.1,14.5-3.5,22c3.2,15.8,13.5,25.2,27.6,25.2c2.3,0,4.5-0.2,6.7-0.7
	c8.2-1.6,14.5-6,18.4-12.7c3.8-6.5,4.8-14.5,3.1-23.1C1730.4,840.4,1719.2,830.6,1705.5,830.6L1705.5,830.6z M1689.4,877.7
	c-1.3,0-1.9-0.4-2.1-1.7c-0.5-2.3,3.2-8.6,12.4-17.2c7.8-7.2,16.4-13,20.6-13.9c0.4-0.1,0.8-0.1,1.2-0.1c1.6,0,2,0.8,2.1,1.6
	c0.5,2.5-3.3,8.9-12.8,17.5c-7.6,6.9-16.4,12.9-20.1,13.6C1690.4,877.6,1689.9,877.7,1689.4,877.7L1689.4,877.7z"/>
<path class="st0" d="M1692,955.7l6.7-0.5c-5.4-5-8.6-10.6-9-16c-0.9-11.6,8.3-19.8,23.4-21.1c1.2-0.1,2.4-0.1,3.6-0.1
	c15.7,0,27,8.9,28.1,22.2c0.4,3.9-0.3,7.9-2,11.4l11.7-1l5.2-7.2l12.5,28.2l-74.8,6.1l0.4,5.1l-3.6,0.3L1692,955.7z M1725.1,941.1
	c-1.4,0-2.8,0.1-4.4,0.2c-6.8,0.6-11.6,1.7-14.7,3.4c-3,1.7-4.2,3.9-4,6.9c0.1,1.1,0.4,2.2,1,3.2l35.6-2.9c0.6-1.3,0.9-2.7,0.7-4.1
	C1739,943.6,1733.7,941.1,1725.1,941.1L1725.1,941.1z"/>
<path d="M1716.6,918.9c15.1,0,26.1,8.4,27.1,21.3c0.4,4.3-0.5,8.7-2.8,12.5l14-1.1l4.5-6.2l11.3,25.3l-74.4,6.1l0.4,5.1l-1.6,0.1
	l-2.1-25.3l8-0.7c-5.9-4.9-10-10.9-10.5-16.9c-0.8-10.3,6.9-18.7,22.5-20C1714.3,919,1715.4,918.9,1716.6,918.9 M1702.5,955.8
	l36.8-3c0.9-1.5,1.3-3.3,1.1-5.1c-0.4-4.6-5.5-7.7-15.2-7.7c-1.4,0-2.9,0.1-4.4,0.2c-13.6,1.1-20.1,4.6-19.6,11.4
	C1701.2,953.1,1701.7,954.6,1702.5,955.8 M1716.6,916.9c-1.2,0-2.4,0-3.6,0.2c-15.8,1.3-25.4,10-24.4,22.2
	c0.4,5.1,3.1,10.3,7.8,15.1l-3.5,0.3l-2,0.2l0.2,2l2.1,25.3l0.2,2l2-0.2l1.6-0.1l2-0.2l-0.2-2l-0.3-3.1l72.4-5.9l2.8-0.2l-1.1-2.6
	l-11.3-25.3l-1.4-3.2l-2,2.8l-3.9,5.4l-9.6,0.8c1.3-3.3,1.8-6.8,1.4-10.3C1744.6,926.2,1732.9,916.9,1716.6,916.9L1716.6,916.9z
	 M1703.7,953.7c-0.3-0.7-0.5-1.5-0.6-2.2c-0.2-2.6,0.9-4.4,3.5-5.9c2.9-1.7,7.7-2.8,14.3-3.3c1.5-0.1,2.9-0.2,4.3-0.2
	c8,0,12.9,2.2,13.2,5.8c0.1,1-0.1,2.1-0.4,3L1703.7,953.7L1703.7,953.7z"/>
<path class="st0" d="M1703.7,1033.4c-7.1-4.6-10.7-11.8-10.7-21.3c0-15.7,11.2-27.2,26.6-27.2h0.1c16.2,0,28.1,11.4,28.1,27.1
	c0,9.9-5.8,17.2-14,17.2l0,0c-8.8,0-16.1-6.3-20.8-17.8c-5.1,5.7-8.1,12.2-8,18.1c0,0.9,0.1,1.8,0.3,2.7l0.1,0.5l-1.1,1.1
	L1703.7,1033.4z M1715.6,1008.9c3.1,2.1,6.6,3,11.2,3h0.1c8.5,0,15.3-5.7,15.3-9.3c0-2.7-3.1-3.2-5-3.2v-1v1
	C1730,999.4,1722,1003,1715.6,1008.9L1715.6,1008.9z"/>
<path d="M1719.7,985.9c14.8,0,27.1,9.9,27.1,26.1c0,9.6-5.5,16.2-13,16.2h-0.1c-8.4,0-15.8-6.5-20.4-18.6c-5.7,5.8-9.4,13.1-9.4,20
	c0,1,0.1,2,0.3,2.9l-0.1,0.1c-6.5-4.2-10.2-11-10.2-20.5c0-14.3,9.9-26.2,25.6-26.2L1719.7,985.9 M1726.8,1012.9L1726.8,1012.9
	c8.9,0,16.4-5.9,16.4-10.3c0-2.6-2.2-4.1-6-4.1l0,0c-8.4,0-17,4.4-23.2,10.5C1717.6,1011.8,1721.7,1012.9,1726.8,1012.9
	 M1719.7,983.9L1719.7,983.9c-16.2,0.1-27.8,11.9-27.7,28.2c0,9.8,3.9,17.4,11.1,22.2l1.4,0.9l1.1-1.2l0.1-0.1l0.8-0.8l-0.2-1.1
	c-0.2-0.8-0.3-1.7-0.3-2.5c0-5.2,2.5-11.1,6.8-16.3c4.9,10.8,12.5,16.9,21.1,16.9h0.1c8.7,0,15-7.7,15-18.2
	C1748.8,995.7,1736.5,983.9,1719.7,983.9L1719.7,983.9z M1717.2,1008.7c6.1-5.2,13.4-8.3,20-8.3l0,0c1.5,0,4,0.3,4,2.2
	c0,2.8-6,8.3-14.3,8.3h-0.1C1723.5,1011,1720.2,1010.3,1717.2,1008.7L1717.2,1008.7z"/>
<path class="st0" d="M1724.3,1073.9l0.1-1.4l17.6-10.8c0.1-0.4,0.2-0.7,0.2-1.1c0.2-3.5-1.4-5.8-4-6c-0.2,0-0.4,0-0.6,0
	c-2.6,0-4.9,1.1-8.2,6.6l-4.5,7.4c-4.2,6.8-9.5,10.2-15.7,10.2c-0.3,0-0.7,0-1,0c-10.5-0.6-17.4-11.3-16.6-25.2
	c0.4-6.4,1.7-12.7,3.8-18.7l0.3-0.8l18,4.6l-0.1,1.4l-17.8,11.6c-0.3,0.9-0.5,1.8-0.5,2.7c-0.3,4.1,1.7,6.6,5.1,6.9
	c0.1,0,0.3,0,0.4,0c2.2,0,3.7-1.3,6.1-5.2l4-6.5c5.1-8.4,10.3-11.9,17.3-11.9c0.4,0,0.9,0,1.3,0c10.9,0.7,17.4,10.1,16.5,23.9
	c-0.3,5.9-1.7,11.6-4.1,17l-0.4,0.8L1724.3,1073.9z"/>
<path d="M1696.5,1035.1l16.3,4.2v0.1l-17.6,11.5c-0.4,1.1-0.7,2.2-0.7,3.3c-0.3,4.5,1.9,7.7,6,7.9c0.1,0,0.3,0,0.4,0
	c2.8,0,4.6-1.7,6.9-5.7l4-6.5c4.7-7.7,9.4-11.5,16.4-11.5c0.4,0,0.8,0,1.3,0c10.2,0.6,16.4,9.4,15.6,22.9c-0.3,5.8-1.7,11.4-4,16.7
	l-15.8-4.9v-0.1l17.5-10.7c0.2-0.5,0.4-1.1,0.4-1.7c0.3-4.5-2.1-6.9-5-7c-0.2,0-0.4,0-0.6,0c-3.2,0-5.8,1.6-9.1,7.1l-4.5,7.4
	c-4,6.4-8.9,9.7-14.8,9.7c-0.3,0-0.7,0-1,0c-10.6-0.7-16.4-11.7-15.6-24.2C1693.1,1047.2,1694.3,1041,1696.5,1035.1 M1695.2,1032.7
	l-0.6,1.7c-2.2,6.1-3.5,12.5-3.9,19c-0.9,14.6,6.5,25.6,17.5,26.3c0.4,0,0.7,0,1.1,0c5.4,0,10.2-2.5,14.2-7.4v0.6v0.1l-0.1,1.6
	l1.5,0.5l15.8,4.9l1.7,0.5l0.7-1.6c2.4-5.5,3.8-11.4,4.2-17.3c0.9-14.5-6-24.3-17.5-25c-0.5,0-0.9,0-1.4,0
	c-7.4,0-12.8,3.7-18.1,12.4l-4,6.5c-2.4,4-3.7,4.7-5.2,4.7c-0.1,0-0.2,0-0.3,0c-3.9-0.2-4.3-3.7-4.2-5.8c0-0.7,0.2-1.5,0.4-2.1
	l17-11.2l0.8-0.5l0.1-1v-0.1l0.1-1.7l-1.6-0.4l-16.3-4.2L1695.2,1032.7L1695.2,1032.7z M1724.1,1071.5c0.6-0.8,1.1-1.6,1.7-2.5
	l4.5-7.4c3.4-5.6,5.5-6.1,7.4-6.1c0.2,0,0.3,0,0.5,0c2.1,0.1,3.3,2,3.1,4.9c0,0.2,0,0.3-0.1,0.5l-16.9,10.4L1724.1,1071.5
	L1724.1,1071.5z"/>
<path class="st0" d="M1733.7,1126.6l1.8-14.2l-22.5-2.8c-1.9-0.3-3.9-0.4-5.8-0.4c-6.8,0-9.7,2.2-10.4,7.8c-0.3,1.9-0.2,3.9,0.4,5.7
	l0.2,0.6l-1.3,1l-0.6-0.5c-6.4-5.2-9.3-13-8.2-21.8c1.3-10.4,7.2-15.5,18-15.5c1.8,0,3.6,0.1,5.4,0.4l27.7,3.4l1-7.8l1.6,0.2
	l19.9,32.8l-21.5-2.7l-1.8,14.2L1733.7,1126.6z"/>
<path d="M1740,1083.6L1740,1083.6l18.7,30.7l-20.5-2.5l-1.8,14.2l-1.6-0.2l1.8-14.2l-23.5-2.9c-2-0.3-4-0.4-5.9-0.4
	c-7.4,0-10.6,2.6-11.4,8.6c-0.3,2-0.2,4.1,0.4,6.1l-0.1,0.1c-5.5-4.5-9-11.7-7.9-20.9c1.3-10.3,7.1-14.6,17-14.6
	c1.8,0,3.5,0.1,5.3,0.3l28.7,3.5L1740,1083.6 M1738.3,1081.4l-0.2,2l-0.7,5.8l-26.7-3.3c-1.8-0.2-3.7-0.4-5.5-0.4
	c-11.2,0-17.6,5.5-19,16.4c-1.1,9.2,1.9,17.3,8.6,22.7l1.2,1l1.3-1l0.1-0.1l1.1-0.8l-0.3-1.3c-0.5-1.7-0.6-3.6-0.3-5.3
	c0.5-4.4,2.2-6.9,9.4-6.9c1.9,0,3.8,0.2,5.7,0.4l21.5,2.7l-1.5,12.2l-0.2,2l2,0.2l1.6,0.2l2,0.2l0.2-2l1.5-12.2l18.5,2.3l4.1,0.5
	l-2.1-3.5l-18.6-30.7l-0.5-0.8l-1-0.1h-0.1L1738.3,1081.4L1738.3,1081.4z"/>
<path class="st0" d="M1701.6,1171.2l0.3-1.5l0.4-0.2c10.8-6.6,15.7-10.9,16.4-14.4l-34.3-6.4l-1.4,7.5l-3.6-0.7l6.5-34.4l3.6,0.7
	l-0.9,5l34.8,6.5l7-5.6l4.2,30.4l-11.1-2.1c5.4,6.7,8.2,13.3,7.4,17.7c-0.1,0.8-0.4,1.5-0.8,2.1l-0.4,0.6L1701.6,1171.2z"/>
<path d="M1686.7,1122.2l1.6,0.3l-0.9,5l36.3,6.8l6-4.8l3.8,27.3l-12.5-2.3c6.4,7.1,9.9,14.5,9,19.1c-0.1,0.6-0.3,1.3-0.7,1.8
	l-26.5-5v-0.1c13.4-8.2,16.9-12.4,17-16.1l-36.2-6.8l-1.4,7.5l-1.6-0.3L1686.7,1122.2 M1685.1,1119.9l-0.4,2l-6.1,32.5l-0.4,2l2,0.4
	l1.6,0.3l2,0.4l0.4-2l1-5.5l32.2,6c-1.4,3-6.3,7.1-15.6,12.8l-0.8,0.5l-0.2,0.9v0.1l-0.3,1.9l1.9,0.4l26.5,5l1.4,0.3l0.7-1.3
	c0.4-0.8,0.7-1.6,0.9-2.4c0.8-4.2-1.5-10.3-6-16.5l7.1,1.3l2.7,0.5l-0.4-2.8l-3.8-27.3l-0.5-3.5l-2.7,2.2l-5.2,4.2l-33.4-6.3l0.6-3
	l0.4-2l-2-0.4l-1.6-0.3L1685.1,1119.9L1685.1,1119.9z"/>
<path class="st0" d="M1665.9,1224.8l-1.3,4.9l-3.5-0.9l7.1-26.5l6.6,1.8c-2.5-6.5-4.7-13.2-3.3-18.7c1.8-6.9,6-10.2,12.7-10.2
	c2.9,0.1,5.9,0.5,8.7,1.3l20.7,5.5l7.4-5l2.3,30.7l-32.2-8.6c-2.5-0.8-5.1-1.3-7.7-1.5c-2.3,0-3.4,0.9-4.1,3.3
	c-0.3,1.4-0.5,2.8-0.4,4.2l27,7.3l7.4-5l2.3,30.7L1665.9,1224.8z"/>
<path d="M1684.3,1176.2c2.8,0.1,5.7,0.5,8.4,1.3l21.1,5.7l6.3-4.3l2.1,27.6l-30.8-8.3c-2.6-0.8-5.3-1.3-8-1.5c-2.8,0-4.2,1.1-5,4
	c-0.4,1.7-0.5,3.5-0.4,5.3l28.2,7.6l6.3-4.3l2.1,27.6l-49.4-13.3l-1.3,4.9l-1.6-0.4l6.6-24.5l7.6,2c-3-7.7-5.4-14.4-3.9-19.9
	C1674.2,1179.2,1677.9,1176.2,1684.3,1176.2 M1684.3,1174.2c-7.2,0-11.7,3.6-13.7,10.9c-1.4,5.3,0.4,11.4,2.6,17.5l-3.8-1l-1.9-0.5
	l-0.5,1.9l-6.6,24.5l-0.5,1.9l1.9,0.5l1.6,0.4l1.9,0.5l0.5-1.9l0.8-3l47.4,12.7l2.7,0.7l-0.2-2.8l-2.1-27.6l-0.2-2.7l7.4,2l2.7,0.7
	l-0.2-2.8l-2.1-27.6l-0.3-3.5l-2.9,2l-5.6,3.8l-20.2-5.4C1690.3,1174.7,1687.3,1174.3,1684.3,1174.2L1684.3,1174.2z M1679.9,1204.4
	c0-1.1,0.1-2.2,0.4-3.2c0.6-2.2,1.4-2.5,3.1-2.5c2.5,0.2,5,0.7,7.5,1.4l22.6,6.1l-2,1.4l-5.6,3.8L1679.9,1204.4L1679.9,1204.4z"/>
<path class="st0" d="M1664.7,1278.2l0.5-1.5l0.6-0.1c19-2.8,31.5-7.6,33.4-13.1c0.3-0.8,0.3-1.7-0.2-2.4c-0.8-1-1.8-1.7-3-2
	c-3-1-6.2-1.6-9.4-1.5c-13.6,0-27.6,8.2-31.2,18.3c-0.3,0.9-0.5,1.8-0.6,2.7v0.6l-1.4,0.7l-0.5-0.7c-5-6.6-5.8-14.9-2.6-24.1
	c3.9-10.9,13.3-17.9,24.2-17.9c3.3,0,6.5,0.6,9.6,1.8c15.5,5.6,22.7,21.1,17.1,36.9c-2,5.8-5.1,11.1-9.1,15.7l-0.5,0.6
	L1664.7,1278.2z"/>
<path d="M1674.5,1238.3c3.2,0,6.3,0.6,9.3,1.7c14,5.1,22.2,19.3,16.5,35.6c-2,5.6-5,10.9-8.9,15.4l-25.4-13.2v-0.1
	c20-2.9,32.2-8,34.2-13.7c0.9-2.4-0.4-4.4-3.8-5.7c-3.1-1.1-6.5-1.6-9.8-1.6c-13.6,0-28.3,8.1-32.1,19c-0.4,1-0.6,2-0.6,3l-0.1,0.1
	c-5-6.6-5.5-14.7-2.4-23.2C1654.9,1245.3,1663.8,1238.3,1674.5,1238.3 M1674.5,1236.3L1674.5,1236.3c-11.2,0-21.1,7.3-25.1,18.5
	c-3.4,9.5-2.5,18.2,2.7,25.1l1,1.3l1.5-0.7l0.1-0.1l1.1-0.5v-1.2c0-0.8,0.2-1.6,0.5-2.4c3.5-9.7,17-17.6,30.2-17.6
	c3.1,0,6.2,0.5,9.1,1.5c1,0.3,1.9,0.8,2.5,1.6c0.3,0.5,0.3,1,0.1,1.5c-1.4,3.9-10.7,9.2-32.6,12.4l-1.2,0.2l-0.4,1.1v0.1l-0.6,1.6
	l1.5,0.8l25.4,13.2l1.4,0.7l1-1.2c4.1-4.7,7.2-10.1,9.3-16c5.8-16.3-1.6-32.4-17.7-38.2C1681.3,1236.9,1677.9,1236.3,1674.5,1236.3
	L1674.5,1236.3z"/>
<path class="st0" d="M1670.5,1336.1l5.7-13.2l-20.8-9c-4.5-2-7.8-2.9-10.4-2.9c-3.4,0-5.5,1.6-7.2,5.4c-0.8,1.8-1.2,3.7-1.3,5.6v0.7
	l-1.5,0.6l-0.5-0.7c-4.7-6.8-5.3-15.1-1.8-23.3c3.2-7.3,8-10.9,14.6-10.9c3.5,0,7.4,1,12,3l25.6,11.1l3.1-7.2l1.5,0.6l9.8,37.1
	l-19.9-8.6l-5.7,13.2L1670.5,1336.1z"/>
<path d="M1647.4,1289.4c4,0.2,8,1.2,11.6,2.9l26.5,11.4l3.1-7.2h0.1l9.2,34.6l-18.9-8.2l-5.7,13.2l-1.5-0.6l5.7-13.2l-21.7-9.4
	c-4.5-2-8-3-10.8-3c-3.9,0-6.3,1.9-8.1,6c-0.9,1.9-1.3,3.9-1.4,5.9l-0.1,0.1c-4-5.8-5.4-13.7-1.7-22.3
	C1636.7,1292.6,1641.3,1289.4,1647.4,1289.4 M1647.4,1287.4c-7,0-12.2,3.9-15.6,11.5c-3.7,8.5-3,17.1,1.8,24.2l0.9,1.3l1.5-0.6
	l0.1-0.1l1.2-0.5v-1.3c0-1.8,0.4-3.6,1.2-5.2c1.5-3.4,3.3-4.8,6.2-4.8c2.4,0,5.7,0.9,10,2.8l19.9,8.6l-4.9,11.3l-0.8,1.8l1.8,0.8
	l1.5,0.6l1.8,0.8l0.8-1.8l4.9-11.3l17.1,7.4l3.8,1.6l-1.1-4l-9.2-34.6l-0.2-0.9l-0.9-0.4h-0.1l-1.8-0.8l-0.8,1.9l-2.3,5.3
	l-24.7-10.7C1655.1,1288.4,1651,1287.4,1647.4,1287.4L1647.4,1287.4z"/>
<path class="st0" d="M1679.3,1374.3c-2.1,0-4.2-0.6-6.1-1.6c-6.8-3.4-9-9.7-5.6-16.5c2.3-4.6,5.9-7.1,10.3-7.1
	c2.2,0,4.3,0.6,6.2,1.6c6.7,3.3,8.9,9.8,5.5,16.5C1687.4,1371.7,1683.7,1374.3,1679.3,1374.3z M1617,1343.5l-2.3,4.5l-3.2-1.6
	l14.5-29.1l3.2,1.6l-2.3,4.6l31.9,15.9l8.2-3.5l-3.8,30.6L1617,1343.5z"/>
<path d="M1626.4,1318.7l1.5,0.7l-2.3,4.6l33.2,16.5l7-3l-3.4,27.5l-45.9-22.8l-2.3,4.6l-1.5-0.7L1626.4,1318.7 M1677.9,1350.1
	c2,0,4,0.5,5.8,1.5c6,3,8.3,8.7,5.1,15.1c-2.2,4.4-5.6,6.5-9.4,6.5c-2,0-3.9-0.5-5.7-1.4c-6.1-3-8.4-8.7-5.2-15.2
	C1670.6,1352.3,1674,1350.1,1677.9,1350.1 M1625.5,1316l-0.9,1.8l-13.6,27.3l-0.9,1.8l1.8,0.9l1.5,0.7l1.8,0.9l0.9-1.8l1.4-2.8
	l44.1,21.9l2.5,1.3l0.3-2.8l3.4-27.5l0.4-3.4l-3.2,1.3l-6.2,2.6l-30.6-15.2l1.4-2.8l0.9-1.8l-1.8-0.9l-1.5-0.7L1625.5,1316
	L1625.5,1316z M1677.9,1348.1L1677.9,1348.1c-4.8,0-8.8,2.7-11.2,7.6c-3.6,7.2-1.2,14.2,6.1,17.9c2,1.1,4.3,1.6,6.6,1.7
	c4.8,0,8.8-2.7,11.2-7.6c3.6-7.2,1.2-14.2-6-17.8C1682.5,1348.7,1680.2,1348.2,1677.9,1348.1L1677.9,1348.1z"/>
<path class="st0" d="M1617.9,1416.7c-4.8,0-9.5-1.4-13.7-3.9c-11.6-6.8-20-20.7-9-39.7c5.4-9.2,14.9-15,24.8-15
	c4.9,0,9.6,1.3,13.8,3.8c6.3,3.6,10.8,9.6,12.6,16.7c1.7,7.1,0.4,15-3.7,22C1636.8,1410.9,1627.8,1416.7,1617.9,1416.7z
	 M1618.2,1380.7c-12.5,0-22,2-23.8,5.1c-0.7,1.3-1.2,3,2,4.8c3.3,1.9,13.1,3.3,23.4,3.3c12.3,0,21.4-2,23.2-5.1
	c1.3-2.3-0.6-3.9-1.9-4.7C1637.6,1382.1,1628.4,1380.7,1618.2,1380.7L1618.2,1380.7z"/>
<path d="M1620.1,1359.2c4.7,0,9.3,1.3,13.3,3.7c12.6,7.3,16.8,23,8.5,37.3c-5.8,9.9-14.6,15.5-23.9,15.5c-4.6-0.1-9.2-1.3-13.2-3.7
	c-12.8-7.5-18.3-21.6-8.6-38.3C1601.2,1364.9,1610.3,1359.2,1620.1,1359.2 M1619.9,1395c10.9,0,21.7-1.6,24.1-5.6
	c1.3-2.2,0.5-4.4-2.3-6c-4-2.3-13.7-3.6-23.4-3.6c-11.2,0-22.4,1.7-24.7,5.6c-1.4,2.4-0.6,4.5,2.4,6.2
	C1599.5,1393.6,1609.7,1395,1619.9,1395 M1620.1,1357.2L1620.1,1357.2c-10.3,0-20.1,5.9-25.7,15.5c-4.9,8.3-6.4,16.7-4.4,24.1
	c1.9,6.9,6.6,12.8,13.7,16.9c4.3,2.6,9.2,4,14.2,4c10.2,0,19.5-6,25.7-16.5c4.2-7.3,5.6-15.4,3.8-22.8c-1.8-7.3-6.5-13.6-13-17.3
	C1630.1,1358.6,1625.1,1357.2,1620.1,1357.2L1620.1,1357.2z M1619.9,1393c-9.9,0-19.8-1.4-22.9-3.2c-2.8-1.6-2.1-2.7-1.7-3.5
	c1.3-2.3,9.6-4.6,22.9-4.6c10,0,19,1.3,22.4,3.3c2.6,1.5,1.8,2.8,1.5,3.3C1640.9,1390.7,1633.4,1393,1619.9,1393L1619.9,1393z"/>
<path class="st0" d="M1587.6,1476c-3.4,0-7.2-1.4-11.2-4.3l-27.7-19.6l-2.9,4.1l-3-2.1l18.2-25.7l3,2.1l-2.3,3.3l24.2,17.1
	c3.2,2.3,5.6,3.4,7.4,3.4c1.4,0,2.7-0.8,3.3-2c1-1.5,1.6-3.1,2-4.8l-31-21.9l-2.3,3.3l-3-2.1l18.2-25.7l3,2.1l-2.9,4.1l29.1,20.6
	l8.6-2.2l-8.5,29.6l-7.7-5.4c0.6,8.1,0.1,14.6-3.7,19.9C1595.3,1473.9,1591.7,1476,1587.6,1476z"/>
<path d="M1580.5,1402.4l1.3,0.9l-2.9,4.1l30.3,21.4l7.4-1.9l-7.6,26.6l-8.3-5.9c0.8,8.7,0.7,15.8-3.3,21.4c-2.7,3.8-6,5.7-9.8,5.7
	c-3.2,0-6.8-1.4-10.7-4.1l-28.5-20.2l-2.9,4.1l-1.3-0.9l17-24.1l1.3,0.9l-2.3,3.3l25,17.7c3.5,2.4,6,3.6,8,3.6c1.7,0,3.3-1,4.2-2.4
	c1.2-1.8,1.9-3.8,2.3-5.9l-32.4-22.9l-2.3,3.3l-1.3-0.9L1580.5,1402.4 M1580,1399.6l-1.2,1.6l-17,24.1l-1.2,1.6l1.6,1.2l1.3,0.9
	l1.6,1.2l1.2-1.6l1.2-1.7l29.6,21c-0.3,1.4-0.9,2.7-1.7,3.8c-1,1.4-1.8,1.6-2.5,1.6c-1.5,0-3.8-1.1-6.8-3.2l-23.3-16.5l1.2-1.7
	l1.2-1.6l-1.6-1.2l-1.3-0.9l-1.6-1.2l-1.2,1.6l-17,24.1l-1.2,1.6l1.6,1.2l1.3,0.9l1.6,1.2l1.2-1.6l1.8-2.5l26.9,19
	c4.2,3,8.2,4.5,11.8,4.5c4.5,0,8.3-2.2,11.4-6.6c3.6-5.1,4.4-11.2,4-18.5l4.8,3.4l2.3,1.6l0.8-2.7l7.6-26.6l1-3.3l-3.4,0.8l-6.5,1.6
	l-27.9-19.7l1.8-2.5l1.2-1.6l-1.6-1.2l-1.3-0.9L1580,1399.6L1580,1399.6z"/>
<path class="st0" d="M1542,1480.4c-2.6-0.1-5.1-1-7-2.7c-5.1-4.1-5.8-10.1-1.7-15.2c1.9-2.6,4.9-4.2,8.2-4.3c2.6,0.1,5.1,1,7,2.7
	c2.4,1.7,3.9,4.4,4.3,7.3c0.2,2.9-0.7,5.7-2.6,7.9C1548.2,1478.7,1545.2,1480.3,1542,1480.4z"/>
<path d="M1541.4,1459.2c2.4,0.1,4.6,0.9,6.4,2.5c4.8,3.8,5.3,9.2,1.6,13.8c-1.7,2.4-4.5,3.8-7.4,3.9c-2.4-0.1-4.6-0.9-6.4-2.5
	c-4.8-3.8-5.3-9.2-1.6-13.8C1535.7,1460.8,1538.4,1459.3,1541.4,1459.2 M1541.4,1457.2L1541.4,1457.2c-3.5,0.1-6.8,1.8-8.9,4.7
	c-4.4,5.5-3.7,12.1,1.9,16.6c2.1,1.8,4.8,2.9,7.7,2.9c3.5-0.1,6.8-1.8,8.9-4.7c2.1-2.4,3.1-5.5,2.8-8.7c-0.4-3.2-2.1-6-4.7-7.9
	C1546.9,1458.3,1544.2,1457.3,1541.4,1457.2L1541.4,1457.2z"/>
</svg>
