<?xml version="1.0" encoding="utf-8"?>
<!-- Generator: Adobe Illustrator 26.0.3, SVG Export Plug-In . SVG Version: 6.00 Build 0)  -->
<svg version="1.1" id="レイヤー_1" xmlns="http://www.w3.org/2000/svg" xmlns:xlink="http://www.w3.org/1999/xlink" x="0px"
	 y="0px" viewBox="0 0 1920 1920" style="enable-background:new 0 0 1920 1920;" xml:space="preserve">
<style type="text/css">
	.st0{fill:white;}
</style>
<path class="st0" d="M848.5,508.5c3.9-17.4,8.4-34.6,13.6-51.6c64.4-11.5,130.3-11.9,194.8-1.3c5,16.5,9.5,33.6,13.5,51.3
	C997.2,491.7,921.5,492.2,848.5,508.5L848.5,508.5z M483.7,1223.2c-12.2,12.2-24.1,24.6-35.8,37.3c19,40.2,42.6,78,70.3,112.6
	c17.6-4,34.6-8.5,51.2-13.5C533.9,1318.9,505,1272.9,483.7,1223.2z M879.4,406.8c53.2-7.2,107.1-7.5,160.4-0.9
	c-6.8-17.6-14-34.4-21.5-50.4c-18.2-1.5-36.6-2.3-55.2-2.3c-20.9,0-41.5,1-61.9,2.9c-1,2.2-2.1,4.4-3.1,6.5
	C891.4,377.1,885.1,391.8,879.4,406.8z M1499.4,1209.8c-11.8-12.8-24.4-25.5-37.8-38c-5.1,16.5-11,32.7-17.8,48.7
	c-22.3,52.8-53.3,101.6-91.5,144.4c17.5,5.3,34.6,9.8,51.5,13.6C1445.1,1328.2,1477.4,1271.1,1499.4,1209.8z M412.8,1389.7
	c18.1-1.6,36.1-3.8,54-6.6c-19.8-26.8-37.4-55.2-52.6-84.9c-11.2,13.1-22.3,26.4-33,39.9C391,1355.8,401.5,1373,412.8,1389.7
	L412.8,1389.7z M1534,1250.3c-1,2.4-2,4.8-3,7.1c-19.7,46.6-45.1,90.7-75.6,131.1c18.8,3,37,5.1,54.3,6.6
	c21.9-31.6,41-65.1,57.1-100C1556.9,1280.3,1546,1265.3,1534,1250.3L1534,1250.3z"/>
<path class="st0" d="M1080.9,873.2c-17.3-3-36.2-5.5-56.6-7.2c-18.1-1.5-35.2-2-51-2l0,0c-13.5,0-27.1,0.4-40.6,1.3
	c-102,6.3-202.9,36.9-300,90.8c-79.8,44.3-157.7,104.7-231.7,179.7c-90.7,91.8-175.1,205.1-244.2,327.4l-13.6,24.2l27.3,5.1
	c56,10.4,112.8,15.7,169.7,15.7c167.1,0.2,331-45.9,473.5-133.1c44.5-27.2,86.5-58.2,125.7-92.5l-39.3-46.2
	c-80.4,69.2-214.8,159.1-398.6,194.3c-52.1,10-105,15-158,15c-33.1,0-66.3-2-99.2-5.8c65-104,143.1-199.3,232.2-283.6
	c70.8-66.8,167.9-158.3,306.7-202.9c71.9-23.1,143.9-28.4,146.9-28.7c21.6-1.5,40.5-1.6,44-1.6c30.4,0,60.8,2.3,90.9,6.9
	C1070.3,911.2,1075.6,892.2,1080.9,873.2z M1198.7,628.7c-9.2-179.3-76-320.5-115.1-388.7c-30.1-52.4-65.4-101.6-105.6-146.8
	l-14.3-16.1l-14.9,15.6C880.9,163.9,790.5,284.8,745.2,457c-21.8,82.8-31.3,166.6-28.4,249c1.8,54.6,9.5,108.8,22.8,161.8l56.9-15.8
	c-14.3-58.7-20.4-124.4-18.6-200.7c0.6-24.4,2.3-48.9,5.1-73c9.5-82.4,32.2-162.8,67.2-238.1c29.2-62.8,66.9-121.3,112-173.8
	c48.8,60.5,147.8,200.7,173.2,404.8c36.6,294.2-105.8,511.5-144.4,566.6l39.7,45c43.7-60.1,79.6-125.4,107.1-194.4
	C1186.4,866,1205.5,763,1198.7,628.7L1198.7,628.7z M1771,1467.3l-2.6-9.3l-2.6-9.3c-40.7-142.5-127.5-274-251-380.1
	c-50.7-43.6-106.6-80.8-166.2-111c-44.6-22.5-91-41.1-138.8-55.5c-5.8,19-11.5,38-17.3,57c105.5,31.4,200.8,83.3,283.2,154.2
	c125.7,108,191.2,234.9,224.8,329.1c-40.2,5.9-80.7,8.8-121.3,8.7c-110.1,0-275.1-21.6-435.8-124.7
	C974.6,1218.1,885.8,1071.8,841.1,968l-54.4,24.1c27.9,64.9,63.6,126.1,106.5,182.3c74,97.5,165.2,176.1,271,233.8
	c69,37.6,143,65.3,219.7,82.4c62.5,13.8,126.3,20.8,190.3,20.7c62.7,0,123.9-6.4,182.1-19.1l20.7-4.5L1771,1467.3z"/>
<path class="st0" d="M1674.1,823.7c0.1-0.1,0.1-0.2,0.2-0.3c0.4-0.6,0.8-1.2,1.2-1.7c0.1-0.2,0.2-0.3,0.3-0.5
	c0.7-0.9,1.3-1.8,1.9-2.7c0.2-0.2,0.3-0.4,0.5-0.7c0.3-0.4,0.5-0.8,0.8-1.1c0.2-0.3,0.4-0.6,0.6-0.9s0.4-0.6,0.6-0.9
	c0.4-0.5,0.7-1.1,1-1.6c0.1-0.2,0.2-0.4,0.4-0.6c0.2-0.4,0.5-0.7,0.7-1.1l0.3-0.5c0.3-0.5,0.6-0.9,0.8-1.3c-2.1-1-4.2-2-6.3-3
	c-0.1-0.1-0.2-0.1-0.4-0.2c-2-0.9-4-1.8-6-2.6c-0.2-0.1-0.4-0.2-0.6-0.3c-1.9-0.8-3.9-1.6-5.8-2.3c-0.3-0.1-0.5-0.2-0.8-0.3
	c-1.9-0.7-3.8-1.4-5.7-2.1l-0.8-0.3c-1.9-0.6-3.8-1.3-5.6-1.9c-0.3-0.1-0.5-0.2-0.8-0.3c-1.9-0.6-3.7-1.1-5.6-1.7l-0.7-0.2
	c-1.9-0.5-3.8-1-5.6-1.5c-0.2-0.1-0.4-0.1-0.6-0.2c-1.9-0.5-3.8-0.9-5.7-1.3l-0.4-0.1c-1.9-0.4-3.9-0.8-5.8-1.2l-0.1,0
	c-6-1.2-11.9-2-17.7-2.7h0c-1.9-0.2-3.8-0.4-5.6-0.6l-0.1,0c-1.8-0.2-3.7-0.3-5.5-0.4l-0.1,0c-1.8-0.1-3.6-0.2-5.4-0.3h-0.1
	c-1.8-0.1-3.6-0.1-5.3-0.2l0,0c-9.5-25.7-20.7-50.8-33.3-75.2l0,0c2-1.7,4.1-3.4,6-5.1l0.5-0.4c1.9-1.7,3.8-3.4,5.7-5l0.6-0.5
	c3.8-3.4,7.4-6.8,11-10.1l0.6-0.5c1.8-1.7,3.5-3.4,5.2-5l0.2-0.2c1.7-1.7,3.4-3.4,5.1-5.1l0.1-0.1c1.6-1.7,3.2-3.3,4.8-5l0.5-0.5
	c3.2-3.3,6.2-6.6,9.1-9.9c0.1-0.1,0.2-0.2,0.3-0.3c1.4-1.6,2.9-3.2,4.2-4.8c0.1-0.1,0.2-0.2,0.3-0.4c2.8-3.2,5.4-6.4,8-9.5l0.4-0.4
	c1.3-1.5,2.5-3.1,3.7-4.6l0.1-0.1c1.2-1.5,2.4-3.1,3.6-4.6l0.1-0.1c1.1-1.5,2.3-3,3.3-4.4c0.1-0.1,0.2-0.3,0.3-0.4
	c2.2-2.9,4.2-5.7,6.2-8.5l0.3-0.4c1-1.4,1.9-2.7,2.8-4l0.2-0.3c1.8-2.7,3.6-5.2,5.2-7.7c0.1-0.1,0.2-0.3,0.3-0.4
	c0.8-1.2,1.6-2.4,2.3-3.6l0.1-0.2c0.7-1.2,1.4-2.3,2.1-3.4c0.1-0.1,0.1-0.2,0.2-0.3c0.7-1.1,1.3-2.2,2-3.2c0.1-0.1,0.2-0.3,0.2-0.4
	c1.3-2.1,2.5-4.1,3.6-6l0.2-0.4c0.5-0.9,1-1.8,1.5-2.7c0.1-0.1,0.1-0.2,0.2-0.3c0.5-0.8,0.9-1.6,1.3-2.4c0,0,0.1-0.1,0.1-0.1
	c0.4-0.8,0.9-1.6,1.3-2.3c0.1-0.1,0.1-0.3,0.2-0.4c0.4-0.7,0.8-1.4,1.1-2.1l0.1-0.2c0.3-0.6,0.6-1.2,0.9-1.8c0-0.1,0.1-0.2,0.1-0.3
	c0.3-0.6,0.6-1.1,0.8-1.6l0.2-0.3c0.3-0.5,0.5-1,0.7-1.4c-1.9,0-3.8,0.1-5.7,0.1c-0.6,0-1.2,0-1.8,0.1c-1.3,0-2.6,0.1-3.8,0.1
	c-0.7,0-1.4,0.1-2.1,0.1c-1.2,0.1-2.4,0.1-3.5,0.2c-0.7,0-1.4,0.1-2.2,0.1c-1.2,0.1-2.4,0.2-3.6,0.3c-0.7,0.1-1.4,0.1-2,0.2
	c-1.3,0.1-2.7,0.2-4,0.4c-0.5,0-1,0.1-1.5,0.1c-1.8,0.2-3.7,0.4-5.5,0.6c-0.4,0-0.7,0.1-1.1,0.1c-1.5,0.2-2.9,0.3-4.3,0.5
	c-0.6,0.1-1.3,0.2-1.9,0.3c-1.2,0.2-2.4,0.3-3.5,0.5c-0.7,0.1-1.4,0.2-2,0.3c-1.1,0.2-2.3,0.3-3.4,0.5c-0.7,0.1-1.3,0.2-2,0.3
	c-1.2,0.2-2.4,0.4-3.6,0.6c-0.6,0.1-1.2,0.2-1.7,0.3c-1.5,0.3-3,0.5-4.5,0.8c-0.2,0-0.5,0.1-0.7,0.1c-1.8,0.3-3.5,0.7-5.2,1
	c-0.4,0.1-0.9,0.2-1.3,0.3c-1.3,0.3-2.6,0.5-3.9,0.8c-0.6,0.1-1.2,0.3-1.7,0.4c-1.1,0.3-2.3,0.5-3.4,0.8c-0.6,0.1-1.2,0.3-1.8,0.4
	c-1.1,0.3-2.3,0.5-3.4,0.8c-0.6,0.1-1.1,0.3-1.7,0.4c-1.3,0.3-2.5,0.6-3.8,1c-0.4,0.1-0.8,0.2-1.2,0.3c-3.3,0.9-6.6,1.8-9.9,2.7
	c-0.4,0.1-0.8,0.2-1.1,0.3c-1.2,0.4-2.5,0.7-3.7,1.1c-0.5,0.1-0.9,0.3-1.4,0.4c-1.2,0.4-2.3,0.7-3.5,1.1l-1.3,0.4
	c-1.2,0.4-2.4,0.8-3.6,1.2l-1.1,0.3c-1.5,0.5-3,1-4.5,1.5l0,0c-3.2,1.1-6.3,2.2-9.3,3.3l-0.7,0.2c-1.3,0.5-2.5,0.9-3.8,1.4l-0.8,0.3
	c-1.2,0.5-2.4,0.9-3.6,1.4l-0.7,0.3c-1.4,0.5-2.7,1-4,1.6l-0.2,0.1c-4.4,1.7-8.6,3.5-12.7,5.3l-0.2,0.1c-1.3,0.6-2.6,1.1-3.8,1.7
	l-0.3,0.1c-1.3,0.6-2.6,1.1-3.9,1.7l0,0c-16.3-21.7-33.8-42.3-52.6-61.8v0v0l0,0v0c12.3-26.7,19.7-55.4,21.6-84.7l0-0.1
	c0.1-1.5,0.2-2.9,0.2-4.3c0-0.1,0-0.2,0-0.2c0.1-1.3,0.1-2.5,0.1-3.6c0-0.1,0-0.2,0-0.3c0-0.5,0-0.9,0-1.4c0-0.1,0-0.2,0-0.3
	c0-0.5,0-1,0-1.4v-0.2c0-0.4,0-0.7,0-1.1v-0.3c0-0.4,0-0.7,0-1.1c-2.6,0.3-5.1,0.6-7.7,0.9c-0.9,0.1-1.7,0.3-2.5,0.4
	c-1.7,0.2-3.3,0.5-4.9,0.8c-1,0.2-2,0.4-3,0.5c-1.4,0.3-2.9,0.5-4.3,0.8c-1.1,0.2-2.1,0.4-3.1,0.7c-1.3,0.3-2.6,0.6-3.9,0.9
	c-1.1,0.3-2.1,0.5-3.2,0.8c-1.2,0.3-2.5,0.6-3.7,1c-1.1,0.3-2.1,0.6-3.2,0.9c-1.2,0.3-2.3,0.7-3.5,1c-1.1,0.3-2.1,0.7-3.2,1
	c-1.1,0.3-2.2,0.7-3.3,1.1c-1.1,0.4-2.1,0.7-3.2,1.1c-1,0.4-2,0.7-3,1.1c-1.1,0.4-2.2,0.8-3.2,1.2c-0.9,0.4-1.8,0.7-2.8,1.1
	c-1.1,0.4-2.2,0.9-3.3,1.3c-0.8,0.3-1.6,0.7-2.5,1.1c-1.1,0.5-2.3,1-3.4,1.5c-0.7,0.3-1.3,0.6-2,0.9c-1.2,0.6-2.5,1.1-3.7,1.7
	c-0.3,0.2-0.7,0.3-1,0.5c-6.7,3.3-13,6.8-18.8,10.3c-48-36.9-100.7-67-156.8-89.6c5.9,18.9,11.5,38.8,16.5,59.6
	c35.4,16.8,69.1,36.9,100.7,60.2c-5.7,5.4-9.8,9.7-12.1,12.4c-6.6,7.4-12.8,15.2-18.4,23.3l0,0c-18.5-13.5-37.9-25.8-57.9-36.9
	c3.4,19.8,6.3,40.1,8.5,61.1c9,5.9,17.8,12,26.4,18.5c-8.1,19.7-13.5,40.5-16.1,61.6l0,0.1c-0.3,2.7-0.6,5.3-0.8,7.7l0,0.2
	c-0.1,0.8-0.1,1.6-0.2,2.3v0c-0.1,1.5-0.2,3-0.3,4.3l0,0.3c0,0.6-0.1,1.2-0.1,1.8c0,0.1,0,0.1,0,0.2c-0.1,1.3-0.1,2.4-0.1,3.5
	c0,0.1,0,0.2,0,0.3c0,0.4,0,0.9,0,1.3c0,0.1,0,0.2,0,0.3c0,0.5,0,1,0,1.4v0c0,0.4,0,0.9,0,1.3c0,0.1,0,0.2,0,0.4c0,0.3,0,0.6,0,0.8
	c0,0.1,0,0.2,0,0.3c0,0.4,0,0.7,0,1c2.5-0.2,4.9-0.5,7.3-0.9c0.8-0.1,1.5-0.2,2.3-0.3c1.6-0.2,3.3-0.5,4.9-0.8
	c0.9-0.1,1.7-0.3,2.5-0.4c1.6-0.3,3.1-0.6,4.6-0.9c0.8-0.2,1.6-0.3,2.4-0.5c1.8-0.4,3.5-0.8,5.2-1.2c0.5-0.1,1-0.2,1.5-0.3
	c2.2-0.5,4.4-1.1,6.5-1.7c0.6-0.2,1.2-0.3,1.8-0.5c1.5-0.4,3.1-0.9,4.6-1.3c0.8-0.2,1.5-0.5,2.3-0.7c1.3-0.4,2.6-0.9,4-1.3
	c0.8-0.3,1.5-0.5,2.3-0.8c1.3-0.5,2.7-1,4-1.4c0.7-0.2,1.3-0.5,2-0.7c1.9-0.7,3.8-1.5,5.6-2.2c0.5-0.2,0.9-0.4,1.3-0.6
	c1.4-0.6,2.8-1.2,4.2-1.8c0.7-0.3,1.4-0.6,2.1-1c1.1-0.5,2.2-1,3.3-1.5c0.7-0.4,1.5-0.7,2.2-1.1c1-0.5,2.1-1,3.1-1.5
	c0.7-0.4,1.4-0.7,2.1-1.1c1.2-0.6,2.3-1.2,3.5-1.8c0.5-0.3,1-0.5,1.5-0.8c10.5,11.2,20.5,22.8,29.9,34.7l0,0l0,0l0,0
	c-1.9,1.7-3.8,3.3-5.6,5l-0.6,0.6c-3.6,3.3-7.2,6.5-10.6,9.8c-0.2,0.2-0.4,0.3-0.5,0.5c-3.4,3.3-6.8,6.6-10,9.9l-0.3,0.3
	c-1.6,1.6-3.2,3.3-4.7,4.9l-0.3,0.3c-3.1,3.3-6.1,6.5-8.9,9.7c-0.1,0.1-0.2,0.3-0.4,0.4c-2.8,3.2-5.5,6.3-8.1,9.4l-0.3,0.4
	c-2.6,3.1-5.1,6.1-7.5,9.1l-0.2,0.3c-1.2,1.5-2.4,3-3.5,4.5l-0.1,0.2c-1.1,1.5-2.3,2.9-3.4,4.4l0,0.1c-1.1,1.4-2.1,2.9-3.2,4.3
	l-0.2,0.3c-2,2.8-4,5.5-5.8,8.1l-0.3,0.4c-1.8,2.6-3.5,5.1-5.2,7.6l-0.2,0.4c-0.8,1.2-1.6,2.4-2.4,3.6l-0.1,0.2
	c-0.7,1.1-1.5,2.3-2.2,3.4c-0.1,0.1-0.1,0.2-0.2,0.2c-0.7,1.1-1.4,2.2-2,3.3l-0.2,0.4c-1.3,2.1-2.5,4.1-3.7,6.1
	c-0.1,0.1-0.2,0.3-0.2,0.4c-1.1,1.9-2.1,3.7-3.1,5.3c-0.1,0.1-0.2,0.3-0.2,0.4c-0.5,0.8-0.9,1.6-1.3,2.4c-0.1,0.1-0.1,0.2-0.1,0.3
	c-0.4,0.7-0.7,1.4-1.1,2c-0.1,0.1-0.1,0.2-0.2,0.3c-0.4,0.7-0.7,1.3-1,2c-0.1,0.1-0.1,0.2-0.2,0.4c-0.3,0.6-0.6,1.1-0.8,1.6
	l-0.1,0.2c-0.3,0.6-0.6,1.1-0.8,1.6c-0.1,0.1-0.1,0.2-0.2,0.3c-0.2,0.5-0.5,1-0.7,1.4c1.8,0,3.6-0.1,5.4-0.1c0.6,0,1.2,0,1.8-0.1
	c1.2,0,2.4-0.1,3.6-0.1c0.7,0,1.4-0.1,2.1-0.1c1.1-0.1,2.2-0.1,3.3-0.2c0.7,0,1.5-0.1,2.2-0.1c1-0.1,2.1-0.1,3.1-0.2
	c0.8-0.1,1.5-0.1,2.3-0.2c1-0.1,2.1-0.2,3.1-0.3c0.8-0.1,1.5-0.1,2.3-0.2c1-0.1,2.1-0.2,3.1-0.3c0.7-0.1,1.5-0.2,2.2-0.2
	c1-0.1,2.1-0.2,3.1-0.4c0.7-0.1,1.4-0.2,2.1-0.3c1.1-0.1,2.2-0.3,3.3-0.4c0.6-0.1,1.3-0.2,1.9-0.3c1.3-0.2,2.5-0.4,3.8-0.5
	c0.5-0.1,0.9-0.1,1.4-0.2c1.7-0.3,3.4-0.5,5.2-0.8l0.4-0.1c1.6-0.3,3.1-0.5,4.7-0.8c0.5-0.1,1-0.2,1.5-0.3c1.2-0.2,2.3-0.4,3.5-0.7
	c0.6-0.1,1.2-0.2,1.8-0.4c1.1-0.2,2.1-0.4,3.2-0.6c0.6-0.1,1.3-0.3,1.9-0.4c1-0.2,2-0.4,3.1-0.7c0.6-0.1,1.3-0.3,1.9-0.4
	c1-0.2,2-0.5,3.1-0.7c0.6-0.1,1.2-0.3,1.8-0.4c1-0.2,2.1-0.5,3.1-0.8c0.6-0.1,1.1-0.3,1.7-0.4c1.1-0.3,2.2-0.5,3.2-0.8
	c0.5-0.1,1-0.3,1.5-0.4c1.2-0.3,2.4-0.6,3.5-0.9c0.4-0.1,0.8-0.2,1.2-0.3c1.5-0.4,3-0.8,4.5-1.3l0.1,0c3.2-0.9,6.3-1.8,9.4-2.8
	c0.2-0.1,0.4-0.1,0.7-0.2c1.3-0.4,2.6-0.8,3.8-1.2l1-0.3c1.2-0.4,2.3-0.8,3.5-1.1l1.1-0.4c1.1-0.4,2.2-0.7,3.3-1.1l1.1-0.4
	c1.1-0.4,2.2-0.8,3.3-1.2l1-0.4c1.1-0.4,2.3-0.8,3.4-1.2l0.8-0.3c1.2-0.5,2.4-0.9,3.7-1.4l0.5-0.2c7.1-2.7,13.9-5.4,20.3-8.2h0l0,0
	h0h0c4.6,9.3,9,18.8,13.1,28.5c1.9,4.6,3.8,9.2,5.6,13.9c-19.7,14.1-37.2,31-51.8,50.3l-0.1,0.1c-0.5,0.6-0.9,1.3-1.4,1.9
	c-0.1,0.1-0.1,0.2-0.2,0.2c-0.8,1-1.5,2.1-2.2,3c-0.1,0.2-0.3,0.4-0.4,0.6c-0.3,0.5-0.6,0.9-0.9,1.3c-0.2,0.3-0.4,0.6-0.6,0.8
	c-0.4,0.6-0.8,1.2-1.2,1.7c-0.2,0.4-0.5,0.7-0.7,1c-0.2,0.3-0.4,0.6-0.5,0.8c-0.3,0.4-0.6,0.9-0.8,1.3l-0.4,0.6
	c-0.3,0.4-0.6,0.9-0.8,1.3l-0.3,0.4c-0.3,0.5-0.6,0.9-0.8,1.3c1.8,0.9,3.6,1.7,5.4,2.6c0.3,0.1,0.6,0.3,0.8,0.4
	c1.7,0.8,3.4,1.5,5.2,2.3c0.3,0.1,0.6,0.3,1,0.4c1.7,0.7,3.5,1.4,5.2,2.1c0.2,0.1,0.4,0.2,0.6,0.2c1.7,0.7,3.4,1.3,5.1,1.9l0.4,0.1
	c1.7,0.6,3.5,1.2,5.2,1.8c0.3,0.1,0.6,0.2,0.8,0.3c1.7,0.6,3.4,1.1,5.1,1.6l0.7,0.2c1.8,0.5,3.5,1,5.3,1.5l0,0
	c1.8,0.5,3.6,0.9,5.3,1.4l0.4,0.1c1.7,0.4,3.4,0.8,5.1,1.2l0.6,0.1c1.7,0.4,3.4,0.7,5.1,1l0.3,0.1c3.5,0.7,7,1.3,10.5,1.7l0.2,0
	c1.7,0.2,3.4,0.5,5.1,0.7l0.2,0c5.2,0.6,10.3,1,15.2,1.3l0,0c3.7,19.4,6.4,39.1,7.9,58.8c17,12,33.4,24.5,49.5,37.6
	c-0.2-33.1-3.2-66.2-9-98.8c9.3-1.4,18.5-3.4,27.6-6c6.2-1.8,12.1-3.8,17.9-6l0,0c6.9,37.4,10.4,75.5,10.4,113.5
	c0,12.5-0.4,24.8-1.1,37.2c15.3,14.3,30,29,44.1,44c8.8-72.5,5.8-145.9-9.1-217.4C1636.9,865.8,1657.4,846.3,1674.1,823.7z
	 M1531.1,777.6c1.9,4.4,3.7,8.8,5.4,13.2c-8.3,1.6-14.6,3.3-18.1,4.3c-9.1,2.6-18,5.8-26.7,9.5l0,0c-5.4-13.5-11.3-26.7-17.7-39.6
	l0,0c11.3-6.1,19.6-11.2,24.3-14.2c5.4-3.4,10.7-6.8,15.8-10.3h0C1520.1,752.7,1525.8,765,1531.1,777.6L1531.1,777.6z M1451,640.7
	c-7,4-12.3,7.3-15.8,9.4c-8.3,5.2-16.3,10.5-23.9,15.9l0,0c-8.8-11.2-18.1-22.1-27.7-32.7l0,0c7.5-6.3,14.5-13.1,21-20.3
	c4-4.5,7.8-9,11.3-13.6C1428.3,612.7,1440,626.4,1451,640.7L1451,640.7z M1345.3,559.5c15.7-17.2,34.4-31.4,55.1-42.1
	c1.2-0.6,2.5-1.3,3.8-1.9l0.7-0.3c1-0.5,2-1,3-1.4c0.4-0.2,0.8-0.3,1.1-0.5c0.9-0.4,1.9-0.8,2.8-1.3c0.4-0.2,0.8-0.3,1.1-0.5
	c1.3-0.6,2.6-1.1,4-1.6c-0.4,1.4-0.8,2.8-1.2,4.3c-1.3,4.3-2.8,8.6-4.5,13.1l0,0c-8.3,21.8-20.5,41.9-36.1,59.2
	c-17.3,18.9-38.1,34.2-61.2,45.1l0,0c-1.6,0.7-3.2,1.5-4.8,2.2c-0.3,0.1-0.5,0.2-0.8,0.4c-1.6,0.7-3.2,1.4-4.9,2
	c0.5-1.8,1-3.5,1.6-5.3c0-0.1,0.1-0.2,0.1-0.3c0.5-1.8,1.1-3.5,1.7-5.3l0,0C1315.1,600.9,1328.1,578.5,1345.3,559.5L1345.3,559.5z
	 M1411.7,751c-2.1,0.9-4.2,1.7-6.3,2.6l-0.2,0.1c-2.1,0.9-4.3,1.7-6.5,2.6l-0.2,0.1c-2,0.8-4.1,1.6-6.2,2.3l-0.8,0.3
	c-2.2,0.8-4.4,1.6-6.6,2.3c-0.1,0-0.3,0.1-0.4,0.1c-2,0.7-4,1.4-6.1,2l-1.4,0.5c-2.2,0.7-4.4,1.4-6.7,2.1l-0.5,0.1
	c-2.1,0.6-4.1,1.2-6.2,1.8c-0.6,0.2-1.1,0.3-1.7,0.5c-2.3,0.6-4.5,1.3-6.8,1.9c1.5-1.7,3-3.4,4.5-5.2c1.2-1.4,2.5-2.8,3.8-4.2
	c0.3-0.3,0.6-0.7,0.9-1c10.4-11.3,21.3-22.1,32.8-32.2c18.5-16.3,38.3-31,59.2-44c19.7-12.2,40.2-22.9,61.5-32.1
	c4.4-1.9,8.9-3.8,13.6-5.6l0.6-0.2c4.5-1.8,9.2-3.5,13.9-5.2c0.3-0.1,0.6-0.2,0.9-0.3c2.3-0.8,4.6-1.6,7-2.4c0.3-0.1,0.7-0.2,1-0.3
	c2.2-0.7,4.4-1.4,6.6-2.1c0.3-0.1,0.6-0.2,0.9-0.3c2.3-0.7,4.7-1.4,7.1-2.1c0.5-0.2,1-0.3,1.6-0.5c2.4-0.7,4.9-1.4,7.4-2
	c-1.5,1.8-3.1,3.6-4.7,5.4c-0.3,0.3-0.6,0.6-0.9,1c-1.4,1.5-2.7,3.1-4.1,4.6c-0.2,0.2-0.5,0.5-0.7,0.7c-1.5,1.6-3,3.3-4.6,4.9
	c-0.1,0.1-0.3,0.3-0.4,0.4c-1.7,1.8-3.4,3.5-5.2,5.3c0,0-0.1,0.1-0.1,0.1c-7.5,7.6-15.7,15.3-24.6,22.9
	c-17.6,15.1-36.3,28.9-55.9,41.2C1456.2,730.2,1434.3,741.5,1411.7,751L1411.7,751z M1540.3,871.7c-17.1,4.8-34.8,7.2-52.6,7.1
	c-7.3,0-14.6-0.4-21.9-1.2l0,0c-1.9-0.2-3.7-0.5-5.5-0.7c-0.4-0.1-0.8-0.1-1.2-0.2c-1.9-0.3-3.7-0.6-5.5-0.9
	c0.9-0.8,1.9-1.7,2.8-2.5c0.5-0.4,0.9-0.8,1.4-1.2c0.4-0.3,0.7-0.6,1.1-0.9c1.3-1.1,2.7-2.3,4.1-3.4c19.6-15.8,42.1-27.6,66.3-34.5
	c17.1-4.8,34.8-7.2,52.6-7.1c6,0,12,0.3,17.9,0.8c2.7,0.2,5.5,0.6,8.2,0.9c0.1,0,0.2,0,0.3,0c1.2,0.2,2.5,0.3,3.7,0.5
	c1.4,0.2,2.7,0.4,4.1,0.7c-1,0.9-2.1,1.9-3.1,2.8c-0.7,0.6-1.5,1.3-2.2,1.9c-0.3,0.2-0.6,0.5-0.9,0.7c-1,0.8-1.9,1.6-2.9,2.4
	l-0.2,0.2c-1.1,0.9-2.2,1.7-3.3,2.6C1584.6,854.3,1563.2,865.2,1540.3,871.7L1540.3,871.7z"/>
<path class="st0" d="M770.5,1732.2c0,0.1,0.1,0.2,0.1,0.3c0.3,0.7,0.6,1.3,0.9,1.9l0.2,0.5c0.5,1,0.9,2,1.4,3
	c0.1,0.2,0.2,0.5,0.3,0.7c0.2,0.4,0.4,0.8,0.6,1.2c0.2,0.3,0.3,0.7,0.5,1s0.3,0.6,0.5,1c0.3,0.6,0.6,1.1,0.8,1.7
	c0.1,0.2,0.2,0.4,0.3,0.6c0.2,0.4,0.4,0.8,0.6,1.1c0.1,0.2,0.2,0.3,0.3,0.5c0.3,0.5,0.5,0.9,0.7,1.3c2-1.3,3.9-2.6,5.7-4
	c0.1-0.1,0.2-0.2,0.3-0.2c1.8-1.3,3.6-2.6,5.3-3.9c0.2-0.1,0.4-0.3,0.5-0.4c1.7-1.3,3.3-2.6,4.9-3.9c0.2-0.2,0.4-0.3,0.6-0.5
	c1.6-1.3,3.1-2.6,4.6-3.9l0.7-0.6c1.5-1.3,3-2.6,4.4-3.9l0.6-0.6c1.4-1.3,2.9-2.7,4.2-4c0.2-0.2,0.4-0.4,0.5-0.5
	c1.4-1.4,2.8-2.7,4.1-4.1l0.4-0.5c1.4-1.4,2.7-2.8,4-4.2c0.1-0.1,0.2-0.2,0.3-0.3c1.3-1.5,2.7-3,3.9-4.4l0.1-0.1
	c4-4.6,7.7-9.3,11.2-14l0,0c1.1-1.5,2.2-3.1,3.3-4.6l0.1-0.1c1.1-1.5,2.1-3,3.1-4.5l0.1-0.1c1-1.5,2-3,2.9-4.5l0-0.1
	c1-1.5,1.9-3,2.8-4.5l0,0l0,0l0,0c27.1,4.6,54.4,7.5,81.8,8.7l0,0c0.5,2.6,0.9,5.2,1.4,7.8c0,0.2,0.1,0.4,0.1,0.7
	c0.5,2.5,1,5,1.5,7.5c0.1,0.3,0.1,0.5,0.2,0.8c1,5,2.2,9.8,3.3,14.6l0.2,0.7c0.6,2.4,1.2,4.7,1.8,7c0,0.1,0.1,0.2,0.1,0.3
	c0.6,2.3,1.2,4.6,1.9,6.9c0,0,0,0.1,0,0.1c0.6,2.3,1.3,4.5,1.9,6.7c0.1,0.2,0.1,0.4,0.2,0.7c1.3,4.4,2.6,8.7,4,12.8
	c0,0.1,0.1,0.3,0.1,0.4c0.7,2.1,1.4,4.1,2.1,6.1c0.1,0.2,0.1,0.3,0.2,0.5c1.4,4,2.8,7.9,4.2,11.7c0.1,0.2,0.1,0.4,0.2,0.5
	c0.7,1.9,1.4,3.7,2.1,5.5l0.1,0.1c0.7,1.8,1.5,3.6,2.2,5.4l0.1,0.1c0.7,1.7,1.4,3.4,2.1,5.1c0.1,0.2,0.1,0.3,0.2,0.5
	c1.4,3.3,2.8,6.5,4.3,9.6c0.1,0.1,0.1,0.3,0.2,0.4c0.7,1.5,1.4,3,2.1,4.4c0.1,0.1,0.1,0.2,0.2,0.4c1.4,2.9,2.7,5.7,4.1,8.3
	c0.1,0.2,0.2,0.3,0.2,0.5c0.7,1.3,1.3,2.6,1.9,3.8l0.1,0.2c0.6,1.2,1.3,2.4,1.9,3.5c0,0.1,0.1,0.2,0.1,0.3c0.6,1.1,1.2,2.3,1.8,3.3
	c0.1,0.1,0.2,0.3,0.2,0.4c1.2,2.2,2.3,4.2,3.4,6.1c0.1,0.1,0.1,0.3,0.2,0.4c0.5,0.9,1.1,1.8,1.6,2.7c0.1,0.1,0.1,0.2,0.2,0.3
	c0.5,0.8,1,1.6,1.4,2.4l0.1,0.1c0.5,0.8,0.9,1.5,1.4,2.2l0.2,0.4c0.4,0.7,0.8,1.4,1.2,2l0.1,0.2c0.4,0.6,0.7,1.2,1.1,1.7l0.2,0.3
	c0.3,0.5,0.7,1.1,1,1.5l0.2,0.3c0.3,0.5,0.6,0.9,0.9,1.3c0.9-1.7,1.8-3.3,2.7-5c0.3-0.5,0.6-1.1,0.9-1.6c0.6-1.1,1.2-2.3,1.8-3.4
	c0.3-0.6,0.7-1.3,1-1.9c0.5-1.1,1.1-2.1,1.6-3.2c0.3-0.6,0.6-1.3,1-1.9c0.5-1.1,1-2.1,1.6-3.2c0.3-0.6,0.6-1.2,0.9-1.8
	c0.6-1.2,1.1-2.4,1.7-3.7c0.2-0.5,0.4-0.9,0.6-1.4c0.8-1.7,1.5-3.4,2.2-5c0.1-0.3,0.3-0.7,0.4-1c0.6-1.3,1.1-2.7,1.7-4
	c0.2-0.6,0.5-1.2,0.7-1.8c0.5-1.1,0.9-2.2,1.3-3.3c0.3-0.6,0.5-1.3,0.8-1.9c0.4-1.1,0.8-2.2,1.3-3.2c0.2-0.6,0.5-1.2,0.7-1.9
	c0.4-1.1,0.8-2.3,1.3-3.4c0.2-0.6,0.4-1.1,0.6-1.7c0.5-1.4,1-2.9,1.5-4.3c0.1-0.2,0.2-0.5,0.2-0.7c0.6-1.7,1.2-3.4,1.7-5.1
	c0.1-0.4,0.3-0.8,0.4-1.3c0.4-1.3,0.8-2.5,1.2-3.7c0.2-0.6,0.4-1.1,0.5-1.7c0.3-1.1,0.7-2.2,1-3.4c0.2-0.6,0.4-1.2,0.5-1.8
	c0.3-1.1,0.7-2.2,1-3.4c0.2-0.5,0.3-1.1,0.5-1.6c0.4-1.3,0.7-2.5,1.1-3.8c0.1-0.4,0.2-0.8,0.3-1.2c0.9-3.3,1.8-6.6,2.6-9.9
	c0.1-0.4,0.2-0.8,0.3-1.2c0.3-1.3,0.6-2.5,0.9-3.7c0.1-0.5,0.2-0.9,0.3-1.4c0.3-1.2,0.5-2.4,0.8-3.5c0.1-0.5,0.2-0.9,0.3-1.4
	c0.3-1.2,0.5-2.5,0.8-3.7c0.1-0.4,0.2-0.7,0.2-1.1c0.3-1.6,0.6-3.1,1-4.7l0-0.1c0.7-3.3,1.3-6.5,1.8-9.7l0.1-0.7
	c0.2-1.3,0.5-2.7,0.7-4c0.1-0.3,0.1-0.6,0.1-0.9c0.2-1.3,0.4-2.6,0.6-3.8l0.1-0.8c0.2-1.4,0.4-2.9,0.7-4.3c0-0.1,0-0.1,0-0.2
	c0.7-4.7,1.3-9.2,1.8-13.7c0-0.1,0-0.1,0-0.2c0.2-1.4,0.3-2.8,0.5-4.1l0-0.3c0.2-1.4,0.3-2.8,0.4-4.2l0,0
	c26.9-3.3,53.6-8.2,79.8-14.7v0v0l0,0l0,0c16.9,24,38.1,44.7,62.6,61.1l0.1,0.1c1.3,0.8,2.4,1.6,3.6,2.3l0.2,0.1
	c1.1,0.7,2.1,1.3,3.1,1.9l0.2,0.1c0.4,0.2,0.8,0.5,1.2,0.7l0.2,0.1c0.4,0.3,0.8,0.5,1.2,0.7l0.2,0.1l0.9,0.5l0.3,0.1l0.9,0.5
	c1.1-2.4,2.1-4.7,3-7.1c0.3-0.8,0.6-1.6,0.9-2.4c0.6-1.6,1.2-3.1,1.8-4.6c0.4-1,0.7-1.9,1-2.9c0.5-1.4,1-2.8,1.4-4.1
	c0.3-1,0.7-2,1-3c0.4-1.3,0.8-2.6,1.2-3.9c0.3-1.1,0.6-2.1,0.9-3.1c0.3-1.2,0.7-2.5,1-3.7c0.3-1.1,0.6-2.1,0.8-3.2
	c0.3-1.2,0.6-2.3,0.9-3.5c0.3-1.1,0.5-2.2,0.7-3.3c0.2-1.1,0.5-2.2,0.7-3.4s0.4-2.2,0.7-3.3c0.2-1.1,0.4-2.1,0.6-3.2
	c0.2-1.1,0.4-2.3,0.6-3.4c0.2-1,0.3-2,0.4-2.9c0.2-1.2,0.3-2.3,0.5-3.5c0.1-0.9,0.2-1.8,0.3-2.7c0.1-1.2,0.3-2.5,0.4-3.7
	c0.1-0.7,0.1-1.4,0.2-2.2c0.1-1.4,0.2-2.7,0.3-4c0-0.4,0-0.8,0.1-1.1c0.5-7.5,0.6-14.6,0.5-21.4c55.9-23.1,108.4-53.7,156-91
	c-19.4-4.3-39.4-9.4-59.9-15.5c-32.2,22.3-66.5,41.4-102.4,57.1c-1.8-7.6-3.6-13.3-4.7-16.7c-3.1-9.4-6.7-18.7-11-27.6v0
	c20.9-9.3,41.3-19.9,60.9-31.7c-18.8-6.9-37.9-14.6-57.2-23.2c-9.6,4.8-19.3,9.4-29.2,13.6c-13.1-16.9-28.3-31.9-45.3-44.7l0,0
	c-2.2-1.6-4.3-3.2-6.3-4.6l-0.1-0.1c-0.6-0.5-1.3-0.9-1.9-1.3h0c-1.3-0.9-2.5-1.7-3.6-2.4l-0.2-0.1c-0.5-0.3-1-0.7-1.5-1l-0.2-0.1
	c-1.1-0.7-2.1-1.3-3-1.9l-0.3-0.2c-0.4-0.2-0.7-0.5-1.1-0.7l-0.3-0.2c-0.4-0.3-0.8-0.5-1.2-0.7l0,0c-0.4-0.2-0.7-0.4-1.1-0.6
	l-0.3-0.2c-0.3-0.1-0.5-0.3-0.7-0.4l-0.3-0.2c-0.3-0.2-0.6-0.3-0.9-0.5c-1,2.3-2,4.5-2.9,6.8c-0.3,0.7-0.6,1.4-0.9,2.1
	c-0.6,1.5-1.2,3.1-1.8,4.6c-0.3,0.8-0.6,1.6-0.9,2.4c-0.5,1.5-1.1,3-1.6,4.4c-0.3,0.8-0.5,1.5-0.8,2.3c-0.6,1.7-1.1,3.4-1.6,5.1
	c-0.1,0.5-0.3,1-0.5,1.5c-0.6,2.2-1.2,4.3-1.8,6.5c-0.2,0.6-0.3,1.2-0.5,1.8c-0.4,1.5-0.8,3.1-1.1,4.6c-0.2,0.8-0.4,1.6-0.5,2.4
	c-0.3,1.4-0.6,2.7-0.9,4.1c-0.2,0.8-0.3,1.6-0.5,2.4c-0.3,1.4-0.5,2.8-0.7,4.2c-0.1,0.7-0.2,1.4-0.4,2.1c-0.3,2-0.6,4-0.9,6
	c-0.1,0.5-0.1,1-0.2,1.4c-0.2,1.5-0.4,3.1-0.5,4.6c-0.1,0.8-0.2,1.6-0.2,2.3c-0.1,1.2-0.2,2.4-0.3,3.6c-0.1,0.8-0.1,1.6-0.2,2.5
	c-0.1,1.2-0.2,2.3-0.2,3.5c0,0.8-0.1,1.6-0.1,2.3c-0.1,1.3-0.1,2.6-0.1,3.9c0,0.6,0,1.1-0.1,1.7c-14.9,3.5-30,6.3-45,8.5l0,0l0,0
	c-0.5-2.5-1-4.9-1.5-7.3c-0.1-0.3-0.1-0.5-0.2-0.8c-1-4.8-2.1-9.5-3.2-14.1c-0.1-0.2-0.1-0.5-0.2-0.7c-1.1-4.6-2.3-9.2-3.5-13.6
	l-0.1-0.4c-0.6-2.2-1.2-4.4-1.9-6.5c0-0.1-0.1-0.2-0.1-0.4c-1.3-4.3-2.6-8.5-3.9-12.6c-0.1-0.2-0.1-0.3-0.2-0.5
	c-1.3-4-2.7-7.9-4-11.7c-0.1-0.2-0.1-0.3-0.2-0.5c-1.4-3.8-2.8-7.5-4.2-11.1c0-0.1-0.1-0.2-0.1-0.4c-0.7-1.8-1.4-3.5-2.1-5.3
	l-0.1-0.2c-0.7-1.7-1.4-3.4-2.1-5.1l0-0.1c-0.7-1.7-1.4-3.3-2.1-4.9c-0.1-0.1-0.1-0.3-0.2-0.4c-1.4-3.1-2.7-6.2-4.1-9.1l-0.2-0.4
	c-1.3-2.9-2.7-5.6-4-8.3c-0.1-0.1-0.1-0.3-0.2-0.4c-0.7-1.3-1.3-2.6-1.9-3.8l-0.1-0.2c-0.6-1.2-1.2-2.4-1.8-3.6
	c0-0.1-0.1-0.2-0.1-0.3c-0.6-1.2-1.2-2.3-1.8-3.4c-0.1-0.1-0.1-0.2-0.2-0.4c-1.2-2.2-2.3-4.3-3.4-6.2c-0.1-0.1-0.2-0.3-0.2-0.4
	c-1.1-1.9-2.1-3.7-3.1-5.3c-0.1-0.1-0.2-0.3-0.2-0.4c-0.5-0.8-0.9-1.6-1.4-2.3l-0.2-0.3c-0.4-0.7-0.8-1.3-1.2-1.9l-0.2-0.3
	c-0.4-0.7-0.8-1.3-1.2-1.9l-0.2-0.3c-0.3-0.5-0.7-1.1-1-1.5l-0.1-0.2c-0.3-0.5-0.7-1-1-1.5l-0.2-0.3c-0.3-0.5-0.6-0.9-0.8-1.3
	c-0.9,1.6-1.8,3.2-2.6,4.8c-0.3,0.5-0.6,1.1-0.8,1.6c-0.6,1.1-1.1,2.1-1.7,3.2c-0.3,0.6-0.6,1.3-1,1.9c-0.5,1-1,1.9-1.5,2.9
	c-0.3,0.7-0.7,1.3-1,2c-0.5,0.9-0.9,1.9-1.4,2.8c-0.3,0.7-0.7,1.4-1,2.1c-0.4,0.9-0.9,1.9-1.3,2.8c-0.3,0.7-0.6,1.4-0.9,2.1
	c-0.4,0.9-0.9,1.9-1.3,2.8c-0.3,0.7-0.6,1.4-0.9,2c-0.4,1-0.8,1.9-1.2,2.9c-0.3,0.7-0.6,1.3-0.8,2c-0.4,1-0.8,2-1.3,3
	c-0.2,0.6-0.5,1.2-0.7,1.8c-0.5,1.2-0.9,2.3-1.4,3.5c-0.2,0.4-0.3,0.9-0.5,1.3c-0.6,1.6-1.3,3.2-1.9,4.9c0,0.1-0.1,0.2-0.1,0.4
	c-0.6,1.5-1.1,3-1.6,4.5c-0.2,0.5-0.3,1-0.5,1.5c-0.4,1.1-0.8,2.2-1.2,3.4c-0.2,0.6-0.4,1.2-0.6,1.8c-0.3,1-0.7,2.1-1,3.1
	c-0.2,0.6-0.4,1.2-0.6,1.8c-0.3,1-0.6,2-1,3c-0.2,0.6-0.4,1.2-0.6,1.9c-0.3,1-0.6,2-0.9,3c-0.2,0.6-0.4,1.2-0.5,1.8
	c-0.3,1-0.6,2-0.9,3.1c-0.2,0.6-0.3,1.1-0.5,1.7c-0.3,1.1-0.6,2.1-0.9,3.2c-0.1,0.5-0.3,1-0.4,1.5c-0.3,1.2-0.6,2.4-0.9,3.5
	c-0.1,0.4-0.2,0.8-0.3,1.2c-0.4,1.5-0.8,3.1-1.2,4.6l0,0.1c-0.8,3.2-1.6,6.4-2.3,9.5c-0.1,0.2-0.1,0.5-0.2,0.7
	c-0.3,1.3-0.6,2.6-0.9,3.9c-0.1,0.3-0.1,0.7-0.2,1c-0.3,1.2-0.5,2.4-0.8,3.6c-0.1,0.4-0.2,0.8-0.2,1.1c-0.2,1.2-0.5,2.3-0.7,3.4
	c-0.1,0.4-0.1,0.8-0.2,1.1c-0.2,1.2-0.4,2.3-0.7,3.4c-0.1,0.4-0.1,0.7-0.2,1.1c-0.2,1.2-0.4,2.4-0.6,3.6c-0.1,0.3-0.1,0.6-0.2,0.9
	c-0.2,1.3-0.4,2.6-0.7,3.8c0,0.2-0.1,0.3-0.1,0.5c-1.2,7.5-2.2,14.7-3.1,21.6l0,0l0,0l0,0c-10.4-0.7-20.8-1.6-31.2-2.9
	c-5-0.6-9.9-1.3-14.8-2.1c-2.3-24.1-8.3-47.7-17.6-70.1l0-0.1c-0.3-0.7-0.6-1.4-0.9-2.1c0-0.1-0.1-0.2-0.1-0.3
	c-0.5-1.2-1-2.3-1.5-3.4c-0.1-0.2-0.2-0.5-0.3-0.7c-0.2-0.5-0.5-1-0.7-1.5c-0.2-0.3-0.3-0.6-0.4-0.9c-0.3-0.6-0.6-1.3-0.9-1.9
	c-0.2-0.4-0.4-0.8-0.6-1.1c-0.2-0.3-0.3-0.6-0.4-0.9c-0.2-0.5-0.5-0.9-0.7-1.4l-0.3-0.6c-0.2-0.5-0.5-0.9-0.7-1.3
	c-0.1-0.2-0.2-0.3-0.2-0.4c-0.2-0.5-0.5-0.9-0.7-1.3c-1.7,1.1-3.3,2.3-4.9,3.4c-0.3,0.2-0.5,0.4-0.8,0.5c-1.5,1.1-3.1,2.2-4.5,3.3
	c-0.3,0.2-0.6,0.4-0.8,0.6c-1.5,1.1-3,2.3-4.4,3.4c-0.2,0.1-0.3,0.3-0.5,0.4c-1.4,1.2-2.8,2.3-4.2,3.5c-0.1,0.1-0.2,0.2-0.3,0.3
	c-1.4,1.2-2.8,2.4-4.2,3.6c-0.2,0.2-0.4,0.4-0.7,0.6c-1.3,1.2-2.6,2.4-3.9,3.6c-0.2,0.2-0.4,0.4-0.6,0.5c-1.3,1.3-2.6,2.5-3.9,3.8
	l0,0c-1.3,1.3-2.6,2.6-3.9,3.9c-0.1,0.1-0.2,0.2-0.3,0.3c-1.2,1.3-2.4,2.6-3.6,3.9l-0.4,0.5c-1.2,1.3-2.3,2.6-3.5,3.9l-0.2,0.2
	c-2.4,2.7-4.6,5.5-6.7,8.2l-0.2,0.2c-1.1,1.4-2.1,2.7-3.1,4.1l-0.1,0.2c-3.1,4.2-6,8.4-8.7,12.5l0,0l0,0l0,0l0,0
	c-18.7-6.5-37-14-54.9-22.6c-18.8,8.7-37.9,16.7-57.3,24c28.8,16.4,58.9,30.4,90.1,41.6c-3.5,8.8-6.3,17.7-8.6,26.9
	c-1.6,6.3-2.8,12.4-3.8,18.4l0,0c-35.9-12.7-70.6-28.7-103.5-47.8c-10.8-6.2-21.3-12.7-31.7-19.5c-20,6.1-40.1,11.5-60.2,16.2
	c58.4,43.9,123.5,78,192.8,100.8C752.6,1679,759.3,1706.5,770.5,1732.2z M881.9,1631.5c-4.7-0.6-9.4-1.2-14.1-1.9
	c2.8-8,4.4-14.3,5.3-17.9c2.3-9.2,4-18.5,5.1-27.9l0,0c14.4,2,28.8,3.5,43.2,4.4v0c-0.3,12.8-0.1,22.6,0.1,28.2
	c0.2,6.4,0.6,12.7,1,18.8v0C909,1634.4,895.4,1633.1,881.9,1631.5L881.9,1631.5z M1040.5,1630.5c0-8-0.1-14.3-0.3-18.4
	c-0.3-9.8-0.9-19.4-1.8-28.6l0,0c14.2-2,28.2-4.6,42.2-7.6l0,0c1.7,9.6,4.1,19.1,7.1,28.4c1.9,5.7,3.9,11.3,6.1,16.6
	C1076.1,1624.9,1058.3,1628.1,1040.5,1630.5L1040.5,1630.5z M1163.7,1579.6c7,22.2,10,45.5,8.9,68.8c-0.1,1.4-0.2,2.8-0.3,4.2
	c0,0.3,0,0.5-0.1,0.8c-0.1,1.1-0.2,2.2-0.3,3.3c0,0.4-0.1,0.8-0.1,1.3c-0.1,1-0.2,2-0.3,3.1c0,0.4-0.1,0.8-0.1,1.2
	c-0.2,1.4-0.4,2.8-0.6,4.3c-1-1-2.1-2.1-3.1-3.2c-3-3.2-6.1-6.7-9.1-10.4l0,0c-14.8-18.1-26-38.7-33.2-60.9
	c-7.7-24.4-10.6-50.1-8.5-75.6l0,0c0.1-1.7,0.3-3.5,0.5-5.2c0-0.3,0.1-0.6,0.1-0.9c0.2-1.7,0.4-3.5,0.7-5.3c1.3,1.3,2.5,2.6,3.8,4
	c0.1,0.1,0.1,0.1,0.2,0.2c1.3,1.4,2.5,2.7,3.8,4.2l0,0C1143,1532.7,1155.8,1555.2,1163.7,1579.6L1163.7,1579.6z M964.7,1541.3
	c0.3-2.2,0.6-4.5,0.9-6.8l0-0.2c0.3-2.3,0.7-4.6,1-6.9l0-0.2c0.3-2.2,0.7-4.3,1.1-6.6c0-0.3,0.1-0.6,0.1-0.9
	c0.4-2.3,0.8-4.6,1.3-6.9c0-0.1,0.1-0.3,0.1-0.4c0.4-2.1,0.8-4.2,1.3-6.3c0.1-0.5,0.2-0.9,0.3-1.4c0.5-2.3,1-4.5,1.5-6.8
	c0-0.2,0.1-0.3,0.1-0.5c0.5-2.1,1-4.2,1.5-6.3c0.1-0.6,0.3-1.2,0.4-1.7c0.6-2.3,1.2-4.6,1.8-6.9c0.8,2.1,1.5,4.3,2.2,6.5
	c0.6,1.8,1.2,3.6,1.8,5.4c0.1,0.4,0.3,0.8,0.4,1.3c4.6,14.6,8.4,29.5,11.5,44.5c4.8,24.2,7.7,48.7,8.5,73.3
	c0.7,23.1-0.3,46.3-3,69.3c-0.6,4.8-1.2,9.6-2,14.6c0,0.2-0.1,0.4-0.1,0.6c-0.7,4.8-1.5,9.7-2.5,14.7c-0.1,0.3-0.1,0.7-0.2,1
	c-0.5,2.4-0.9,4.8-1.4,7.2c-0.1,0.3-0.1,0.7-0.2,1c-0.5,2.2-1,4.5-1.5,6.7c-0.1,0.3-0.1,0.6-0.2,0.9c-0.5,2.4-1.1,4.8-1.7,7.2
	c-0.1,0.5-0.3,1.1-0.4,1.6c-0.6,2.5-1.3,4.9-1.9,7.4c-0.8-2.2-1.6-4.5-2.3-6.8c-0.1-0.4-0.3-0.8-0.4-1.2c-0.6-1.9-1.3-3.9-1.9-5.9
	c-0.1-0.3-0.2-0.7-0.3-1c-0.7-2.1-1.3-4.3-2-6.4c-0.1-0.2-0.1-0.4-0.2-0.6c-0.7-2.3-1.4-4.7-2-7.1c0-0.1,0-0.1,0-0.2
	c-2.8-10.3-5.4-21.2-7.6-32.8c-4.3-22.8-6.9-45.9-7.7-69C960.4,1590.3,961.5,1565.7,964.7,1541.3L964.7,1541.3z M795.7,1592.4
	c4.4-17.2,11.2-33.7,20.1-49.1c3.7-6.3,7.7-12.5,12-18.4l0,0c1.1-1.5,2.2-3,3.4-4.4c0.2-0.3,0.5-0.6,0.8-1c1.2-1.5,2.3-2.9,3.5-4.3
	c0.3,1.2,0.5,2.5,0.8,3.7c0.1,0.6,0.2,1.2,0.4,1.8c0.1,0.5,0.2,1,0.3,1.4c0.3,1.7,0.6,3.5,0.9,5.2c3.9,24.9,2.8,50.3-3.3,74.7
	c-4.4,17.2-11.2,33.7-20.1,49.1c-3,5.2-6.2,10.2-9.6,15.1c-1.6,2.2-3.2,4.5-4.9,6.6c-0.1,0.1-0.1,0.2-0.2,0.2c-0.8,1-1.5,2-2.3,3
	c-0.9,1.1-1.7,2.1-2.6,3.2c-0.3-1.3-0.6-2.7-0.9-4.1c-0.2-1-0.4-1.9-0.5-2.9c-0.1-0.4-0.1-0.7-0.2-1.1c-0.2-1.2-0.4-2.5-0.6-3.7
	c0-0.1,0-0.2,0-0.3c-0.2-1.4-0.4-2.7-0.6-4.1C788.7,1639.4,790,1615.5,795.7,1592.4L795.7,1592.4z"/>
<path class="st0" d="M435.4,495.5l-0.4,0c-0.7-0.1-1.4-0.2-2.1-0.2l-0.6-0.1c-1.1-0.1-2.2-0.2-3.2-0.3c-0.3,0-0.5,0-0.8-0.1
	c-0.5,0-0.9-0.1-1.4-0.1c-0.4,0-0.8-0.1-1.1-0.1s-0.7,0-1.1-0.1c-0.7,0-1.3-0.1-1.9-0.1l-0.7,0c-0.4,0-0.9,0-1.3-0.1
	c-0.2,0-0.4,0-0.5,0c-0.5,0-1,0-1.5-0.1c0.2,2.3,0.3,4.7,0.6,7c0,0.1,0,0.3,0,0.4c0.2,2.2,0.5,4.4,0.7,6.5c0,0.2,0.1,0.4,0.1,0.7
	c0.3,2.1,0.6,4.2,0.9,6.2c0,0.3,0.1,0.5,0.1,0.8c0.3,2,0.7,4,1.1,6c0.1,0.3,0.1,0.6,0.2,0.8c0.4,2,0.8,3.9,1.2,5.8
	c0.1,0.3,0.1,0.6,0.2,0.8c0.4,1.9,0.9,3.8,1.4,5.7c0.1,0.2,0.1,0.5,0.2,0.7c0.5,1.9,1,3.8,1.5,5.6c0.1,0.2,0.1,0.4,0.2,0.6
	c0.5,1.9,1.1,3.7,1.7,5.6c0,0.1,0.1,0.3,0.1,0.4c0.6,1.9,1.2,3.8,1.9,5.6l0,0.1c2,5.8,4.2,11.4,6.5,16.7v0c0.8,1.8,1.5,3.5,2.3,5.2
	l0,0.1c0.8,1.7,1.6,3.3,2.4,4.9l0.1,0.1c0.8,1.6,1.6,3.2,2.4,4.8l0,0.1c0.8,1.6,1.7,3.1,2.5,4.7l0,0l0,0l0,0
	c-17.5,21.1-33.7,43.3-48.4,66.5l0,0c-2.5-0.9-5-1.8-7.4-2.7l-0.6-0.2c-2.4-0.8-4.8-1.6-7.2-2.4l-0.8-0.2c-4.8-1.6-9.6-3.1-14.3-4.4
	l-0.7-0.2c-2.3-0.7-4.6-1.3-6.9-2l-0.3-0.1c-2.3-0.6-4.6-1.2-6.9-1.8l-0.1,0c-2.3-0.6-4.5-1.1-6.7-1.7l-0.7-0.2
	c-4.5-1.1-8.8-2-13.1-2.9l-0.5-0.1c-2.1-0.4-4.2-0.9-6.3-1.3l-0.5-0.1c-4.2-0.8-8.2-1.5-12.2-2.2l-0.6-0.1c-2-0.3-3.9-0.6-5.8-0.9
	l-0.1,0c-1.9-0.3-3.9-0.6-5.8-0.8l-0.2,0c-1.9-0.2-3.7-0.5-5.5-0.7l-0.5-0.1c-3.6-0.4-7.1-0.8-10.4-1.1l-0.4,0
	c-1.7-0.2-3.3-0.3-4.9-0.4l-0.4,0c-3.2-0.3-6.3-0.5-9.3-0.6l-0.5,0c-1.5-0.1-2.9-0.2-4.3-0.2l-0.2,0c-1.4-0.1-2.7-0.1-4-0.2l-0.3,0
	c-1.3,0-2.6-0.1-3.8-0.1l-0.5,0c-2.5-0.1-4.8-0.1-7-0.1h-0.4c-1.1,0-2.1,0-3.1,0h-0.4c-1,0-1.9,0-2.8,0c-0.1,0-0.1,0-0.2,0
	c-0.9,0-1.8,0-2.6,0.1l-0.4,0c-0.8,0-1.6,0.1-2.3,0.1l-0.2,0c-0.7,0-1.4,0.1-2,0.1l-0.3,0c-0.6,0-1.3,0.1-1.8,0.1l-0.4,0
	c-0.6,0-1.1,0.1-1.6,0.1c1,1.6,1.9,3.2,2.9,4.9c0.3,0.5,0.6,1,1,1.6c0.7,1.1,1.4,2.2,2,3.2c0.4,0.6,0.8,1.2,1.2,1.8
	c0.6,1,1.3,2,1.9,3c0.4,0.6,0.8,1.2,1.2,1.8c0.7,1,1.3,2,2,3c0.4,0.6,0.8,1.1,1.2,1.7c0.8,1.1,1.5,2.2,2.3,3.3
	c0.3,0.4,0.6,0.8,0.9,1.2c1.1,1.5,2.2,3,3.2,4.5c0.2,0.3,0.4,0.6,0.7,0.9c0.9,1.2,1.7,2.3,2.6,3.5c0.4,0.5,0.8,1,1.2,1.5
	c0.7,0.9,1.5,1.9,2.2,2.8c0.4,0.5,0.8,1.1,1.3,1.6c0.7,0.9,1.4,1.8,2.2,2.7c0.4,0.5,0.8,1,1.3,1.6c0.8,0.9,1.5,1.9,2.3,2.8
	c0.4,0.5,0.8,0.9,1.1,1.4c1,1.2,2,2.3,3,3.5c0.2,0.2,0.3,0.4,0.5,0.6c1.2,1.4,2.3,2.7,3.5,4c0.3,0.3,0.6,0.7,0.9,1
	c0.9,1,1.8,2,2.6,2.9c0.4,0.4,0.8,0.9,1.2,1.3c0.8,0.9,1.6,1.7,2.4,2.6c0.4,0.4,0.8,0.9,1.3,1.3c0.8,0.9,1.6,1.7,2.4,2.5
	c0.4,0.4,0.8,0.8,1.2,1.2c0.9,0.9,1.8,1.9,2.7,2.8c0.3,0.3,0.6,0.6,0.9,0.9c2.4,2.5,4.9,4.9,7.3,7.2c0.3,0.3,0.6,0.5,0.9,0.8
	c0.9,0.9,1.9,1.8,2.8,2.7c0.4,0.3,0.7,0.7,1.1,1c0.9,0.8,1.8,1.6,2.7,2.5l1,1c0.9,0.9,1.9,1.7,2.8,2.5c0.3,0.2,0.5,0.5,0.8,0.7
	c1.2,1.1,2.4,2.1,3.6,3.2l0,0c2.5,2.2,5,4.3,7.5,6.4l0.6,0.5c1,0.9,2.1,1.7,3.1,2.6l0.7,0.6c1,0.8,2,1.7,3,2.5l0.6,0.5
	c1.1,0.9,2.3,1.8,3.4,2.7l0.2,0.1c3.7,2.9,7.3,5.7,10.9,8.4l0.2,0.1c1.1,0.8,2.2,1.7,3.4,2.5l0.2,0.2c1.1,0.8,2.3,1.7,3.4,2.5l0,0
	C337.1,778.4,328,804,320.5,830h0c-29.3,2.6-57.8,10.7-84.2,23.6l-0.1,0.1c-1.4,0.7-2.6,1.3-3.8,1.9l-0.2,0.1
	c-1.2,0.6-2.2,1.2-3.2,1.7l-0.2,0.1c-0.4,0.2-0.8,0.4-1.2,0.7l-0.2,0.1c-0.4,0.2-0.8,0.5-1.2,0.7l-0.2,0.1c-0.3,0.2-0.6,0.4-0.9,0.5
	l-0.3,0.1c-0.3,0.2-0.6,0.4-0.9,0.5c1.5,2.1,3.1,4.2,4.6,6.2c0.5,0.7,1.1,1.3,1.6,2c1,1.3,2.1,2.6,3.1,3.9c0.6,0.8,1.3,1.5,2,2.3
	c0.9,1.1,1.9,2.2,2.8,3.3c0.7,0.8,1.4,1.6,2.1,2.4c0.9,1,1.8,2,2.7,3c0.8,0.8,1.5,1.6,2.3,2.4c0.9,0.9,1.8,1.8,2.7,2.7
	c0.8,0.8,1.6,1.6,2.4,2.3c0.9,0.8,1.7,1.7,2.6,2.5c0.8,0.8,1.6,1.5,2.5,2.3c0.8,0.8,1.7,1.5,2.6,2.3c0.9,0.8,1.7,1.5,2.6,2.2
	c0.8,0.7,1.6,1.4,2.5,2.1c0.9,0.7,1.8,1.5,2.7,2.2c0.8,0.6,1.6,1.2,2.3,1.8c0.9,0.7,1.9,1.5,2.8,2.2c0.7,0.5,1.4,1.1,2.1,1.6
	c1,0.7,2,1.5,3,2.2c0.6,0.4,1.2,0.8,1.8,1.3c1.1,0.8,2.2,1.6,3.3,2.3c0.3,0.2,0.6,0.4,0.9,0.6c6.2,4.2,12.4,7.9,18.3,11.1
	c-8,60-7.7,120.7,0.8,180.6c13.4-14.6,27.9-29.4,43.3-44.1c-3.2-39.1-2.6-78.3,1.7-117.3c7.5,2.2,13.3,3.6,16.8,4.3
	c9.7,2.1,19.5,3.5,29.4,4.3l0,0c-2.4,22.8-3.4,45.7-3,68.6c15.4-12.9,31.6-25.5,48.7-37.9c0.6-10.7,1.5-21.4,2.8-32.1
	c21.1-2.9,41.8-8.6,61.4-16.9l0,0c2.5-1.1,4.9-2.1,7.1-3.1l0.1-0.1c0.7-0.3,1.4-0.7,2.1-1l0,0c1.4-0.7,2.7-1.3,3.9-1.9l0.2-0.1
	c0.5-0.3,1.1-0.5,1.6-0.8l0.2-0.1c1.1-0.6,2.2-1.1,3.1-1.7l0.3-0.2c0.4-0.2,0.8-0.4,1.1-0.6l0.3-0.2c0.4-0.2,0.9-0.5,1.2-0.7l0,0
	c0.4-0.2,0.7-0.4,1.1-0.6l0.3-0.2c0.3-0.1,0.5-0.3,0.7-0.4l0.3-0.2c0.3-0.2,0.6-0.3,0.9-0.5c-1.4-2-2.9-4-4.4-5.9
	c-0.5-0.6-1-1.2-1.4-1.8c-1-1.3-2.1-2.6-3.1-3.9c-0.5-0.7-1.1-1.3-1.7-2c-1-1.2-2-2.4-3.1-3.6c-0.5-0.6-1.1-1.2-1.6-1.8
	c-1.2-1.3-2.4-2.6-3.6-3.9c-0.4-0.4-0.7-0.8-1.1-1.1c-1.6-1.6-3.1-3.2-4.7-4.8c-0.4-0.4-0.9-0.9-1.4-1.3c-1.1-1.1-2.3-2.2-3.4-3.3
	c-0.6-0.6-1.2-1.1-1.8-1.6c-1-0.9-2.1-1.9-3.1-2.8c-0.6-0.5-1.2-1.1-1.8-1.6c-1.1-0.9-2.2-1.8-3.3-2.7c-0.5-0.4-1.1-0.9-1.6-1.3
	c-1.6-1.3-3.2-2.5-4.7-3.8c-0.4-0.3-0.8-0.6-1.2-0.9c-1.2-0.9-2.5-1.9-3.7-2.8c-0.6-0.5-1.3-0.9-1.9-1.4c-1-0.7-2-1.4-3-2.1
	c-0.7-0.5-1.4-0.9-2-1.4c-1-0.7-1.9-1.3-2.9-1.9c-0.7-0.4-1.3-0.9-2-1.3c-1.1-0.7-2.2-1.4-3.3-2.1c-0.5-0.3-1-0.6-1.4-0.9
	c4.4-14.7,9.5-29.1,15.1-43.3l0,0c2.4,0.8,4.8,1.6,7.1,2.4l0.8,0.3c4.7,1.5,9.3,2.9,13.8,4.3l0.7,0.2c4.6,1.3,9.1,2.6,13.5,3.7
	l0.4,0.1c2.2,0.6,4.4,1.1,6.6,1.6l0.4,0.1c4.4,1.1,8.7,2,12.9,2.9l0.5,0.1c4.1,0.9,8.2,1.7,12.2,2.4l0.5,0.1c4,0.7,7.9,1.4,11.7,1.9
	l0.4,0.1c1.9,0.3,3.8,0.6,5.6,0.8l0.2,0c1.9,0.3,3.7,0.5,5.5,0.7l0.1,0c1.8,0.2,3.6,0.4,5.3,0.6l0.4,0c3.4,0.4,6.7,0.7,9.9,1l0.5,0
	c3.2,0.3,6.2,0.5,9.2,0.7l0.4,0c1.5,0.1,2.9,0.2,4.3,0.2l0.2,0c1.4,0.1,2.7,0.1,4,0.2l0.3,0c1.3,0.1,2.6,0.1,3.9,0.1l0.4,0
	c2.5,0.1,4.9,0.1,7.1,0.1h0.5c2.2,0,4.2,0,6.2,0l0.5,0c0.9,0,1.8,0,2.7,0l0.3,0c0.8,0,1.5,0,2.3-0.1l0.4,0c0.8,0,1.5,0,2.2-0.1
	l0.4,0c0.6,0,1.2-0.1,1.8-0.1l0.2,0c0.6,0,1.2-0.1,1.8-0.1l0.3,0c0.5,0,1.1-0.1,1.5-0.1c-0.9-1.6-1.9-3.1-2.8-4.7
	c-0.3-0.5-0.6-1-0.9-1.5c-0.6-1-1.3-2.1-1.9-3.1c-0.4-0.6-0.8-1.2-1.1-1.8c-0.6-0.9-1.2-1.8-1.8-2.8c-0.4-0.6-0.8-1.2-1.2-1.9
	c-0.6-0.9-1.2-1.7-1.8-2.6c-0.4-0.6-0.9-1.3-1.3-1.9c-0.6-0.8-1.2-1.7-1.8-2.5c-0.4-0.6-0.9-1.2-1.3-1.8c-0.6-0.8-1.2-1.7-1.8-2.5
	c-0.4-0.6-0.9-1.2-1.3-1.8c-0.6-0.8-1.2-1.7-1.9-2.5c-0.4-0.6-0.9-1.1-1.3-1.7c-0.7-0.9-1.3-1.8-2-2.6c-0.4-0.5-0.8-1-1.2-1.5
	c-0.8-1-1.6-2-2.3-3c-0.3-0.4-0.6-0.7-0.9-1.1c-1.1-1.4-2.2-2.7-3.3-4c-0.1-0.1-0.2-0.2-0.2-0.3c-1-1.2-2-2.5-3.1-3.7
	c-0.3-0.4-0.7-0.8-1-1.2c-0.8-0.9-1.5-1.8-2.3-2.7c-0.4-0.5-0.8-0.9-1.2-1.4c-0.7-0.8-1.4-1.6-2.2-2.4c-0.4-0.5-0.9-1-1.3-1.4
	c-0.7-0.8-1.4-1.6-2.1-2.3c-0.4-0.5-0.9-1-1.3-1.4c-0.7-0.8-1.4-1.5-2.1-2.3c-0.4-0.5-0.9-0.9-1.3-1.4c-0.7-0.8-1.5-1.5-2.2-2.3
	c-0.4-0.4-0.8-0.9-1.2-1.3c-0.8-0.8-1.5-1.6-2.3-2.4c-0.4-0.4-0.7-0.8-1.1-1.1c-0.9-0.9-1.7-1.7-2.6-2.6c-0.3-0.3-0.6-0.6-0.9-0.9
	c-1.1-1.1-2.2-2.2-3.4-3.3l-0.1-0.1c-2.4-2.3-4.8-4.5-7.1-6.7c-0.2-0.2-0.3-0.3-0.5-0.5c-1-0.9-2-1.8-3-2.7
	c-0.3-0.2-0.5-0.5-0.8-0.7c-0.9-0.8-1.8-1.6-2.7-2.4c-0.3-0.3-0.6-0.5-0.9-0.8c-0.9-0.8-1.8-1.6-2.6-2.3l-0.9-0.8
	c-0.9-0.8-1.8-1.5-2.7-2.3c-0.3-0.2-0.5-0.5-0.8-0.7c-0.9-0.8-1.8-1.6-2.8-2.3l-0.7-0.6c-1-0.8-2-1.7-3-2.5
	c-0.1-0.1-0.3-0.2-0.4-0.3c-5.9-4.8-11.6-9.3-17.2-13.5l0,0l0,0l0,0l0,0c5.8-8.7,11.8-17.2,18.1-25.6c3-4,6.1-7.9,9.2-11.8
	c22,10.1,45.5,16.7,69.5,19.7l0.1,0c0.8,0.1,1.6,0.2,2.3,0.3l0.3,0c1.3,0.1,2.5,0.3,3.7,0.4l0.7,0.1c0.6,0.1,1.1,0.1,1.6,0.1
	c0.4,0,0.7,0.1,1,0.1c0.7,0.1,1.4,0.1,2.1,0.2c0.4,0,0.8,0.1,1.2,0.1c0.3,0,0.7,0,1,0.1c0.5,0,1,0.1,1.5,0.1l0.7,0
	c0.5,0,1,0,1.5,0.1l0.5,0c0.5,0,1,0,1.5,0.1c-0.1-2-0.3-4-0.5-6c0-0.3-0.1-0.6-0.1-0.9c-0.2-1.9-0.4-3.8-0.6-5.6
	c0-0.3-0.1-0.7-0.1-1c-0.2-1.9-0.5-3.7-0.8-5.5c0-0.2-0.1-0.4-0.1-0.7c-0.3-1.8-0.6-3.6-0.9-5.4c0-0.1,0-0.3-0.1-0.4
	c-0.3-1.8-0.7-3.6-1.1-5.4c-0.1-0.3-0.1-0.6-0.2-0.9c-0.4-1.8-0.8-3.5-1.2-5.2c-0.1-0.3-0.1-0.5-0.2-0.8c-0.4-1.8-0.9-3.6-1.3-5.3
	l0,0c-0.5-1.8-1-3.6-1.5-5.3c0-0.1-0.1-0.3-0.1-0.4c-0.5-1.7-1-3.4-1.6-5.1c-0.1-0.2-0.1-0.4-0.2-0.6c-0.5-1.7-1.1-3.3-1.7-5
	l-0.1-0.3c-1.2-3.4-2.4-6.7-3.7-9.9c0-0.1-0.1-0.2-0.1-0.2c-0.6-1.6-1.3-3.2-2-4.7l-0.1-0.2c-2.1-4.8-4.2-9.4-6.5-13.8l0,0l0,0l0,0
	l0,0c15-13,30.7-25.1,47-36.2c1.9-20.7,4.5-41.2,7.8-61.7c-28.6,16.7-55.7,35.9-81.1,57.2c-5.9-7.4-12.2-14.4-18.9-20.9
	c-4.6-4.5-9.3-8.6-14.1-12.5l0,0c29-24.7,60.1-46.8,93.1-65.8c10.8-6.2,21.7-12.1,32.8-17.6c4.7-20.4,10.1-40.5,16-60.2
	c-67.2,28.6-129.3,68-183.7,116.6C490.5,506.6,463.4,498.6,435.4,495.5z M467,642.3c2.9-3.8,5.8-7.6,8.7-11.3
	c5.6,6.4,10.1,11,12.8,13.6c6.8,6.6,14,12.7,21.6,18.4l0,0c-8.9,11.4-17.4,23.2-25.4,35.2l0,0c-10.9-6.7-19.5-11.4-24.4-14
	c-5.6-3-11.3-5.8-16.8-8.5h0C451,664.3,458.8,653.2,467,642.3z M388.5,780.1c6.9,4.1,12.5,7,16,9c8.7,4.6,17.2,8.9,25.7,12.7l0,0
	c-5.3,13.3-10.1,26.7-14.5,40.3l0,0c-9.2-3.3-18.6-6-28.1-8c-5.9-1.3-11.7-2.2-17.4-3C375.6,813.8,381.7,796.8,388.5,780.1z
	 M371,912.3c-22.7-5-44.4-14.1-64-26.7c-1.2-0.8-2.4-1.5-3.5-2.3c-0.2-0.1-0.4-0.3-0.7-0.4c-0.9-0.6-1.8-1.3-2.8-1.9
	c-0.3-0.2-0.7-0.5-1-0.7c-0.8-0.6-1.7-1.2-2.5-1.8c-0.3-0.2-0.7-0.5-1-0.7c-1.1-0.9-2.3-1.7-3.4-2.6c1.4-0.4,2.9-0.7,4.3-1.1
	c4.3-1,8.9-1.9,13.5-2.7l0,0c23-3.8,46.6-3.2,69.4,1.7c25,5.5,48.6,15.9,69.7,30.4l0,0c1.4,1,2.9,2,4.3,3.1l0.7,0.5
	c1.4,1,2.8,2.1,4.2,3.2c-1.8,0.5-3.6,0.9-5.4,1.3c-0.1,0-0.2,0-0.3,0.1c-1.8,0.4-3.6,0.8-5.5,1.2l0,0
	C422,917.8,396.1,917.6,371,912.3z M503.7,759c1.8,1.4,3.6,2.8,5.4,4.2l0.2,0.1c1.8,1.4,3.7,2.9,5.5,4.4l0.1,0.1
	c1.7,1.4,3.4,2.8,5.1,4.2c0.2,0.2,0.4,0.4,0.7,0.6c1.8,1.5,3.5,3,5.3,4.5l0.3,0.3c1.6,1.4,3.2,2.8,4.8,4.3c0.4,0.3,0.7,0.6,1.1,1
	c1.7,1.5,3.4,3.1,5.1,4.7c0.1,0.1,0.2,0.2,0.4,0.3c1.6,1.5,3.1,3,4.7,4.5c0.4,0.4,0.9,0.8,1.3,1.2c1.7,1.6,3.4,3.3,5,5
	c-2.2-0.4-4.5-0.8-6.7-1.3c-1.8-0.4-3.7-0.8-5.6-1.2c-0.4-0.1-0.9-0.2-1.3-0.3c-15-3.3-29.8-7.4-44.3-12.4
	c-23.3-7.9-46-17.7-67.7-29.3c-20.4-10.9-40-23.4-58.5-37.2c-3.8-2.9-7.7-5.9-11.7-9c-0.2-0.1-0.3-0.2-0.5-0.4
	c-3.8-3-7.6-6.2-11.5-9.5c-0.3-0.2-0.5-0.4-0.8-0.6c-1.9-1.6-3.7-3.2-5.6-4.9c-0.3-0.2-0.5-0.5-0.8-0.7c-1.7-1.5-3.4-3.1-5.1-4.6
	c-0.2-0.2-0.5-0.4-0.7-0.7c-1.8-1.7-3.6-3.4-5.4-5.1c-0.4-0.4-0.8-0.8-1.2-1.1c-1.8-1.8-3.6-3.6-5.5-5.4c2.3,0.4,4.7,0.9,7,1.4
	c0.4,0.1,0.8,0.2,1.3,0.3c2,0.4,4,0.8,6,1.3c0.3,0.1,0.7,0.2,1,0.2c2.2,0.5,4.3,1,6.6,1.5l0.6,0.1c2.4,0.6,4.8,1.2,7.2,1.8l0.2,0
	c10.3,2.7,21.1,6,32.2,9.8c21.9,7.6,43.2,17,63.6,27.9C463.4,730.8,484.1,744.2,503.7,759L503.7,759z M543.9,587.2
	c12.7,12.4,23.6,26.6,32.5,42c3.7,6.3,7,12.9,9.9,19.6l0,0c0.7,1.7,1.5,3.4,2.2,5.1c0.2,0.4,0.3,0.8,0.5,1.1c0.7,1.7,1.4,3.5,2,5.2
	c-1.2-0.4-2.4-0.8-3.6-1.2c-0.6-0.2-1.2-0.4-1.8-0.6c-0.5-0.2-0.9-0.3-1.4-0.5c-1.6-0.6-3.3-1.2-5-1.8c-23.5-9-44.9-22.7-63-40.2
	c-12.7-12.4-23.6-26.6-32.5-42c-3-5.2-5.8-10.5-8.2-15.9c-1.2-2.5-2.3-5-3.3-7.5c0-0.1-0.1-0.2-0.1-0.3c-0.5-1.2-0.9-2.3-1.4-3.5
	c-0.5-1.3-1-2.6-1.4-3.9c1.3,0.4,2.6,0.9,4,1.3c0.9,0.3,1.8,0.6,2.8,1c0.4,0.1,0.7,0.3,1.1,0.4c1.2,0.4,2.4,0.9,3.6,1.3l0.2,0.1
	c1.3,0.5,2.6,1,3.9,1.5C506.7,557.6,526.8,570.7,543.9,587.2L543.9,587.2z"/>
</svg>
