<svg id="レイヤー_1" data-name="レイヤー 1" xmlns="http://www.w3.org/2000/svg" width="1920" height="1920" viewBox="0 0 1920 1920"><defs><style>.cls-1{fill:#e6e6e6;}</style></defs><path class="cls-1" d="M1540.561,982.538a591.833,591.833,0,0,0-13.995-105.244l87.671-24.087-6-22.188A666.726,666.726,0,0,0,1433.4,529.781L1416.8,513.29l-63.08,64.965c-12.3-11.494-25.192-22.488-38.488-32.782a543.793,543.793,0,0,0-44.785-31.384l93.47-161.813-20.094-11.593c-81.073-46.775-213.33-102.545-382.775-102.845h-.95a769.854,769.854,0,0,0-383.8,102.7l-20.2,11.6,93.6,162.3a592.911,592.911,0,0,0-84.2,64.8l-64.7-63.9-16.3,16.3A666.335,666.335,0,0,0,311,833.838l-6,22.6,87.8,22.2c-3.8,16.4-6.9,33.1-9.2,49.7-2.5,18-4.1,36.2-4.8,54.5H192v22.787c.1,96.249,18.794,242.27,107.465,391.79,84.473,142.423,196.836,227.078,276.21,273.053l20.094,11.594,93.769-162.213a591.57,591.57,0,0,0,98.168,40.478l-22.992,87.953,22.292,6a667.03,667.03,0,0,0,172.744,22.788c4.4,0,8.8,0,13.2-.1a671.173,671.173,0,0,0,162.447-23.388l22.593-6.2-24.692-87.053c16.094-4.9,32.089-10.6,47.584-16.891,16.8-6.9,33.389-14.593,49.584-23.088l81.873,141.724,11.6,20.089,20.093-11.594c83.273-48.174,200.435-137.426,285.607-288.944,81.174-144.423,98.268-283.948,98.368-375.6V982.838ZM692.65,542.138l19.9-11.6-93.082-161.4a723.683,723.683,0,0,1,340.236-85.3H961a724.581,724.581,0,0,1,339.536,85.4l-93.082,161.3,20.2,11.6a509.65,509.65,0,0,1,110.079,84.9l15.5,15.7,1.4-1.3,1.3,1.2,61.488-63.3a620.322,620.322,0,0,1,140.074,241.5l-42.592,11.7a589.644,589.644,0,0,0-51.09-117.6l-10-17.6c-.1-.6-.3-1.2-.4-1.8a1154.009,1154.009,0,0,0-110.1,40.852A465.5,465.5,0,0,0,1194.4,599.6l-10.8-6.194-57.275,99.112c-20.291-9.591-41.182-18.283-62.173-25.777l14.094-53.852-11.995-3.2a403.161,403.161,0,0,0-211.009.5l-12.1,3.3,14.993,52.953c-10.295,3.1-20.491,6.694-30.387,10.691-10.695,4.4-21.19,9.292-31.386,14.687L739.6,593.41,728.8,599.6A465.527,465.527,0,0,0,573.893,745c-15.3-16.643-30.809-34.845-46.112-54.657A542.527,542.527,0,0,1,692.65,542.138Zm375.53,400.7a816.153,816.153,0,0,1,126.876-77.1,830.711,830.711,0,0,1,161.21-58.755,438.929,438.929,0,0,1,45.547,182.855H1289v12.919a333.025,333.025,0,0,1-11.787,84.3l-3,10.9,1.5.4-.4,1.4,51.7,13a380.064,380.064,0,0,1-86.6,150.8l-38.2-37.7-1.2,1.2-.8-.8-7.8,8.2a254.572,254.572,0,0,1-67.1,51.4l-11.4,6.1,56.9,98.7a439.952,439.952,0,0,1-166.084,50.765q.532-5.834,1.012-11.672c2.6-32.376,6.7-84.739,2-153.789a934.679,934.679,0,0,0-16.588-123.612l-31.477-117.516a545.969,545.969,0,0,1-139.7,253.019,537.275,537.275,0,0,0,140.4-157.087,826.378,826.378,0,0,1,3.4,148.293,829.316,829.316,0,0,1-28.28,163.723,440.758,440.758,0,0,1-183.578-52.224l56.7-98.1-10.9-6.2a308.531,308.531,0,0,1-67.3-51.9l-7.9-8.1-1.1,1.1-1.1-1-37.2,38.3a379.393,379.393,0,0,1-87.3-150.4l51.8-14.2-.3-1,2-.7-3.6-10.8c-.5-1.4-.9-2.8-1.4-4.2a238.5,238.5,0,0,1-10.2-80.1l.5-13.419h-114A439.491,439.491,0,0,1,557.945,824.9q5.841,4.149,11.728,8.235c26.795,18.5,70.087,48.2,132.275,78.7a957.97,957.97,0,0,0,115.379,47.5l117.578,31.5a547.031,547.031,0,0,1-149.372-247.7,536.2,536.2,0,0,0,65.887,200.2,813.805,813.805,0,0,1-130.175-71.3,827.885,827.885,0,0,1-130-108.728A440.722,440.722,0,0,1,730.213,627.557l56.7,98.1,10.8-6.3a311.571,311.571,0,0,1,78.6-32.3l11-2.8-.4-1.5,1.4-.4-14.6-51.3a379.783,379.783,0,0,1,173.9-.4l-12.9,49.3-.9,2.7,10.7,3.6c1.4.5,2.8.9,4.2,1.4a664.041,664.041,0,0,1,76.9,32.2l10.5,5.2,56.4-97.6a440.391,440.391,0,0,1,127.6,119.224q-7.71,3.523-15.377,7.157c-29.4,13.9-76.786,36.6-134.275,75.2a959.391,959.391,0,0,0-98.882,76.2l-86.184,86.1a545.76,545.76,0,0,1,289.146-5.5A536.318,536.318,0,0,0,1068.18,942.838ZM692.465,1468.623l-19.986-11.392-93.233,161.184c-72.448-45.167-166.98-122.212-239.528-244.624-76.545-129.008-97.53-255.317-100.528-344.953H425l-.1-23.3a505.89,505.89,0,0,1,18.5-137.8l5.9-21.3-1.8-.5.4-1.7-85.584-21.6a620.6,620.6,0,0,1,139.074-242.1l31.394,31.1a590.6,590.6,0,0,0-76.286,103l-10.2,17.5-1.4,1.3a1159.678,1159.678,0,0,0,92.792,76.755A464.606,464.606,0,0,0,496,1002.349v12.489l113.451.1a261.553,261.553,0,0,0,9,66.941l-52.877,14.487,3.2,11.989a403.315,403.315,0,0,0,105.954,182.439l8.9,8.892L722,1260.221c7.8,7.394,15.993,14.387,24.489,20.982a314.6,314.6,0,0,0,28.488,19.782L724.4,1388.508l-6.2,10.79L729,1405.493A467.328,467.328,0,0,0,928.524,1466.6c-6.973,22.61-15.312,46.294-25.31,70.673A544.943,544.943,0,0,1,692.465,1468.623Zm896.8-109.9c-73.474,130.853-172.438,212.224-248.511,259.707l-93.066-161.243-20.093,11.7a511.178,511.178,0,0,1-128.454,52.881l-21.392,5.5.5,1.8-1.7.5,24.091,84.87a620.576,620.576,0,0,1-279.1.6l11.2-42.785a599.3,599.3,0,0,0,127.255,14.6l20.067.1,1.8.6a1153.278,1153.278,0,0,0,20.349-121.461,468.716,468.716,0,0,0,192.2-60.411l10.8-6.2-56.675-98.257a284.633,284.633,0,0,0,32.786-22.59c7.2-5.8,14.193-11.894,20.89-18.392l38.783,38.284,8.8-8.8a403.1,403.1,0,0,0,105.053-183.02l3.2-12.194-53.377-13.494c2.4-10.4,4.4-20.991,5.8-31.586a308.2,308.2,0,0,0,2.9-34.585H1427v-12.289a464.733,464.733,0,0,0-45.9-201.438c21.376-4.714,44.091-8.852,68.01-12.073a543.719,543.719,0,0,1,45.891,216.9l.1,22.9,186.233.1A725.244,725.244,0,0,1,1589.266,1358.72Z"/><path class="cls-1" d="M1117.513,928.557a568.336,568.336,0,0,1,63.6,10c4.9,1.1,9.7,2.2,14.6,3.4a242.284,242.284,0,0,0-18.8-48.5Q1146.613,909.657,1117.513,928.557Z"/><path class="cls-1" d="M814.913,907.757a568.218,568.218,0,0,1-23.1-60.1c-1.5-4.7-3-9.5-4.4-14.3a244.126,244.126,0,0,0-32.6,40.5Q784.063,892.007,814.913,907.757Z"/><path class="cls-1" d="M979.513,1010.057l-7,7.7,35.1,131.1c6.1,30.5,10.8,61.5,14,92.6a243.744,243.744,0,0,0,182.5-236c0-5.5-.2-10.9-.6-16.3a528.484,528.484,0,0,0-213.3,17.8Z"/><path class="cls-1" d="M812.213,974.857c-29.5-9.9-58.7-21.4-87.2-34.2a244.26,244.26,0,0,0,127.6,283.8,526.211,526.211,0,0,0,91.2-193.7l2.6-10.8-3.2-9.9Z"/><path class="cls-1" d="M948.113,1180.157a556.449,556.449,0,0,1-40.4,50.1c-3.4,3.7-6.8,7.4-10.2,11a241.206,241.206,0,0,0,51.4,7.9C949.613,1226.257,949.413,1203.157,948.113,1180.157Z"/><path class="cls-1" d="M821.433,661.7c5.4-2.2,10.809-4.3,16.414-6.205l-15.213-53.745,28.324-7.707c1.4-.4,2.7-.7,4.1-1.1q-3.3-90.225-6.706-180.451a394.536,394.536,0,0,1,224.388,0q1.953,91.277,3.8,182.553l22.218,6-14.512,55.347c12.01,4.6,23.92,9.508,35.63,14.812L1139,638.176V365.247l-21.918-7.906a461.135,461.135,0,0,0-313.164,0L782,365.247V633.973L802.818,670C808.923,667,815.128,664.3,821.433,661.7Z"/><path class="cls-1" d="M1329.013,1031.838c-.5,6.8-1.3,13.6-2.2,20.3-.8,5.7-1.7,11.5-2.8,17.3l54.1,13.7-7.5,28.3c-.5,2-1.1,4.1-1.6,6.1l93.8,48.9a460.36,460.36,0,0,1-112.1,194.2l-95.8-52.2-14.1,14.1-39.3-38.8c-3.3,2.9-6.8,5.8-10.2,8.5-6.7,5.3-13.7,10.4-20.8,15.2l22.2,38.5,159.8,92.2,16.8-15.6a536.97,536.97,0,0,0,156.5-271l5.1-22.3-168.5-97.4Z"/><path class="cls-1" d="M752.413,1306.738c-5.6-3.9-11.1-7.9-16.5-12.1-4.6-3.6-9.1-7.2-13.5-11.1l-38.9,40.1-20.8-20.6-.8-.8-84.2,53.7a469.228,469.228,0,0,1-112.1-194.2l85.8-52.4-6.5-24.2,53.4-14.6a281.043,281.043,0,0,1-5.2-38.7h-34.7l-160.1,92.4,5.2,22.2a547.227,547.227,0,0,0,156.5,271l16.6,15.7,154.3-89.1Z"/><path class="cls-1" d="M916,836.188c-.1,2.694-.7,20.853,13.669,34.422A44.742,44.742,0,0,0,960.5,882.683c21.452-.2,33.924-15.864,35.221-17.66A46.113,46.113,0,0,0,1005,835.988l.1-85.607a61.954,61.954,0,1,0-89.1,0Zm11.409-165.257a48.547,48.547,0,0,1,69.922,67.005A47.167,47.167,0,0,1,991,744.267V838.02c0,2.312.1,15.375-9.948,24.519-11.054,10.049-29.342,10.752-41,1.105C928.9,854.4,929,840.131,929,838.02V744.267A48.62,48.62,0,0,1,927.409,670.931Z"/><path class="cls-1" d="M1111.686,850.738a209.586,209.586,0,0,0-98.686-56.1v41.1a54.587,54.587,0,0,1-11.021,34.2c-2.705,3.5-17.132,20.7-41.879,20.9h-.3a53.711,53.711,0,0,1-36.469-14.4c-16.03-15.2-16.531-34.8-16.331-40.7v-39.7a208.91,208.91,0,0,0-60.715,27.8,452.372,452.372,0,0,0,104.7,150.5l6.913,6.6,8.717,1.9,82.355-82.1Q1079.025,874.338,1111.686,850.738Z"/><path class="cls-1" d="M942,733.857v54.7l-.2,21.4a18.2,18.2,0,0,0,36.4,0c-.1-7.1-.2-14.3-.2-21.4-.1-18.4-.1-36.6,0-54.7a28.575,28.575,0,0,0,10.1-21.9,28.15,28.15,0,1,0-46.1,21.9Z"/></svg>