<?xml version="1.0" encoding="utf-8"?>
<!-- Generator: Adobe Illustrator 25.4.1, SVG Export Plug-In . SVG Version: 6.00 Build 0)  -->
<svg version="1.1" id="レイヤー_1" xmlns="http://www.w3.org/2000/svg" xmlns:xlink="http://www.w3.org/1999/xlink" x="0px"
	 y="0px" viewBox="0 0 1920 1920" style="enable-background:new 0 0 1920 1920;" xml:space="preserve">
<style type="text/css">
	.st0{fill:#FFFFFF;}
	.st1{fill:#DFE0E0;}
	.st2{fill:#DFDFE0;}
</style>
<path d="M286.3,961.3c-3.1-214.2,142.6-416,363.4-473.9c68.1-17.9,137-20.1,206.4-8.7c11.2,1.9,21.7-1.7,32.5-3
	c141.4-16.3,268.2,18.8,377.5,110.3c94.6,79.1,150.9,180.9,169.2,302.9c32.4,216.2-85.8,429.1-286.1,517
	c-66.8,29.3-136.7,42.7-209.5,41.6c-18-0.2-36-1.9-53.7-5.2c-16.5-3.1-32.5-1.8-48.9,0.4c-98.4,13.7-192.5-2.1-280.8-46.8
	c-130.8-66.3-215.7-171.3-254.8-312.8C290.4,1042.7,285.1,1001.4,286.3,961.3z"/>
<path d="M1478.5,473.4c-1.2,0.6-2.3,1.3-3.4,2.1c-44.6,44.5-89.1,89-133.6,133.6c-2.6,2.7-3.9,2-6.1-0.3
	c-7.2-7.4-14.4-14.7-21.9-21.9c-2.5-2.4-2.3-3.8,0.1-6.1c44.6-44.5,89.1-89,133.6-133.6c1.6-1.6,2.7-3.2,5.1-0.7
	c7.8,8,15.8,15.9,23.7,23.8C1476.7,471,1477.2,471.8,1478.5,473.4z"/>
<path d="M1345.4,1307c1,1,1.9,1.8,2.8,2.7c44.6,44.6,89.2,89.2,133.8,133.7c2.4,2.4,2,3.6-0.1,5.6c-7.6,7.4-15,14.8-22.4,22.4
	c-2.1,2.2-3.3,2.4-5.7,0.1c-44.5-44.7-89.1-89.3-133.7-133.8c-1.5-1.5-3.5-2.6-0.9-5.1c8-7.8,15.9-15.8,23.8-23.7
	C1343.9,1308.2,1344.6,1307.6,1345.4,1307z"/>
<path d="M933.6,350.8c0-31,0.1-62-0.1-92.9c0-5.1,1.4-6.2,6.2-6c9.4,0.4,18.9,0.3,28.3,0c3.7-0.1,5.3,0.3,5.3,4.8
	c-0.2,62.8-0.2,125.7,0,188.5c0,3.9-1.2,4.7-4.8,4.6c-9.9-0.2-19.8-0.3-29.7,0c-4.5,0.2-5.3-1.4-5.3-5.5
	C933.7,413.2,933.6,382,933.6,350.8z"/>
<path d="M1578.3,960c31,0,62,0.1,92.9-0.1c4.9,0,6.3,1.1,6.1,6.1c-0.5,9.2-0.4,18.5,0,27.7c0.2,5-1.1,6.1-6.1,6.1
	c-46.4-0.2-92.7-0.1-139.1-0.1c-16,0-32.1-0.1-48.1,0.1c-3.7,0-4.8-0.9-4.7-4.7c0.3-9.9,0.3-19.8,0-29.7c-0.1-4.3,1.1-5.4,5.4-5.4
	C1515.9,960.1,1547.1,960,1578.3,960z"/>
<path d="M973.2,1569.1c0,31-0.1,62,0.1,92.9c0,4.9-1.1,6.3-6.1,6.1c-9.2-0.5-18.5-0.4-27.7,0c-5,0.2-6.1-1.2-6.1-6.1
	c0.2-46.4,0.1-92.7,0.1-139.1c0-16,0.1-32.1-0.1-48.1c0-3.7,1-4.8,4.7-4.7c9.9,0.3,19.8,0.3,29.7,0c4.3-0.1,5.4,1.1,5.4,5.4
	C973.1,1506.7,973.2,1537.9,973.2,1569.1z"/>
<path class="st0" d="M800.4,495.7C720.7,522.3,652,566.1,595,627.8C525.1,703.6,482.7,792.6,469.3,895
	c-26.9,205.6,76.2,402.7,260.2,498.2c22.8,11.8,46.5,21.7,70.9,29.7c0.2,3.3-3.1,0.8-3.9,2.4c-96.7,4.7-186.7-17.6-268.5-69.2
	c-118.1-74.5-190.1-181.2-214.7-318.7C282.5,864.8,355.5,686,497.9,582.7c87.8-63.7,186.1-93.6,294.7-89.6c1.3,0,2.6,0.2,3.9,0.3
	C797.3,494.9,800.6,492.5,800.4,495.7z"/>
<path class="st1" d="M800.4,495.7l-3.9-2.4c0.8-0.1,1.7-0.2,2.5-0.2c1.7,0,3.4,0.2,5.5,0.3C803.9,495.1,802.2,496,800.4,495.7z"/>
<path class="st2" d="M796.5,1425.3l3.9-2.4c1.7-0.4,2.7,0.7,4,2.4H796.5z"/>
</svg>
