<?xml version="1.0" encoding="utf-8"?>
<svg id="レイヤー_1" data-name="レイヤー 1" xmlns="http://www.w3.org/2000/svg" width="1920" height="1920" viewBox="0 0 1920 1920"><defs><style>.cls-1{fill:#241917;}.cls-2{fill:#241a17;}.cls-3{fill:#fff;}.cls-4{fill:#dfe0e0;}.cls-5{fill:#dfdfe0;}</style></defs><path class="cls-1" d="M286.306,961.282c-3.123-214.233,142.643-416.012,363.43-473.9,68.14-17.865,137.042-20.15,206.437-8.71,11.23,1.852,21.741-1.738,32.532-2.979,141.388-16.269,268.16,18.812,377.546,110.316,94.572,79.112,150.886,180.852,169.182,302.885,32.413,216.194-85.758,429.109-286.123,516.992-66.806,29.3-136.742,42.71-209.524,41.644a312.424,312.424,0,0,1-53.733-5.186c-16.526-3.145-32.51-1.83-48.872.446-98.426,13.689-192.5-2.09-280.751-46.835-130.822-66.329-215.723-171.327-254.82-312.822C290.446,1042.729,285.054,1001.4,286.306,961.282Z"/><path class="cls-2" d="M1478.512,473.437a17,17,0,0,0-3.352,2.07q-66.851,66.752-133.567,133.638c-2.644,2.655-3.928,2-6.124-.265-7.173-7.41-14.439-14.738-21.893-21.862-2.54-2.427-2.269-3.767.1-6.125q66.9-66.7,133.641-133.563c1.586-1.588,2.714-3.235,5.145-.72,7.777,8.046,15.781,15.872,23.68,23.8C1476.743,471.016,1477.207,471.76,1478.512,473.437Z"/><path class="cls-2" d="M1345.414,1307.028c1.005.959,1.935,1.809,2.826,2.7q66.885,66.879,133.827,133.7c2.387,2.378,2.046,3.573-.082,5.647q-11.328,11.038-22.369,22.372c-2.1,2.154-3.3,2.414-5.652.052q-66.754-67.008-133.7-133.825c-1.482-1.483-3.537-2.594-.916-5.132,8.047-7.8,15.888-15.8,23.825-23.712A28.281,28.281,0,0,1,1345.414,1307.028Z"/><path class="cls-2" d="M933.631,350.782c0-30.978.143-61.958-.142-92.934-.047-5.12,1.425-6.16,6.181-5.964,9.432.389,18.894.261,28.336.041,3.666-.085,5.308.341,5.3,4.8q-.26,94.253-.029,188.505c.008,3.867-1.215,4.694-4.807,4.61-9.881-.231-19.781-.344-29.653.039-4.528.175-5.291-1.409-5.27-5.508C933.7,413.178,933.631,381.98,933.631,350.782Z"/><path class="cls-2" d="M1578.341,960c30.978,0,61.957.123,92.934-.127,4.9-.04,6.329,1.083,6.084,6.063-.453,9.2-.448,18.464,0,27.67.241,4.957-1.148,6.1-6.071,6.073-46.356-.212-92.714-.126-139.072-.126-16.038,0-32.078-.115-48.114.086-3.708.047-4.824-.948-4.725-4.7.262-9.88.317-19.778-.017-29.654-.146-4.318,1.092-5.414,5.39-5.388C1515.945,960.089,1547.143,960,1578.341,960Z"/><path class="cls-2" d="M973.184,1569.115c0,30.979-.124,61.958.127,92.934.04,4.909-1.091,6.325-6.066,6.081-9.205-.451-18.464-.449-27.67,0-4.963.242-6.092-1.157-6.07-6.074.211-46.356.126-92.714.126-139.072,0-16.038.115-32.078-.086-48.114-.047-3.712.955-4.821,4.7-4.722,9.88.261,19.779.318,29.654-.018,4.324-.147,5.412,1.1,5.385,5.393C973.1,1506.719,973.184,1537.917,973.184,1569.115Z"/><path class="cls-3" d="M800.411,495.748c-79.695,26.579-148.461,70.352-205.4,132.1-69.863,75.765-112.275,164.8-125.685,267.129-26.944,205.6,76.165,402.749,260.172,498.216a485.266,485.266,0,0,0,70.9,29.737c.228,3.307-3.075.8-3.9,2.368-96.658,4.7-186.741-17.618-268.5-69.206-118.067-74.5-190.127-181.221-214.7-318.748-30.831-172.571,42.163-351.313,184.6-454.682q131.754-95.619,294.676-89.6c1.313.046,2.622.2,3.933.309C797.338,494.941,800.629,492.45,800.411,495.748Z"/><path class="cls-4" d="M800.411,495.748,796.5,493.38a22.432,22.432,0,0,1,2.55-.224c1.716.036,3.43.17,5.487.282A3.824,3.824,0,0,1,800.411,495.748Z"/><path class="cls-5" d="M796.5,1425.3l3.9-2.368c1.663-.368,2.741.706,3.96,2.368Z"/></svg>