<?xml version="1.0" encoding="UTF-8" standalone="no"?>
<svg id="完成形" xmlns="http://www.w3.org/2000/svg" xmlns:xlink="http://www.w3.org/1999/xlink" width="1873.7" height="1840.406" viewBox="0 0 1873.7 1840.406"><defs><style>.cls-1{fill:url(#名称未設定グラデーション);}</style><linearGradient id="名称未設定グラデーション" x1="453.997" y1="279.843" x2="454.021" y2="279.843" gradientTransform="matrix(1, 0, 0, -1, -23.15, 1802.857)" gradientUnits="userSpaceOnUse"><stop offset="0" stop-color="#bf272d"/><stop offset="0.531" stop-color="#77272d"/><stop offset="1" stop-color="#c1272d"/></linearGradient></defs><path class="cls-1" d="M430.871,1523.172s-.017-.3-.021-.315A2.075,2.075,0,0,0,430.871,1523.172Z"/><path d="M1080.84,290.047c-44.926,15.6-28.866,95.395-62.9,202.472-18.8,59.144-48.6,113.152-81.086,159.811-32.485-46.659-62.286-100.667-81.086-159.811-34.04-107.077-17.979-186.872-62.905-202.472-38.181-13.256-85.687,31.607-102.218,46.195C614.622,403.33,455.7,476.235,86.174,488.592a380.455,380.455,0,0,0,58.971,52.092c90.505,64.522,205.424,85.5,205.424,85.506s65.29-38.3,139.567-63.88c9.736-3.355,11.352-3.639,11.795-2.948,6.522,10.156-260.465,199.2-349.9,230.974-3.563,1.266-18.226,6.327-17.693,8.846,1.083,5.1,63.725-3.665,101.237-9.829,116.637-19.166,221.146-51.111,221.146-51.108s92.079-54.566,164.139-96.323c2.967-1.719,8.165-4.8,8.847-3.93,4.4,5.591-188.688,165.1-188.715,165.115.013-.011,77.662,7.381,138.585-2.948,6.246-1.06,39.314-6.883,39.314-6.881s21.452-37.687,33.418-71.749a262.623,262.623,0,0,0,13.765-64.871c.039.127.067.217.1.337,0,0,11.6,37.909-8.954,108.762,0,0,38.24-55.461,63.887-122.858,17.733-46.6,26.647-59.6,40.3-61.921,12.232-2.081,23.253,6.539,28.5,10.811C811.827,609.64,857,652.755,902.855,697.6A626.906,626.906,0,0,1,752.618,833.443Q827.857,901.512,904.7,975.637q4.976,4.811,9.919,9.61-23.847,24.471-50.722,48.5-22.956,20.447-45.749,38.329a1439.231,1439.231,0,0,1,69.243,217.612s28.219,121.908,49.458,403.082c0-.058-1.2-184.589-17.31-338.786a2049.461,2049.461,0,0,0-49.458-280.674q32.742-33.053,66.768-66.391,34.014,33.329,66.768,66.391a2049.461,2049.461,0,0,0-49.458,280.674c-16.107,154.206-17.31,338.733-17.31,338.792,21.24-281.18,49.458-403.082,49.458-403.082a1439.223,1439.223,0,0,1,69.241-217.615q-22.743-17.918-45.749-38.329-26.913-23.966-50.722-48.5,4.946-4.8,9.919-9.61,76.755-74.154,152.083-142.193A626.878,626.878,0,0,1,970.843,697.6c45.859-44.845,91.032-87.96,112.945-105.811,5.247-4.276,16.272-12.892,28.5-10.811,13.651,2.321,22.565,15.324,40.3,61.921,25.647,67.392,63.88,122.851,63.887,122.858C1195.926,694.9,1207.523,657,1207.523,657c.036-.12.064-.21.1-.337a262.623,262.623,0,0,0,13.765,64.871c11.966,34.058,33.417,71.746,33.418,71.749s33.068,5.821,39.315,6.881c60.922,10.329,138.571,2.94,138.585,2.948-.027-.014-193.111-159.524-188.711-165.122.68-.866,5.88,2.212,8.845,3.93,72.057,41.757,164.142,96.32,164.139,96.323s104.507,31.94,221.147,51.108c37.511,6.165,100.154,14.93,101.236,9.829.535-2.519-14.13-7.58-17.692-8.846-89.431-31.777-356.419-220.824-349.9-230.974.444-.691,2.06-.4,11.8,2.948,74.278,25.591,139.568,63.88,139.568,63.88s114.916-20.982,205.419-85.51a380.377,380.377,0,0,0,58.973-52.092C1418,476.228,1259.078,403.319,1183.06,336.231,1166.527,321.654,1119.021,276.791,1080.84,290.047ZM1037.594,831.61A1024.674,1024.674,0,0,1,936.849,961.686,1024.674,1024.674,0,0,1,836.1,831.61c3.762-3.8,48.962-49.447,100.745-100.591C988.632,782.165,1033.832,827.808,1037.594,831.61Z"/></svg>