<?xml version="1.0" encoding="utf-8"?>
<!-- Generator: Adobe Illustrator 25.4.1, SVG Export Plug-In . SVG Version: 6.00 Build 0)  -->
<svg version="1.1" id="完成形" xmlns="http://www.w3.org/2000/svg" xmlns:xlink="http://www.w3.org/1999/xlink" x="0px" y="0px"
	 viewBox="0 0 1873.7 1840.4" style="enable-background:new 0 0 1873.7 1840.4;" xml:space="preserve">
<style type="text/css">
	.st0{fill:url(#SVGID_1_);}
</style>
<linearGradient id="SVGID_1_" gradientUnits="userSpaceOnUse" x1="453.997" y1="1640.1575" x2="454.021" y2="1640.1575" gradientTransform="matrix(1 0 0 1 -23.15 -117.1429)">
	<stop  offset="0" style="stop-color:#BF272D"/>
	<stop  offset="0.531" style="stop-color:#77272D"/>
	<stop  offset="1" style="stop-color:#C1272D"/>
</linearGradient>
<path class="st0" d="M430.9,1523.2c0,0,0-0.3,0-0.3C430.8,1523,430.9,1523.1,430.9,1523.2z"/>
<path d="M1064.6,448.3c-39.9,13.8-25.6,84.6-55.8,179.6c-16.7,52.5-43.1,100.4-71.9,141.8c-28.8-41.4-55.3-89.3-71.9-141.8
	c-30.2-95-16-165.8-55.8-179.6c-33.9-11.8-76,28-90.7,41C651,548.8,510,613.5,182.1,624.5c15.8,17.2,33.3,32.7,52.3,46.2
	c80.3,57.2,182.2,75.9,182.2,75.9c0,0,57.9-34,123.8-56.7c8.6-3,10.1-3.2,10.5-2.6c5.8,9-231.1,176.7-310.4,204.9
	c-3.2,1.1-16.2,5.6-15.7,7.8c1,4.5,56.5-3.3,89.8-8.7c103.5-17,196.2-45.3,196.2-45.3c0,0,81.7-48.4,145.6-85.5
	c2.6-1.5,7.2-4.3,7.8-3.5c3.9,5-167.4,146.5-167.4,146.5c0,0,68.9,6.5,122.9-2.6c5.5-0.9,34.9-6.1,34.9-6.1s19-33.4,29.6-63.7
	c6.5-18.6,10.6-37.9,12.2-57.6c0,0.1,0.1,0.2,0.1,0.3c0,0,10.3,33.6-7.9,96.5c0,0,33.9-49.2,56.7-109c15.7-41.3,23.6-52.9,35.8-54.9
	c10.9-1.8,20.6,5.8,25.3,9.6c19.4,15.8,59.5,54.1,100.2,93.9c-37.6,47.1-82.6,87.8-133.3,120.5c44.5,40.3,89.5,82.3,134.9,126.2
	c2.9,2.8,5.9,5.7,8.8,8.5c-14.1,14.5-29.1,28.8-45,43c-13.6,12.1-27.1,23.4-40.6,34c25.6,62.6,46.1,127.2,61.4,193.1
	c0,0,25,108.2,43.9,357.6c0-0.1-1.1-163.8-15.4-300.6c-8.8-83.9-23.5-167.1-43.9-249c19.4-19.5,39.1-39.2,59.2-58.9
	c20.1,19.7,39.9,39.3,59.2,58.9c-20.4,81.9-35,165.1-43.9,249c-14.3,136.8-15.4,300.5-15.4,300.6c18.8-249.5,43.9-357.6,43.9-357.6
	c15.3-65.9,35.9-130.4,61.4-193.1c-13.5-10.6-27-21.9-40.6-34c-15.9-14.2-30.9-28.5-45-43c2.9-2.8,5.9-5.7,8.8-8.5
	c45.4-43.9,90.4-85.9,134.9-126.2c-50.7-32.7-95.7-73.4-133.3-120.5c40.7-39.8,80.8-78,100.2-93.9c4.7-3.8,14.4-11.4,25.3-9.6
	c12.1,2.1,20,13.6,35.8,54.9c22.8,59.8,56.7,109,56.7,109c-18.2-62.9-7.9-96.5-7.9-96.5c0-0.1,0.1-0.2,0.1-0.3
	c1.6,19.6,5.7,39,12.2,57.6c10.6,30.2,29.6,63.7,29.6,63.7c0,0,29.3,5.2,34.9,6.1c54,9.2,122.9,2.6,122.9,2.6
	c0,0-171.3-141.5-167.4-146.5c0.6-0.8,5.2,2,7.8,3.5c63.9,37,145.6,85.5,145.6,85.5c0,0,92.7,28.3,196.2,45.3
	c33.3,5.5,88.9,13.2,89.8,8.7c0.5-2.2-12.5-6.7-15.7-7.8c-79.3-28.2-316.2-195.9-310.4-204.9c0.4-0.6,1.8-0.4,10.5,2.6
	c65.9,22.7,123.8,56.7,123.8,56.7s102-18.6,182.2-75.9c19-13.6,36.5-29,52.3-46.2c-327.8-11-468.8-75.6-536.3-135.2
	C1140.6,476.3,1098.5,436.5,1064.6,448.3z M1026.2,928.8c-26.7,40.8-56.5,79.4-89.4,115.4c-32.8-36-62.7-74.6-89.4-115.4
	c3.3-3.4,43.4-43.9,89.4-89.2C982.8,884.9,1022.9,925.4,1026.2,928.8z"/>
</svg>
