<?xml version="1.0" encoding="utf-8"?>
<svg id="レイヤー_1" data-name="レイヤー 1" xmlns="http://www.w3.org/2000/svg" width="1920" height="1920" viewBox="0 0 1920 1920"><path d="M1446.088,543.067q-27.136-8.193-55.013-14.142-5.951-27.843-14.142-55.013a661.254,661.254,0,0,0-47.7-116.818,597.461,597.461,0,0,0-68.6-103.828l-5.02,3.123q15.864,25.947,29.507,53.144,13.662,27.149,25.018,55.36a720.441,720.441,0,0,1,35.616,115.964q4.481,20.438,7.758,41.107a711,711,0,0,0-161.076-6.773,726.674,726.674,0,0,0-127.869,20.68c-20.991,5.406-41.818,11.612-62.3,18.887l-7.667,2.765c-2.554.927-5.121,1.826-7.649,2.822l-7.613,2.925c-2.537.978-5.083,1.936-7.592,2.985l-7.542,3.114q-2.056.852-4.112,1.71a728.088,728.088,0,0,0-232.524-56.031c-21.5-1.567-43.035-2.052-64.507-1.7-21.475.458-42.891,1.771-64.156,4.142q-16.264,1.788-32.4,4.327,3.28-20.583,7.736-40.961A720.415,720.415,0,0,1,609.861,364.9q11.329-28.185,25.017-55.36,13.621-27.17,29.5-53.146l-5.02-3.123a596.314,596.314,0,0,0-68.667,103.8,660.832,660.832,0,0,0-47.748,116.821q-8.188,27.09-14.137,54.924-27.8,5.949-54.924,14.137A660.832,660.832,0,0,0,357.065,590.7a596.2,596.2,0,0,0-103.8,68.667l3.123,5.02q25.947-15.862,53.146-29.5,27.147-13.662,55.36-25.016a720.427,720.427,0,0,1,115.964-35.612q20.364-4.466,40.96-7.736-2.535,16.129-4.327,32.4c-2.371,21.265-3.684,42.681-4.141,64.156-.355,21.472.13,43.01,1.7,64.507A728.093,728.093,0,0,0,571.037,960a728.066,728.066,0,0,0-55.989,232.424c-1.567,21.5-2.052,43.035-1.7,64.507.458,21.475,1.771,42.891,4.142,64.156q1.788,16.265,4.327,32.4-20.583-3.281-40.961-7.736A720.446,720.446,0,0,1,364.9,1310.139q-28.185-11.329-55.36-25.017-27.17-13.622-53.146-29.5l-3.123,5.02a596.314,596.314,0,0,0,103.8,68.667,660.832,660.832,0,0,0,116.821,47.748q27.09,8.188,54.924,14.137,5.949,27.8,14.137,54.924A660.832,660.832,0,0,0,590.7,1562.935a596.257,596.257,0,0,0,68.667,103.8l5.02-3.123q-15.862-25.947-29.5-53.146-13.663-27.147-25.017-55.36a720.427,720.427,0,0,1-35.612-115.964q-4.466-20.364-7.736-40.96,16.129,2.535,32.4,4.327c21.265,2.371,42.681,3.684,64.156,4.141,21.472.355,43.01-.13,64.507-1.7A728.075,728.075,0,0,0,960.1,1348.92c1.368.576,2.74,1.143,4.111,1.711l7.542,3.114c2.509,1.049,5.055,2.006,7.592,2.985l7.613,2.925c2.528,1,5.1,1.895,7.649,2.822l7.667,2.765c20.479,7.275,41.306,13.481,62.3,18.887a726.674,726.674,0,0,0,127.869,20.68,711,711,0,0,0,161.076-6.773q-3.286,20.657-7.758,41.107a720.441,720.441,0,0,1-35.616,115.964q-11.33,28.185-25.018,55.36-13.623,27.166-29.507,53.144l5.02,3.123a597.461,597.461,0,0,0,68.6-103.828,661.233,661.233,0,0,0,47.7-116.819q8.193-27.135,14.142-55.012,27.843-5.951,55.013-14.142a661.254,661.254,0,0,0,116.818-47.7,597.461,597.461,0,0,0,103.828-68.6l-3.123-5.02q-25.947,15.864-53.144,29.507-27.149,13.662-55.36,25.018a720.441,720.441,0,0,1-115.964,35.616q-20.436,4.481-41.107,7.758a711,711,0,0,0,6.773-161.076,726.674,726.674,0,0,0-20.68-127.869c-5.406-20.991-11.612-41.819-18.887-62.3l-2.765-7.667c-.927-2.554-1.826-5.121-2.822-7.649l-2.925-7.613c-.978-2.537-1.936-5.083-2.985-7.592l-3.114-7.542c-.582-1.4-1.163-2.81-1.754-4.212.591-1.4,1.172-2.807,1.754-4.212l3.114-7.542c1.049-2.509,2.006-5.055,2.985-7.592l2.925-7.613c1-2.528,1.895-5.1,2.822-7.649l2.765-7.667c7.275-20.479,13.481-41.306,18.887-62.3a726.674,726.674,0,0,0,20.68-127.869,711,711,0,0,0-6.773-161.076q20.657,3.287,41.107,7.758a720.441,720.441,0,0,1,115.964,35.616q28.185,11.33,55.36,25.018,27.166,13.623,53.144,29.507l3.123-5.02a597.461,597.461,0,0,0-103.828-68.595A661.254,661.254,0,0,0,1446.088,543.067Zm-217.45,318.838A718.866,718.866,0,0,1,1287.2,960a721.447,721.447,0,0,1-327.2,327.194A721.461,721.461,0,0,1,632.809,960,721.373,721.373,0,0,1,959.994,632.806a724.324,724.324,0,0,1,268.644,229.1ZM572.112,781.962q-6.051-29.7-9.626-59.841a729.3,729.3,0,0,1-1.164-160.8,729.242,729.242,0,0,1,160.8,1.164q30.108,3.568,59.841,9.626,29.706,6.019,58.852,14.436,26.306,7.62,51.98,17.214A738.53,738.53,0,0,0,828.18,643.8c-17.953,12.434-35.293,25.755-52.1,39.718-16.761,14.015-32.871,28.8-48.365,44.2q-23.14,23.2-44.231,48.339-20.966,25.191-39.742,52.083c-1.587,2.221-3.09,4.5-4.614,6.765l-4.561,6.8c-1.539,2.255-3,4.561-4.471,6.859l-4.414,6.894c-1.489,2.286-2.9,4.62-4.325,6.949l-4.265,6.984c-1.437,2.318-2.813,4.674-4.168,7.041l-4.083,7.09q-2.591,4.573-5.116,9.182-9.56-25.61-17.18-51.891Q578.109,811.708,572.112,781.962Zm209.85,565.926q-29.7,6.051-59.841,9.626a729.3,729.3,0,0,1-160.8,1.164,729.242,729.242,0,0,1,1.164-160.8q3.568-30.108,9.626-59.841,6.019-29.706,14.437-58.852,7.605-26.259,17.18-51.891,2.532,4.6,5.116,9.182l4.083,7.09c1.355,2.367,2.731,4.723,4.168,7.041l4.265,6.984c1.422,2.329,2.836,4.663,4.325,6.949l4.414,6.894c1.473,2.3,2.932,4.6,4.471,6.859l4.561,6.8c1.524,2.265,3.027,4.544,4.614,6.765q18.719,26.885,39.742,52.083,21.09,25.084,44.231,48.339c15.494,15.4,31.6,30.185,48.365,44.2,16.8,13.963,34.143,27.284,52.1,39.718a738.53,738.53,0,0,0,64.614,40.039q-25.653,9.579-51.98,17.213Q811.708,1341.892,781.962,1347.888ZM1347.9,1138.036q6.053,29.7,9.626,59.842a729.244,729.244,0,0,1,1.159,160.806,729.183,729.183,0,0,1-160.806-1.16q-30.108-3.567-59.842-9.625-29.7-6.04-58.851-14.444-26.262-7.605-51.9-17.181,4.608-2.533,9.188-5.119l7.09-4.083c2.367-1.355,4.723-2.731,7.041-4.168l6.984-4.265c2.329-1.422,4.663-2.836,6.949-4.325l6.894-4.414c2.3-1.473,4.6-2.932,6.859-4.471l6.8-4.561c2.265-1.524,4.544-3.027,6.765-4.614q26.885-18.718,52.083-39.742,25.084-21.09,48.339-44.231c15.4-15.494,30.185-31.6,44.2-48.365,13.963-16.8,27.284-34.143,39.718-52.1a738.362,738.362,0,0,0,40.042-64.62q9.581,25.656,17.215,51.985Q1341.9,1108.289,1347.9,1138.036Zm9.625-415.914q-3.567,30.108-9.625,59.842-6.04,29.7-14.443,58.851-7.62,26.307-17.215,51.984A738.5,738.5,0,0,0,1276.2,828.18c-12.434-17.953-25.755-35.293-39.718-52.1-14.015-16.761-28.8-32.871-44.2-48.365q-23.2-23.14-48.339-44.231-25.191-20.966-52.083-39.742c-2.221-1.587-4.5-3.09-6.765-4.614l-6.8-4.561c-2.255-1.539-4.561-3-6.859-4.471l-6.894-4.414c-2.286-1.489-4.62-2.9-6.949-4.325l-6.984-4.265c-2.318-1.437-4.674-2.813-7.041-4.168l-7.09-4.083q-4.577-2.592-9.188-5.119,25.612-9.561,51.9-17.182,29.1-8.443,58.851-14.443,29.7-6.052,59.842-9.625a729.183,729.183,0,0,1,160.806-1.16A729.183,729.183,0,0,1,1357.524,722.122Z"/><polygon points="728.635 1191.357 792.962 1222.199 960.354 960.354 697.86 1127.097 728.635 1191.357"/><polygon points="792.648 697.545 728.32 728.388 697.545 792.648 960.039 959.391 792.648 697.545"/><polygon points="1127.352 1222.455 1191.612 1191.68 1222.455 1127.352 960.788 960.076 1222.199 792.962 1191.357 728.635 1127.097 697.86 960.354 960.354 960.713 960.124 1127.352 1222.455"/></svg>