<?xml version="1.0" encoding="utf-8"?>
<!-- Generator: Adobe Illustrator 26.2.1, SVG Export Plug-In . SVG Version: 6.00 Build 0)  -->
<svg version="1.1" id="レイヤー_1" xmlns="http://www.w3.org/2000/svg" xmlns:xlink="http://www.w3.org/1999/xlink" x="0px"
	 y="0px" viewBox="0 0 1500 1500" style="enable-background:new 0 0 1500 1500;" xml:space="preserve">
<style type="text/css">
	.st0{fill:#C1272D;}
	.st1{fill:#9A272D;}
</style>
<path class="st0" d="M750,1204.15c-51.43,0-101.79-8.82-149.67-26.2c-46.27-16.8-89.16-41.18-127.48-72.46l-4.69-3.83H167.13
	l150.66-260.94l-0.94-5.95c-3.61-22.76-5.44-46.05-5.44-69.22c0-90.57,27.37-177.5,79.15-251.39
	c50.64-72.26,120.78-127.04,202.84-158.42l5.63-2.15L750,92.09l150.97,261.49l5.63,2.15c82.06,31.38,152.2,86.16,202.84,158.42
	c51.78,73.89,79.15,160.82,79.15,251.39c0,23.17-1.83,46.45-5.44,69.22l-0.94,5.95l150.66,260.94h-301.02l-4.69,3.83
	c-38.32,31.28-81.21,55.66-127.48,72.46C851.79,1195.33,801.43,1204.15,750,1204.15z M498.77,1073.72
	c34.74,28.36,73.61,50.46,115.55,65.68c43.39,15.75,89.04,23.74,135.68,23.74c46.64,0,92.29-7.99,135.68-23.74
	c41.93-15.22,80.81-37.32,115.55-65.68l16.01-13.07h244.62l-122.41-212.02l3.22-20.29c3.27-20.65,4.93-41.78,4.93-62.8
	c0-82.11-24.8-160.9-71.73-227.86c-22.63-32.3-49.86-61.01-80.93-85.35c-31.33-24.54-65.98-44.16-102.98-58.31l-19.22-7.35
	L750,174.09L627.26,386.68l-19.22,7.35c-37,14.15-71.65,33.77-102.98,58.31c-31.07,24.33-58.3,53.05-80.93,85.35
	c-46.92,66.96-71.73,145.76-71.73,227.86c0,21.02,1.66,42.15,4.93,62.8l3.22,20.29l-122.41,212.02h244.62L498.77,1073.72z
	 M1104.37,445.47l100.82,174.62L1306,445.47H1104.37z M1143.89,468.29h122.59l-61.3,106.17L1143.89,468.29z M295.02,619.28
	l100.69-174.39H194.33L295.02,619.28z M295.02,573.65L233.85,467.7h122.33L295.02,573.65z M749.66,1407.91l100.69-174.39H648.97
	L749.66,1407.91z M749.66,1362.28l-61.17-105.94h122.33L749.66,1362.28z M717.37,1273.01h64.57l-32.29,55.92L717.37,1273.01z
	 M1172.77,484.96h64.83l-32.42,56.15L1172.77,484.96z M262.73,484.38h64.57l-32.29,55.92L262.73,484.38z M1074.78,860.62l6.65-41.98
	c2.76-17.45,4.17-35.31,4.17-53.09c0-69.31-20.92-135.8-60.5-192.28c-19.12-27.29-42.13-51.55-68.38-72.12
	c-26.45-20.72-55.68-37.27-86.89-49.21l-39.77-15.21L750,298.09l-80.05,138.65l-39.77,15.21c-31.21,11.93-60.44,28.49-86.89,49.21
	c-26.25,20.56-49.26,44.83-68.38,72.12c-39.58,56.48-60.5,122.97-60.5,192.28c0,17.78,1.4,35.65,4.17,53.09l6.65,41.98l-79.7,138.04
	h159.33l33.12,27.04c29.33,23.94,62.13,42.59,97.5,55.43c36.59,13.28,75.12,20.02,114.52,20.02s77.94-6.74,114.52-20.02
	c35.37-12.84,68.17-31.49,97.5-55.43l33.13-27.04h159.33L1074.78,860.62z M964.69,943.09l15.51-26.87L749.59,783.07l-41.26,23.82
	L903.9,919.58c3.8,2.19,6.34,6.06,6.83,10.41c0.49,4.36-1.12,8.69-4.33,11.67c-20.51,19.02-77.21,63.23-160.43,62.96
	c-50.95-0.16-91.52-17.15-118.64-33.32l-11.41,17.43l-31.01-61.46l68.73,3.86l-11.16,17.04c23.94,14.11,59.36,28.69,103.59,28.83
	c58.73,0.19,102.52-24.77,126.95-43.36L680.7,822.85l-161.73,93.37l15.51,26.87l-93.2-0.01l46.59-80.71l15.51,26.87l230.62-133.15
	v-47.64L539.07,821.23c-3.8,2.2-8.41,2.46-12.43,0.71c-4.02-1.75-6.97-5.31-7.94-9.59c-6.22-27.28-16.16-98.48,25.69-170.41
	c25.62-44.04,60.61-70.69,88.18-86.09l-9.39-18.6l68.73,3.87l-37.71,57.59l-9.18-18.19c-24.19,13.68-54.52,37.06-76.77,75.29
	c-29.53,50.77-29.81,101.17-25.92,131.62l191.68-110.89V489.8h-31.02l46.61-80.71l46.6,80.71h-31.03v266.3l41.7,24.07l-0.2-225.72
	c0-4.39,2.08-8.51,5.61-11.12c3.53-2.61,8.09-3.38,12.28-2.09c26.73,8.25,93.37,35.25,134.74,107.45
	c25.33,44.21,30.91,87.83,30.46,119.41l20.8,1.17l-37.72,57.59l-31.02-61.45l20.34,1.14c0.24-27.79-4.83-65.75-26.82-104.13
	c-29.2-50.96-72.71-76.4-101.03-88.26l0.2,221.95l161.29,93.12l15.51-26.87l46.59,80.72L964.69,943.09z"/>
<path class="st1" d="M1015.41,869.5l65.98-157.23c2.78,17.49,4.2,35.29,4.2,53.28c0,17.78-1.4,35.65-4.17,53.09l-6.65,41.98
	l45.21,78.31l-25.07,59.73h-99.77l-33.13,27.04c-5.82,4.75-11.78,9.28-17.87,13.61l40.38-96.22l73.36,0L1015.41,869.5z
	 M498.77,1073.72l-16.01-13.07h-53.38l-17.21,41h55.98l4.69,3.83c12.29,10.03,25.06,19.35,38.26,27.94l16.16-38.5
	C517.49,1088.3,507.98,1081.24,498.77,1073.72z M691.91,541.12l-37.71,57.59l-9.18-18.19c-6.13,3.47-12.65,7.56-19.33,12.35
	l-81.11,193.27l148.26-85.77l41.17-98.1V489.8h-31.02l46.61-80.71l37.92,65.68l27.15-64.69L750,298.09l-2.22,3.85l-99.35,236.73
	L691.91,541.12z M584.9,927.28l12.42,0.7l31.56-75.21l-109.92,63.46l15.51,26.87l-55.76-0.01l-23.32,55.57h49.46l33.12,27.04
	c4.53,3.7,9.15,7.25,13.84,10.7l40.02-95.36L584.9,927.28z M1017.24,1060.65l-16.01,13.07c-29.22,23.85-61.38,43.26-95.81,57.89
	l-21.72,51.77c5.36-1.71,10.69-3.51,15.98-5.44c46.27-16.8,89.16-41.18,127.48-72.46l4.69-3.83h19.85l17.21-41H1017.24z
	 M648.81,805.28l26.35-62.78l-136.08,78.73c-3.01,1.74-6.52,2.25-9.86,1.52l-27.03,64.41l1.2,2.08L648.81,805.28z M1266.48,468.29
	l-61.3,106.17l-38.19-66.15l-11.09,26.43l49.28,85.36L1306,445.47h-112.64l-9.58,22.82H1266.48z M1141.83,568.26l-21.7,51.72
	c18.1,45.96,27.47,95.14,27.47,145.57c0,21.02-1.66,42.15-4.93,62.8l-3.22,20.29l10.67,18.48l38.35-91.38
	c0.08-3.4,0.13-6.8,0.13-10.19C1188.6,696.25,1172.55,629.09,1141.83,568.26z M295.02,619.28L194.33,444.89h191.98l-24.99,59.55
	L295.02,619.28z M233.85,467.7l61.17,105.94l61.17-105.94H233.85z M1251.65,1042.98l10.21,17.68h-17.63l-17.21,41h105.85
	l-61.29-106.16L1251.65,1042.98z M327.31,484.38h-64.57l32.29,55.92L327.31,484.38z M779.78,225.67l65.01,112.6l19.93-47.49
	l-65.01-112.6L779.78,225.67z M765.16,528.02l16.04-38.22h-16.04V528.02z M1237.6,484.96h-60.81l-1.69,4.03l30.09,52.12
	L1237.6,484.96z"/>
</svg>
