<?xml version="1.0" encoding="utf-8"?>
<!-- Generator: Adobe Illustrator 25.4.1, SVG Export Plug-In . SVG Version: 6.00 Build 0)  -->
<svg version="1.1" id="レイヤー_1" xmlns="http://www.w3.org/2000/svg" xmlns:xlink="http://www.w3.org/1999/xlink" x="0px"
	 y="0px" viewBox="0 0 1920 1920" style="enable-background:new 0 0 1920 1920;" xml:space="preserve">
<style type="text/css">
	.st0{opacity:0.6;}
	.st1{filter:url(#Adobe_OpacityMaskFilter);}
	.st2{fill:#C1272D;}
	.st3{fill:url(#SVGID_00000137114492128113429250000008496371397547838129_);}
	.st4{fill:url(#SVGID_00000036250110805008077380000007828587714411298701_);}
</style>
<g>
	<g id="レイヤー_2_00000142866279341207263220000008326041527815430297_">
		<g class="st0">
			<defs>
				<filter id="Adobe_OpacityMaskFilter" filterUnits="userSpaceOnUse" x="190" y="226" width="1540" height="1464">
					<feFlood  style="flood-color:white;flood-opacity:1" result="back"/>
					<feBlend  in="SourceGraphic" in2="back" mode="normal"/>
				</filter>
			</defs>
			<mask maskUnits="userSpaceOnUse" x="190" y="226" width="1540" height="1464" id="SVGID_1_">
				<g class="st1">
					<image style="overflow:visible;" width="1544" height="1468" xlink:href="39057409.jpg"  transform="matrix(1 0 0 1 188 224)">
					</image>
				</g>
			</mask>
			<g style="mask:url(#SVGID_1_);">
				<image style="overflow:visible;" width="1540" height="1464" xlink:href="3905740B.png"  transform="matrix(1 0 0 1 190 226)">
				</image>
			</g>
		</g>
		<g>
			
				<image style="overflow:visible;opacity:0.75;" width="1396" height="1312" xlink:href="39057409.png"  transform="matrix(1 0 0 1 262 304)">
			</image>
			<g>
				<path class="st2" d="M1633.4,1156.3c-25.4-20.9-50.5-42.3-75.8-63.3c-3.5-2.9-4.9-5.6-4.1-10.3c1.6-9.8,2.4-19.7,3.4-29.6
					c6.8-69.7,1.2-140.2-16.6-207.9c-30.7-117.4-91.4-216.6-181.9-297.7c-49.4-44.3-105.1-78.8-166.2-104.7c-4.8-2-9-3.6-10.3-10
					c-7-32.8-14.8-65.4-21.8-98.2c-1.4-6.7-4.2-8.3-10.6-8.3c-62.7,0.2-125.5,0.1-188.2,0.1v-0.3c-63.4,0-126.8,0.1-190.2-0.1
					c-5.4,0-7.1,1.6-8,6.8c-5,30.2-11,60.3-15.5,90.6c-1.5,9.8-5.7,14.3-14.5,18c-109.5,45.4-198.1,116.7-265.7,214.2
					c-55.9,80.5-88.5,170.1-102,266.8c-6.9,50.1-6.1,100.4,0.6,150.5c0.7,4.9-0.2,8.3-4,11.8c-25,22.8-49.7,46-74.7,68.8
					c-4.2,3.9-4.8,6.7-1.9,11.6c63.6,109.6,127,219.3,190.3,329.1c2.5,4.3,4.6,4.8,8.9,3.2c31-11.5,62.1-22.6,93.1-34.1
					c4.4-1.7,7.3-1,10.9,1.8c21.8,17.5,44.9,33.3,69.1,47.2c112.3,64.1,232.8,90.9,361.7,78.9c62-5.8,121.4-21.8,178.6-45.6
					c45.7-19,88-44.4,127.3-74.6c3.9-3,7.2-3.8,12.1-2.2c31.9,10.2,64,19.9,95.9,30.2c6.1,2,8.9,0.7,12.1-4.8
					c63-109.5,126.1-218.8,189.4-328.1C1637.2,1162,1637.5,1159.7,1633.4,1156.3z M1592.5,1176.6
					c-52.8,90.7-105.3,181.4-157.7,272.3c-3.6,6.3-6.9,7.6-13.7,5.4c-29.6-9.4-59.4-18.1-89-27.3c-4.4-1.4-7.5-0.7-11,2.1
					c-72.5,59-154.4,98.7-246,117.8c-62.6,13.1-127,15.3-190.4,6.6c-103.8-14.1-196.2-54.8-278.2-119.7c-2.5-2-5.5-3.4-7.5-5.8
					c-6.3-7.6-13-7.5-21.9-4c-26.8,10.5-54,19.9-81,30c-4.3,1.6-6.5,1.3-9-3.1c-53.1-92-106.4-184-159.8-275.8
					c-2.3-3.9-0.7-5.4,1.8-7.7c23.6-22,47-44.2,70.8-66c4-3.7,4.8-7.1,4-12.2C386.5,974.7,400,864.1,449,758.7
					c56.4-121.1,145.2-210.9,264.9-270.3c18.3-9.2,37.2-17.1,56.5-23.7c6-2,7.8-5.6,8.7-11.1c5-29.5,10.4-59,15.3-88.6
					c0.9-5.6,2.8-7.6,8.8-7.5c52.4,0.3,104.7,0.2,157.1,0.2v0.6c52.6,0,105.2,0.1,157.7-0.1c5.6,0,7.6,1.8,8.8,7.1
					c6.7,30.1,13.9,60.1,20.6,90.2c1.4,6.1,4.1,9.5,10.1,11.8c85.8,32.5,160,82.2,221.4,150.6c67.5,75.2,111.8,162.3,132.9,261.2
					c11.4,53.5,14.5,107.6,10.7,162.2c-1.3,18.7-3.8,37.2-7.4,55.6c-1.1,5.5,0.3,8.7,4.4,12.1c23.8,19.7,47.4,39.7,71.1,59.5
					C1593.6,1170.8,1594.9,1172.5,1592.5,1176.6z"/>
			</g>
		</g>
		
			<radialGradient id="SVGID_00000057107442880380124730000005084138886694000554_" cx="960.0554" cy="929.163" r="692.9184" gradientTransform="matrix(1 0 0 -1 0 1920)" gradientUnits="userSpaceOnUse">
			<stop  offset="0.553" style="stop-color:#000000"/>
			<stop  offset="0.6206" style="stop-color:#47272D"/>
			<stop  offset="0.6326" style="stop-color:#5E272D"/>
			<stop  offset="0.6459" style="stop-color:#70262C"/>
			<stop  offset="0.66" style="stop-color:#7B262C"/>
			<stop  offset="0.6763" style="stop-color:#7E262C"/>
			<stop  offset="0.704" style="stop-color:#6F1B1F"/>
			<stop  offset="0.757" style="stop-color:#381114"/>
			<stop  offset="0.811" style="stop-color:#1F090B"/>
			<stop  offset="0.868" style="stop-color:#0E0405"/>
			<stop  offset="0.928" style="stop-color:#030101"/>
			<stop  offset="1" style="stop-color:#000000"/>
		</radialGradient>
		<path style="fill:url(#SVGID_00000057107442880380124730000005084138886694000554_);" d="M1590.7,1168.4
			c-23.7-19.8-47.3-39.8-71.1-59.5c-4.1-3.4-5.5-6.6-4.4-12.1c3.6-18.4,6-36.9,7.4-55.6c3.8-54.5,0.7-108.6-10.7-162.2
			c-21.1-98.9-65.4-185.9-132.9-261.2c-61.4-68.3-135.6-118.1-221.4-150.6c-6-2.3-8.7-5.6-10.1-11.8c-6.7-30.1-13.9-60.1-20.6-90.2
			c-1.2-5.3-3.3-7.2-8.8-7.1c-52.6,0.2-105.1,0.1-157.7,0.1v-0.6c-52.4,0-104.7,0.1-157.1-0.2c-6.1,0-7.9,1.9-8.8,7.5
			c-4.9,29.6-10.3,59-15.3,88.6c-0.9,5.5-2.7,9-8.7,11.1c-19.4,6.6-38.3,14.6-56.6,23.7C594.3,547.8,505.4,637.6,449,758.7
			c-49,105.3-62.6,216-44.9,330.6c0.8,5.1-0.1,8.6-4,12.2c-23.7,21.8-47.2,44-70.8,66c-2.5,2.3-4.1,3.8-1.8,7.7
			C380.8,1267,434.1,1359,487.2,1451c2.5,4.3,4.7,4.7,9,3.1c27-10.1,54.2-19.5,81-30c8.9-3.5,15.6-3.6,21.9,4c2,2.4,5,3.8,7.5,5.8
			c82,64.9,174.3,105.5,278.2,119.6c63.4,8.8,127.8,6.5,190.4-6.6c91.6-19.2,173.5-58.8,246-117.8c3.5-2.9,6.6-3.5,11-2.1
			c29.6,9.2,59.4,17.9,89,27.3c6.8,2.1,10.1,0.9,13.7-5.4c52.4-90.9,104.9-181.7,157.7-272.3
			C1594.9,1172.5,1593.6,1170.8,1590.7,1168.4z"/>
		
			<image style="overflow:visible;enable-background:new    ;" width="676" height="676" xlink:href="3905740F.png"  transform="matrix(1 0 0 1 622 660)">
		</image>
		<g>
			
				<image style="overflow:visible;opacity:0.75;" width="876" height="899" xlink:href="3905740A.png"  transform="matrix(1 0 0 1 522 515)">
			</image>
			<g>
				
					<radialGradient id="SVGID_00000133518897057192534250000011700415785529879209_" cx="958.442" cy="922.215" r="472.871" gradientTransform="matrix(1 0 0 -1 0 1920)" gradientUnits="userSpaceOnUse">
					<stop  offset="0" style="stop-color:#000000"/>
					<stop  offset="0.129" style="stop-color:#050101"/>
					<stop  offset="0.273" style="stop-color:#120404"/>
					<stop  offset="0.425" style="stop-color:#280809"/>
					<stop  offset="0.582" style="stop-color:#480E11"/>
					<stop  offset="0.742" style="stop-color:#70171A"/>
					<stop  offset="0.904" style="stop-color:#A12025"/>
					<stop  offset="1" style="stop-color:#C1272D"/>
				</radialGradient>
				<path style="fill:url(#SVGID_00000133518897057192534250000011700415785529879209_);" d="M1375.3,1204.7
					c0,0-25.6-14.2-59.9-33.2c26.7-54.3,40.6-114.1,40.5-174.7c0-210.5-164.2-382.6-371.5-395.2c0-35.7,0-61.7,0-61.7
					c-0.4-1.8-2-3-3.8-3.1c-3.1,0-40.6,0.1-40.6,0.1s-4.2-0.9-4.4,4.1c-0.1,1.5-0.1,26.5-0.1,60.6
					c-207.3,12.6-371.6,184.7-371.6,395.2c-0.1,60.6,13.8,120.3,40.5,174.7c-34.2,19-59.9,33.2-59.9,33.2c-1.3,1.2-1.7,3.2-0.8,4.8
					c1.5,2.7,19.7,35.4,19.7,35.4s1.2,4.1,5.7,1.9c1.5-0.7,26.4-14.5,59.5-32.9c70.8,107.7,192.7,178.9,331.2,178.9
					s260.4-71.1,331.2-178.9c33.1,18.4,58,32.2,59.5,32.9c4.5,2.2,5.7-1.9,5.7-1.9s18.3-32.7,19.7-35.4
					C1377,1207.8,1376.6,1205.9,1375.3,1204.7z M1187.9,1224.7c-126.1,125.9-330.4,125.7-456.3-0.4c-14.2-14.2-27-29.7-38.3-46.3
					c55.9-31.1,109.6-60.9,109.6-60.9s4.7-3.3,7.9,2.1s24.4,44.1,24.4,44.1l98.3-147.6l-177.2,5.2l24.7,44.3c0,0,5.3,5.8-4.9,11.3
					c-4.7,2.6-54.8,30.3-107.1,59.3c-2.1-4.4-4.1-8.9-6.1-13.5c-69.3-163.9,7.3-353,171.2-422.3c32.3-13.7,66.6-22,101.5-24.6
					c0.1,66.6,0.2,132.9,0.2,132.9s0.6,5.7-5.6,5.9s-50.4-0.1-50.4-0.1l81.4,157.5l81.4-157.5l-50.7,0.2c0,0-7.7,1.8-7.5-9.8
					c0.1-5.6,0.1-66.9,0.1-129.1c177.6,13.7,310.6,168.7,296.9,346.4c-2.7,34.6-10.9,68.5-24.4,100.5c-1.9,4.6-4,9-6.1,13.5
					c-52.3-29-102.4-56.7-107.1-59.3c-10.2-5.5-4.9-11.3-4.9-11.3l24.7-44.3l-177.2-5.2l98.3,147.6c0,0,21.2-38.7,24.4-44.1
					s7.9-2.1,7.9-2.1s53.7,29.9,109.6,60.9C1215.2,1194.8,1202.3,1210.4,1187.9,1224.7L1187.9,1224.7z"/>
			</g>
		</g>
		
			<image style="overflow:visible;opacity:0.46;enable-background:new    ;" width="68" height="67" xlink:href="39057405.png"  transform="matrix(1 0 0 1 926 964)">
		</image>
		
			<image style="overflow:visible;enable-background:new    ;" width="92" height="93" xlink:href="39057406.png"  transform="matrix(1 0 0 1 914 951)">
		</image>
	</g>
</g>
</svg>
