<?xml version="1.0" encoding="utf-8"?>
<!-- Generator: Adobe Illustrator 25.4.1, SVG Export Plug-In . SVG Version: 6.00 Build 0)  -->
<svg version="1.1" id="レイヤー_1" xmlns="http://www.w3.org/2000/svg" xmlns:xlink="http://www.w3.org/1999/xlink" x="0px"
	 y="0px" viewBox="0 0 1920 1920" style="enable-background:new 0 0 1920 1920;" xml:space="preserve">
<style type="text/css">
	.st0{opacity:0.6;}
	.st1{filter:url(#Adobe_OpacityMaskFilter);}
	.st2{fill:#C1272D;}
	.st3{fill:url(#SVGID_00000181774927541983957200000015887131517443401883_);}
	.st4{fill:url(#SVGID_00000078014057889212213350000011524797709234259849_);}
</style>
<g>
	<g id="レイヤー_2_00000142866279341207263220000008326041527815430297_">
		<g class="st0">
			<defs>
				<filter id="Adobe_OpacityMaskFilter" filterUnits="userSpaceOnUse" x="95" y="136" width="1730" height="1644">
					<feFlood  style="flood-color:white;flood-opacity:1" result="back"/>
					<feBlend  in="SourceGraphic" in2="back" mode="normal"/>
				</filter>
			</defs>
			<mask maskUnits="userSpaceOnUse" x="95" y="136" width="1730" height="1644" id="SVGID_1_">
				<g class="st1">
					<image style="overflow:visible;" width="1734" height="1648" xlink:href="39057409.jpg"  transform="matrix(1 0 0 1 93 134)">
					</image>
				</g>
			</mask>
			<g style="mask:url(#SVGID_1_);">
				<image style="overflow:visible;" width="1730" height="1644" xlink:href="3905740B.png"  transform="matrix(1 0 0 1 95 136)">
				</image>
			</g>
		</g>
		<g>
			
				<image style="overflow:visible;opacity:0.75;" width="1572" height="1475" xlink:href="39057409.png"  transform="matrix(1 0 0 1 174 223)">
			</image>
			<g>
				<path class="st2" d="M1720.6,1181.9c-28.7-23.6-57.1-47.7-85.7-71.5c-3.9-3.2-5.5-6.3-4.6-11.7c1.8-11,2.7-22.2,3.8-33.4
					c7.7-78.8,1.4-158.3-18.8-234.8c-34.7-132.6-103.2-244.7-205.5-336.2c-55.8-50-118.7-89-187.7-118.2
					c-5.4-2.3-10.1-4.1-11.6-11.3c-7.9-37-16.7-73.9-24.6-111c-1.6-7.5-4.7-9.4-12-9.4c-70.9,0.3-141.7,0.2-212.6,0.2v-0.3
					c-71.6,0-143.2,0.1-214.9-0.2c-6.1,0-8,1.8-9,7.7c-5.7,34.1-12.4,68.1-17.5,102.3c-1.7,11.1-6.4,16.2-16.4,20.3
					c-123.7,51.2-223.7,131.9-300.1,241.9c-63.1,91-100,192.2-115.2,301.4c-7.8,56.5-6.9,113.3,0.7,170c0.7,5.5-0.2,9.3-4.6,13.3
					c-28.2,25.8-56.1,52-84.3,77.7c-4.8,4.4-5.4,7.5-2.1,13.2c71.8,123.8,143.5,247.7,215,371.7c2.8,4.8,5.2,5.5,10.1,3.6
					c35-12.9,70.2-25.5,105.1-38.5c5-1.9,8.3-1.1,12.3,2.1c24.6,19.7,50.8,37.6,78.1,53.3c126.9,72.4,262.9,102.7,408.6,89.1
					c70-6.6,137.1-24.6,201.7-51.5c51.6-21.5,99.4-50.1,143.7-84.3c4.4-3.4,8.1-4.3,13.7-2.5c36,11.6,72.3,22.5,108.3,34.1
					c6.9,2.2,10.1,0.8,13.7-5.4c71.1-123.6,142.4-247.2,213.9-370.6C1724.8,1188.4,1725.2,1185.7,1720.6,1181.9z M1674.4,1204.8
					c-59.6,102.4-119,204.9-178.2,307.6c-4.1,7.1-7.8,8.5-15.5,6.1c-33.4-10.6-67.1-20.4-100.6-30.8c-5-1.6-8.5-0.8-12.4,2.4
					c-81.9,66.7-174.4,111.5-277.9,133.1c-70.7,14.8-143.5,17.3-215.1,7.4c-117.3-15.9-221.6-61.9-314.2-135.1
					c-2.8-2.2-6.2-3.9-8.4-6.5c-7.1-8.6-14.7-8.5-24.7-4.5c-30.2,11.9-61,22.5-91.4,33.9c-4.8,1.8-7.3,1.4-10.1-3.5
					c-60-103.9-120.1-207.8-180.4-311.5c-2.5-4.4-0.8-6,2-8.6c26.7-24.8,53.1-49.9,80-74.6c4.5-4.1,5.4-8,4.6-13.8
					c-19.9-129.4-4.6-254.4,50.8-373.4c63.7-136.8,164-238.2,299.2-305.2c20.7-10.4,42-19.3,63.9-26.8c6.8-2.3,8.8-6.3,9.8-12.5
					c5.7-33.4,11.7-66.7,17.3-100c1.1-6.3,3.1-8.6,10-8.5c59.1,0.3,118.3,0.2,177.4,0.2v0.6c59.4,0,118.8,0.1,178.1-0.1
					c6.3,0,8.6,2,10,8.1c7.6,34,15.7,67.9,23.3,101.9c1.5,6.9,4.6,10.7,11.4,13.3c96.9,36.7,180.7,92.9,250,170.1
					c76.3,84.9,126.3,183.3,150.1,295c12.9,60.5,16.3,121.6,12.1,183.2c-1.5,21.1-4.3,42.1-8.3,62.8c-1.2,6.2,0.4,9.8,5,13.6
					c26.9,22.3,53.5,44.8,80.3,67.2C1675.6,1198.3,1677.1,1200.2,1674.4,1204.8z"/>
			</g>
		</g>
		
			<radialGradient id="SVGID_00000013183490913508076200000008386077356243870886_" cx="962.3246" cy="990.5515" r="673.8958" gradientUnits="userSpaceOnUse">
			<stop  offset="0.553" style="stop-color:#000000"/>
			<stop  offset="0.6352" style="stop-color:#47272D"/>
			<stop  offset="0.6401" style="stop-color:#5E272D"/>
			<stop  offset="0.6454" style="stop-color:#70262C"/>
			<stop  offset="0.6512" style="stop-color:#7B262C"/>
			<stop  offset="0.6578" style="stop-color:#7E262C"/>
			<stop  offset="0.6721" style="stop-color:#6F1B1F"/>
			<stop  offset="0.693" style="stop-color:#691A1E"/>
			<stop  offset="0.7204" style="stop-color:#59171B"/>
			<stop  offset="0.7511" style="stop-color:#3E1215"/>
			<stop  offset="0.757" style="stop-color:#381114"/>
			<stop  offset="0.811" style="stop-color:#1F090B"/>
			<stop  offset="0.868" style="stop-color:#0E0405"/>
			<stop  offset="0.928" style="stop-color:#030101"/>
			<stop  offset="1" style="stop-color:#000000"/>
		</radialGradient>
		<path style="fill:url(#SVGID_00000013183490913508076200000008386077356243870886_);" d="M1672.4,1187.5
			c-26.8-22.4-53.4-44.9-80.3-67.2c-4.6-3.8-6.2-7.4-5-13.6c4.1-20.7,6.8-41.7,8.3-62.8c4.3-61.6,0.8-122.7-12.1-183.2
			c-23.8-111.7-73.9-210-150.1-295c-69.3-77.2-153.1-133.4-250-170.1c-6.8-2.6-9.8-6.4-11.4-13.3c-7.5-34-15.7-67.9-23.3-101.9
			c-1.3-6-3.7-8.1-10-8.1c-59.4,0.2-118.8,0.1-178.1,0.1v-0.6c-59.1,0-118.3,0.1-177.4-0.2c-6.9,0-8.9,2.2-10,8.5
			c-5.6,33.4-11.6,66.7-17.3,100c-1.1,6.2-3,10.2-9.8,12.5c-21.9,7.5-43.2,16.5-63.9,26.8C546.9,486.6,446.5,588,382.8,724.8
			c-55.4,119-70.7,243.9-50.8,373.4c0.9,5.8-0.1,9.7-4.6,13.8c-26.8,24.7-53.3,49.7-80,74.6c-2.8,2.6-4.6,4.3-2,8.6
			c60.3,103.8,120.5,207.6,180.4,311.5c2.8,4.9,5.3,5.3,10.1,3.5c30.5-11.4,61.2-22,91.4-33.9c10-3.9,17.6-4.1,24.7,4.5
			c2.2,2.7,5.6,4.3,8.4,6.5c92.6,73.3,196.9,119.2,314.2,135.1c71.6,9.9,144.3,7.4,215.1-7.4c103.5-21.6,195.9-66.4,277.9-133.1
			c4-3.2,7.4-4,12.4-2.4c33.5,10.4,67.1,20.3,100.6,30.8c7.7,2.4,11.4,1,15.5-6.1c59.1-102.7,118.5-205.2,178.2-307.6
			C1677.1,1192.1,1675.6,1190.2,1672.4,1187.5z"/>
		
			<image style="overflow:visible;enable-background:new    ;" width="676" height="676" xlink:href="3905740F.png"  transform="matrix(1.1295 0 0 1.1295 578.2279 621.3931)">
		</image>
		<g>
			
				<image style="overflow:visible;opacity:0.75;" width="984" height="1010" xlink:href="3905740A.png"  transform="matrix(1 0 0 1 468 461)">
			</image>
			<g>
				
					<radialGradient id="SVGID_00000098929454560592258240000016018113965886039226_" cx="958.233" cy="917.0849" r="534.0992" gradientTransform="matrix(1 0 0 -1 0 1920)" gradientUnits="userSpaceOnUse">
					<stop  offset="0" style="stop-color:#000000"/>
					<stop  offset="4.000735e-02" style="stop-color:#110304"/>
					<stop  offset="0.1621" style="stop-color:#3F0D0F"/>
					<stop  offset="0.2886" style="stop-color:#671518"/>
					<stop  offset="0.4177" style="stop-color:#881B20"/>
					<stop  offset="0.5503" style="stop-color:#A12126"/>
					<stop  offset="0.6877" style="stop-color:#B3242A"/>
					<stop  offset="0.8331" style="stop-color:#BE262C"/>
					<stop  offset="1" style="stop-color:#C1272D"/>
				</radialGradient>
				<path style="fill:url(#SVGID_00000098929454560592258240000016018113965886039226_);" d="M1429.1,1236.6c0,0-29-16.1-67.6-37.5
					c30.2-61.4,45.9-128.9,45.8-197.3c0-237.7-185.5-432.1-419.6-446.4c0-40.3,0-69.7,0-69.7c-0.5-2-2.2-3.4-4.2-3.4
					c-3.5,0-45.8,0.1-45.8,0.1s-4.8-1.1-5,4.6c-0.1,1.7-0.1,29.9-0.1,68.4c-234.2,14.2-419.7,208.6-419.7,446.4
					c-0.1,68.4,15.6,135.9,45.8,197.3c-38.7,21.4-67.6,37.5-67.6,37.5c-1.5,1.4-1.9,3.6-1,5.4c1.7,3,22.3,40,22.3,40
					s1.4,4.7,6.5,2.2c1.6-0.8,29.8-16.4,67.2-37.2c79.9,121.7,217.6,202,374.1,202s294.1-80.3,374.1-202
					c37.4,20.7,65.6,36.4,67.2,37.2c5.1,2.5,6.5-2.2,6.5-2.2s20.6-37,22.3-40C1431,1240.2,1430.6,1238,1429.1,1236.6z
					 M1217.4,1259.2c-142.4,142.2-373.1,142-515.3-0.4c-16-16.1-30.5-33.6-43.3-52.3c63.2-35.1,123.8-68.8,123.8-68.8
					s5.3-3.7,8.9,2.3c3.6,6.1,27.5,49.8,27.5,49.8l111-166.7l-200.2,5.9l27.9,50c0,0,6,6.6-5.5,12.8c-5.3,2.9-61.9,34.2-121,67
					c-2.4-5-4.7-10.1-6.9-15.2c-78.3-185.1,8.3-398.7,193.4-477c36.5-15.4,75.2-24.8,114.7-27.8c0.1,75.2,0.2,150.1,0.2,150.1
					s0.7,6.4-6.3,6.6c-7.1,0.2-56.9-0.1-56.9-0.1l91.9,177.9l91.9-177.9l-57.3,0.2c0,0-8.7,2.1-8.5-11c0.1-6.3,0.1-75.6,0.1-145.8
					c200.6,15.4,350.8,190.6,335.4,391.2c-3,39.1-12.3,77.4-27.5,113.5c-2.2,5.1-4.5,10.2-6.9,15.2c-59.1-32.8-115.6-64.1-121-67
					c-11.5-6.2-5.5-12.8-5.5-12.8l27.9-50l-200.2-5.9l111,166.7c0,0,23.9-43.7,27.5-49.8c3.6-6.1,8.9-2.3,8.9-2.3
					s60.7,33.7,123.8,68.8C1248.3,1225.4,1233.6,1243.1,1217.4,1259.2L1217.4,1259.2z"/>
			</g>
		</g>
		
			<image style="overflow:visible;opacity:0.46;enable-background:new    ;" width="68" height="67" xlink:href="39057405.png"  transform="matrix(1.1295 0 0 1.1295 921.5903 964.7556)">
		</image>
		
			<image style="overflow:visible;enable-background:new    ;" width="92" height="93" xlink:href="39057406.png"  transform="matrix(1.1295 0 0 1.1295 908.0366 950.0723)">
		</image>
	</g>
</g>
</svg>
