<?xml version="1.0" encoding="UTF-8" standalone="no"?>
<svg xmlns="http://www.w3.org/2000/svg" xmlns:xlink="http://www.w3.org/1999/xlink" width="3586.809" height="1355.423" viewBox="0 0 3586.809 1355.423"><defs><style>.cls-1{fill:none;}.cls-2{isolation:isolate;}.cls-3{fill:url(#名称未設定グラデーション_27);}.cls-4{fill:#ccc;}.cls-5{fill:url(#名称未設定グラデーション_100);}.cls-6{mix-blend-mode:multiply;}.cls-7{clip-path:url(#clip-path);}.cls-8{fill:#9c0000;}</style><linearGradient id="名称未設定グラデーション_27" x1="674.589" y1="117.372" x2="1382.621" y2="1343.719" gradientUnits="userSpaceOnUse"><stop offset="0" stop-color="#c1272d"/><stop offset="0.083" stop-color="#bd272d"/><stop offset="0.158" stop-color="#b2272d"/><stop offset="0.23" stop-color="#a0272d"/><stop offset="0.299" stop-color="#86272d"/><stop offset="0.349" stop-color="#6f272d"/><stop offset="0.601" stop-color="#7c272d"/><stop offset="0.607" stop-color="#80272d"/><stop offset="0.651" stop-color="#98272d"/><stop offset="0.701" stop-color="#aa272d"/><stop offset="0.76" stop-color="#b7272d"/><stop offset="0.838" stop-color="#bf272d"/><stop offset="1" stop-color="#c1272d"/></linearGradient><linearGradient id="名称未設定グラデーション_100" x1="1169.966" y1="1121.576" x2="3693.703" y2="1121.576" gradientUnits="userSpaceOnUse"><stop offset="0" stop-color="#c1272d"/><stop offset="0.528" stop-color="#970000"/><stop offset="1" stop-color="#c2272d"/></linearGradient><clipPath id="clip-path" transform="translate(-106.895 -251.279)"><polygon class="cls-1" points="2731.996 1862.052 2489.061 1772.654 1038.465 1238.848 1107.535 1051.152 2315.195 1495.562 1830.212 566.026 3959.673 1353.203 3890.327 1540.796 2247.538 933.522 2731.996 1862.052"/></clipPath></defs><g class="cls-2"><g id="レイヤー_1" data-name="レイヤー 1"><path class="cls-3" d="M1188.236,607.61c.035-.115.06-.2.1-.324a253.4,253.4,0,0,0,13.275,62.581c11.543,32.854,32.237,69.213,32.239,69.217s31.9,5.615,37.927,6.637c41.451,7.029,90.931,5.553,116.5,4.076,10.681-.617,17.189-1.233,17.194-1.232-.025-.013-186.3-153.892-182.051-159.294.657-.835,5.672,2.134,8.533,3.792,69.514,40.283,158.349,92.92,158.347,92.923s100.821,30.815,213.343,49.3c36.186,5.947,96.619,14.4,97.662,9.482.514-2.43-13.631-7.311-17.067-8.533-86.276-30.654-343.846-213.031-337.554-222.823.427-.666,1.986-.392,11.378,2.844,71.656,24.689,134.642,61.632,134.642,61.632s110.86-20.243,198.171-82.492a367.054,367.054,0,0,0,56.891-50.254c-356.485-11.916-509.8-82.255-583.133-146.968-13.937-12.3-50.692-46.9-84.321-46.9a43.237,43.237,0,0,0-14.29,2.333c-43.34,15.049-27.847,92.028-60.683,195.326C987.2,506,958.45,558.1,927.111,603.11,895.772,558.1,867.023,506,848.885,448.939c-32.837-103.3-17.343-180.277-60.683-195.326-36.834-12.789-82.663,30.492-98.611,44.565-73.305,64.687-226.524,134.994-582.7,146.953v.484A366.878,366.878,0,0,0,163.349,495.4c87.309,62.249,198.173,82.488,198.171,82.492s62.986-36.943,134.641-61.632c9.392-3.236,10.95-3.51,11.378-2.844,6.293,9.792-251.278,192.169-337.552,222.823-3.437,1.222-17.584,6.1-17.067,8.533,1.043,4.92,61.475-3.535,97.662-9.482,112.521-18.489,213.342-49.307,213.341-49.3s88.833-52.64,158.348-92.923c2.861-1.658,7.877-4.627,8.532-3.792,4.245,5.4-182.025,159.281-182.051,159.294,0,0,6.512.615,17.194,1.232,25.568,1.477,75.046,2.953,116.5-4.076,6.025-1.022,37.927-6.639,37.927-6.637s20.695-36.363,32.239-69.217a253.451,253.451,0,0,0,13.275-62.581c.037.122.063.209.1.324,0,0,11.191,36.571-8.634,104.925,0-.008,36.892-53.51,61.632-118.523,17.107-44.951,25.7-57.495,38.876-59.736,11.8-2.006,22.436,6.308,27.5,10.43,21.141,17.22,64.719,58.814,108.961,102.077A604.734,604.734,0,0,1,749.383,777.836Q821.962,843.5,896.1,915.008q4.8,4.638,9.57,9.271-23.009,23.609-48.932,46.792-22.146,19.719-44.134,36.977a1388.313,1388.313,0,0,1,66.8,209.934s27.213,117.567,47.7,388.72h.01c-.043-5.545-1.407-180.292-16.7-326.694A1977.021,1977.021,0,0,0,862.7,1009.24q31.592-31.884,64.412-64.049,32.814,32.154,64.411,64.049a1976.866,1976.866,0,0,0-47.712,270.768c-15.293,146.4-16.655,321.149-16.7,326.694h.009c20.489-271.153,47.7-388.72,47.7-388.72a1388.545,1388.545,0,0,1,66.8-209.934q-21.939-17.286-44.134-36.977-25.963-23.12-48.931-46.792,4.776-4.633,9.568-9.271,74.046-71.537,146.717-137.172A604.633,604.633,0,0,1,959.905,646.783c44.239-43.263,87.818-84.857,108.959-102.077,5.06-4.122,15.7-12.436,27.5-10.43,13.171,2.241,21.769,14.785,38.874,59.736,24.743,65.013,61.632,118.515,61.634,118.523C1177.044,644.181,1188.236,607.61,1188.236,607.61ZM1024.3,776.064a988.464,988.464,0,0,1-97.188,125.484,988.385,988.385,0,0,1-97.189-125.484c3.629-3.668,47.234-47.7,97.189-97.043C977.066,728.364,1020.671,772.4,1024.3,776.064Z" transform="translate(-106.895 -251.279)"/><path class="cls-4" d="M1862.257,583c-5.761,0-13.092.531-18.226.531-3.507,0-11.331-.531-17.968-.531-1.879,0-2.8.354-2.954,1.593s.553,1.593,1.93,1.593a17.685,17.685,0,0,1,4.818.531c3.978,1.239,4.628,4.071,4.127,10.089-.456,5.664-1.075,10.621-4.431,37.525l-3.887,31.153c-2.032,16.284-3.777,30.267-5.331,37.7-1.141,5.133-2.253,9.026-4.846,9.735a15.68,15.68,0,0,1-4.6.708c-1.5,0-2.07.531-2.181,1.415-.154,1.24.657,1.771,2.285,1.771,5.009,0,12.966-.531,15.845-.531,3.257,0,11.081.531,19.346.531,1.378,0,2.446-.531,2.6-1.771.11-.884-.449-1.415-1.827-1.415a36.183,36.183,0,0,1-6.3-.708c-3.669-.709-3.935-4.6-3.691-9.558.322-7.612,2.067-21.6,4.1-37.879l8.834-70.8c.242-1.947.751-3.009,1.421-3.363a13.525,13.525,0,0,1,4.973-.708,14.277,14.277,0,0,1,12.038,6.9c5.909,8.851,4.451,20.533,3.723,26.374-2.253,18.054-13.435,29.382-20.448,29.382-2.63,0-3.573.531-3.75,1.948-.154,1.238.7,1.415,1.3,1.593a12.885,12.885,0,0,0,2.608.176c17.783,0,33.105-18.408,35.821-40.179,1.524-12.214-.849-19.294-3.118-23.188C1882.082,589.726,1877.911,583,1862.257,583Z" transform="translate(-106.895 -251.279)"/><path class="cls-4" d="M1970.919,721.515a11.274,11.274,0,0,1-2.884-.446c-1.52-.445-5.592-1.484-10.4-10.093-5.048-9.2-10.628-22.562-17.9-39.186,12.125-12.171,16.517-22.116,17.887-33.1,1.24-9.945-2.016-17.515-4.605-20.335-4.986-5.492-11.911-6.383-18.528-6.383-3.255,0-11.293.445-14.864.445-2.2,0-8.766-.445-14.332-.445-1.575,0-2.347.3-2.477,1.336s.464,1.336,1.619,1.336a14.822,14.822,0,0,1,4.04.445c3.336,1.039,3.88,3.414,3.461,8.461-.383,4.749-.9,8.906-3.716,31.467l-3.259,26.124c-1.7,13.656-3.167,25.382-4.47,31.616-.958,4.305-1.89,7.57-4.065,8.164a13.137,13.137,0,0,1-3.855.594c-1.26,0-1.735.445-1.828,1.187-.13,1.039.55,1.485,1.916,1.485,4.2,0,10.872-.446,12.867-.446,1.576,0,9.292.446,15.383.446,1.366,0,2.157-.446,2.286-1.485.093-.742-.272-1.187-1.112-1.187a33.077,33.077,0,0,1-5.072-.594c-3.077-.594-3.3-3.859-3.078-8.164.253-6.234,1.716-17.96,3.438-31.764l.26-2.078c.111-.891.463-1.188.988-1.188l8.785.3a1.667,1.667,0,0,1,1.76,1.039c1.088,2.227,4.66,12.32,7.842,20.484,4.455,11.429,7.577,18.4,11.666,21.819,2.471,2.078,5,2.821,10.886,2.821h10.292c1.26,0,2.032-.3,2.181-1.485C1972.124,721.96,1971.759,721.515,1970.919,721.515Zm-35.589-53.139c-2.131,1.929-3.57,2.523-7.771,2.523a18.881,18.881,0,0,1-7.8-1.484c-.68-.445-.816-1.039-.612-2.672l5.63-45.123c.148-1.187.432-1.781,1.2-2.078a17.282,17.282,0,0,1,5.641-.593c6.2,0,15.309,6.085,12.679,27.163C1942.786,658.283,1938.888,665.111,1935.33,668.376Z" transform="translate(-106.895 -251.279)"/><path class="cls-4" d="M2025.072,609.894c-31.507,0-47.467,32.8-50.635,58.185-3.277,26.272,4.924,58.186,35.066,58.186,26.675,0,46.831-26.867,51.072-60.857S2051.223,609.894,2025.072,609.894Zm20.114,61.005c-5.352,42.9-22.995,47.944-30.346,47.944-20.164,0-29.187-24.492-25.334-55.365,4.61-36.96,19.553-46.459,31.631-46.459C2038.361,617.019,2049.334,637.651,2045.186,670.9Z" transform="translate(-106.895 -251.279)"/><path class="cls-4" d="M2112.133,613.308c.129-1.039-.569-1.336-2.039-1.336-4.1,0-10.768.445-13.288.445-2.73,0-9.292-.445-14.858-.445-1.575,0-2.348.3-2.477,1.336s.464,1.336,1.619,1.336a14.822,14.822,0,0,1,4.04.445c3.336,1.039,3.88,3.414,3.46,8.461-.382,4.749-.9,8.906-3.716,31.467l-5.314,42.6c-3.63,29.093-5.377,43.936-14.785,55.365a30.19,30.19,0,0,1-5.745,5.64c-1.952,1.336-2.551,1.93-2.643,2.672s.271,1.188.691,1.188a4.249,4.249,0,0,0,2.212-.891,64.854,64.854,0,0,0,5.733-3.859c11.175-8.758,18.019-19,21.354-28.053,2.834-7.571,4.482-18.258,8.094-47.2l3.426-27.46c2.815-22.561,3.333-26.718,4.136-31.467.858-5.195,2.014-7.719,4.942-8.461a11.976,11.976,0,0,1,3.1-.445C2111.336,614.644,2112,614.347,2112.133,613.308Z" transform="translate(-106.895 -251.279)"/><path class="cls-4" d="M2173.361,610.785a8.539,8.539,0,0,0-1.754.593,32.817,32.817,0,0,1-4.628.891c-2.013.148-22.912.148-26.273.148-5.462,0-10.237-.445-15.068-.445-1.575,0-2.348.3-2.478,1.336s.464,1.336,1.619,1.336a14.822,14.822,0,0,1,4.04.445c3.336,1.039,3.881,3.414,3.461,8.461-.382,4.749-.9,8.906-3.716,31.467l-3.259,26.124c-1.7,13.656-3.167,25.382-4.47,31.616-.957,4.305-1.89,7.57-4.064,8.164a13.148,13.148,0,0,1-3.855.594c-1.26,0-1.736.445-1.828,1.187-.13,1.039.55,1.485,1.915,1.485,4.726,0,9.087-.446,13.288-.446,10.5,0,19.633.891,28.98.891,3.991,0,4.937,0,6.153-3.86.895-2.968,2.995-13.061,3.421-16.475.185-1.485.333-2.672-.507-2.672-.735,0-1.02.594-1.433,2.226-1.5,6.086-3.144,9.2-6.1,10.984s-7.363,1.781-10.094,1.781c-10.712,0-12.115-2.226-11.046-12.468.431-4.3,2.24-17.96,2.87-23.007L2140,669.415c.112-.891.291-1.484.816-1.484,2.521,0,12.9.148,14.858.445,3.811.594,5,2.82,5.158,5.789a36.607,36.607,0,0,1-.117,4.305c-.092.742-.085,2.375.649,2.375.946,0,1.149-1.633,1.3-2.821.13-1.039,1.186-6.976,1.661-9.945,1.365-7.57,2.081-9.945,2.192-10.835s-.166-1.188-.586-1.188c-.525,0-1.038.743-1.922,1.93-1.13,1.484-2.761,1.93-5.318,2.227-2.453.3-14.531.3-16.841.3-.63,0-.661-.593-.531-1.632L2146,621.323c.13-1.038.395-1.484.92-1.484,2.1,0,13.091.3,14.839.594,5.14.89,5.968,2.671,6.37,5.343a19.817,19.817,0,0,1,.038,4.75c-.223,1.781-.124,2.672.612,2.672s1.056-.891,1.254-1.633c.432-1.781,1.457-8.312,1.746-9.8,1.167-6.828,1.915-8.609,2.045-9.648C2173.917,611.378,2173.886,610.785,2173.361,610.785Z" transform="translate(-106.895 -251.279)"/><path class="cls-4" d="M2260.143,613.9c-3.1-.446-6.6-1.781-10.5-2.524a71.427,71.427,0,0,0-15.042-1.484c-15.649,0-26.366,5.937-35.151,15.734-11.712,13.062-16.1,30.577-17.362,40.67-1.8,14.4-1.139,31.022,7.56,43.788,8.094,11.726,19.617,16.179,34,16.179,6.722,0,14.833-1.04,19.33-3.414,1.916-1.039,2.428-1.782,3.268-4.3,1.68-5.047,4.551-17.96,4.774-19.741.148-1.188.067-2.227-.668-2.227-.84,0-1.124.594-1.736,2.969a33.781,33.781,0,0,1-4.792,9.8c-5.054,6.828-10.91,8.312-20.257,8.312-14.073,0-30.9-17.514-26.489-52.841,1.8-14.4,5.551-28.5,14.458-38.444,5.362-5.937,11.756-9.2,20.893-9.2,9.662,0,17.353,4.008,20.171,9.2a24.2,24.2,0,0,1,2.392,13.656c-.259,2.078-.216,3.414.624,3.414.946,0,1.322-1.336,1.706-3.563.58-2.968,1.493-11.132,2.314-16.03.859-5.195,1.4-6.976,1.544-8.164C2261.292,614.792,2261.279,614.05,2260.143,613.9Z" transform="translate(-106.895 -251.279)"/><path class="cls-4" d="M2339.389,610.933a20.441,20.441,0,0,0-2.928.742,37.4,37.4,0,0,1-7.338.742h-41.59a75.851,75.851,0,0,1-10.409-.742c-2.589-.3-3.454-1.781-4.294-1.781-.63,0-1.056.891-1.613,2.82-.358,1.188-4.038,14.695-4.334,17.07-.2,1.633-.087,2.375.648,2.375.63,0,1.02-.594,1.378-1.782a24.374,24.374,0,0,1,2.434-5.194c1.982-3.266,4.6-4.008,10.724-4.3,5.164-.148,11.713-.445,15.722-.593l-7.592,60.856c-1.7,13.656-3.167,25.382-4.47,31.616-.852,4.305-1.89,7.57-4.064,8.164a13.15,13.15,0,0,1-3.856.594c-1.26,0-1.735.445-1.828,1.187-.13,1.039.55,1.485,1.916,1.485,4.2,0,10.873-.446,13.288-.446,2.94,0,9.5.446,16.433.446,1.155,0,2.051-.446,2.18-1.485.093-.742-.376-1.187-1.532-1.187a30.332,30.332,0,0,1-5.282-.594c-3.077-.594-3.3-3.859-3.095-8.015.27-6.383,1.733-18.109,3.437-31.765l7.593-60.856c6.177.148,10.466.3,13.177.445,9.311.3,11.627,4.453,11.356,8.312-.056.445-.043,1.187-.1,1.632-.172,2.227-.055,2.969.785,2.969.63,0,.951-.891,1.241-2.375.482-3.859,2.075-14.1,2.463-17.218C2340.118,611.824,2340.125,610.933,2339.389,610.933Z" transform="translate(-106.895 -251.279)"/><path class="cls-4" d="M1722.783,1480.615c-4.38,0-9.017.438-11.28.438-2.044,0-6.6-.438-10.473-.438-1.1,0-1.632.291-1.722,1.314s.322,1.314,1.125,1.314a7.478,7.478,0,0,1,2.808.438c2.32,1.021,2.7,3.358,2.406,8.321-.266,4.673-.626,8.761-2.583,30.951l-2.265,25.695c-1.185,13.432-2.2,24.965-3.107,31.1-.666,4.234-1.313,7.445-2.825,8.03a6.727,6.727,0,0,1-2.679.584,1.116,1.116,0,0,0-1.271,1.167c-.09,1.023.382,1.46,1.331,1.46,1.46,0,3.384-.292,5.063-.292,1.764-.145,3.371-.145,4.173-.145a51.984,51.984,0,0,1,7.077.875,54.892,54.892,0,0,0,8.318.877c13.5,0,22.01-10.366,25.973-17.228,4.821-8.322,9.926-22.337,11.548-40.732,1.532-17.373-.831-29.491-3.812-37.083C1744.1,1480.615,1731.908,1480.615,1722.783,1480.615Zm21.462,57.959c-1.326,15.038-3.957,28.323-9.337,36.354-5.05,7.592-10.271,10.51-17.716,10.51-5.767,0-8.344-3.065-9.048-5.839-.443-1.606-.074-7.446.175-11.1.171-2.773,1.09-14.015,2.454-29.49l1.622-18.395c1.017-11.535,2.137-24.235,2.647-29.2.142-1.607.425-2.336,1.133-2.921.636-.583,3.375-1.021,4.835-1.021,5.695,0,13.861,1.752,19.445,14.6C1743.066,1508.062,1745.879,1520.033,1744.245,1538.574Z" transform="translate(-106.895 -251.279)"/><path class="cls-4" d="M1802.528,1479.447c-.365,0-.841.438-1.219.584a17.01,17.01,0,0,1-3.217.875c-1.4.147-15.925.147-18.261.147-3.8,0-7.116-.438-10.474-.438-1.1,0-1.632.291-1.722,1.314s.323,1.314,1.125,1.314a7.478,7.478,0,0,1,2.808.438c2.32,1.021,2.7,3.358,2.406,8.321-.266,4.673-.626,8.761-2.583,30.951l-2.265,25.695c-1.185,13.432-2.2,24.965-3.107,31.1-.665,4.234-1.313,7.445-2.825,8.03a6.727,6.727,0,0,1-2.679.584,1.117,1.117,0,0,0-1.271,1.167c-.09,1.023.382,1.46,1.331,1.46,3.285,0,6.317-.437,9.237-.437,7.3,0,13.646.875,20.143.875,2.774,0,3.431,0,4.276-3.8.623-2.92,2.082-12.847,2.378-16.2.129-1.46.232-2.629-.352-2.629-.511,0-.709.585-1,2.191-1.039,5.986-2.185,9.051-4.238,10.8s-5.118,1.752-7.016,1.752c-7.445,0-8.421-2.19-7.678-12.264.3-4.234,1.557-17.665,2-22.629l1.016-11.534c.077-.875.2-1.459.567-1.459,1.752,0,8.966.146,10.327.438,2.649.584,3.479,2.773,3.586,5.694.052,1.9-.025,2.774-.081,4.234-.065.73-.06,2.335.45,2.335.658,0,.8-1.605.9-2.773.091-1.022.824-6.862,1.155-9.782.948-7.446,1.446-9.782,1.524-10.657s-.116-1.169-.408-1.169c-.365,0-.722.73-1.336,1.9-.786,1.46-1.919,1.9-3.7,2.19-1.7.292-10.1.292-11.7.292-.438,0-.46-.584-.37-1.606l3.257-36.937c.09-1.021.275-1.459.64-1.459,1.46,0,9.1.292,10.313.585,3.574.874,4.149,2.626,4.428,5.254a27.419,27.419,0,0,1,.026,4.672c-.154,1.752-.085,2.628.426,2.628s.734-.876.871-1.606c.3-1.751,1.013-8.175,1.215-9.636.81-6.715,1.33-8.467,1.42-9.489C1802.915,1480.031,1802.893,1479.447,1802.528,1479.447Z" transform="translate(-106.895 -251.279)"/><path class="cls-4" d="M1836.589,1480.615c-3.358,0-7.631.438-10.624.438-2.044,0-6.6-.438-10.473-.438-1.1,0-1.631.291-1.721,1.314s.321,1.314,1.125,1.314a7.482,7.482,0,0,1,2.808.438c2.319,1.021,2.7,3.358,2.4,8.321-.266,4.673-.626,8.761-2.583,30.951l-2.265,25.695c-1.184,13.432-2.2,24.965-3.106,31.1-.666,4.234-1.314,7.445-2.825,8.03a6.74,6.74,0,0,1-2.68.584,1.116,1.116,0,0,0-1.271,1.167c-.09,1.023.382,1.46,1.331,1.46,2.92,0,7.558-.437,9.237-.437,1.9,0,6.458.437,11.276.437a1.427,1.427,0,0,0,1.516-1.46.947.947,0,0,0-1.065-1.167,15.218,15.218,0,0,1-3.672-.584c-2.139-.585-2.293-3.8-2.151-7.884.188-6.278,1.2-17.811,2.389-31.243l5.149-58.4c.141-1.605.437-2.481.828-2.773a5.8,5.8,0,0,1,2.9-.583c1.679,0,4.814.875,7.017,5.693,3.444,7.3,2.6,16.935,2.17,21.753-1.313,14.89-7.83,24.234-11.918,24.234-1.533,0-2.082.439-2.185,1.607-.091,1.022.407,1.168.759,1.314a5.341,5.341,0,0,0,1.521.146c10.365,0,19.295-15.184,20.879-33.141.888-10.073-.495-15.913-1.818-19.125C1848.145,1486.163,1845.714,1480.615,1836.589,1480.615Z" transform="translate(-106.895 -251.279)"/><path class="cls-4" d="M1896.479,1479.447c-.366,0-.842.438-1.22.584a16.988,16.988,0,0,1-3.217.875c-1.4.147-15.925.147-18.261.147-3.8,0-7.116-.438-10.473-.438-1.1,0-1.633.291-1.723,1.314s.323,1.314,1.125,1.314a7.487,7.487,0,0,1,2.809.438c2.319,1.021,2.7,3.358,2.4,8.321-.266,4.673-.626,8.761-2.583,30.951l-2.265,25.695c-1.184,13.432-2.2,24.965-3.107,31.1-.665,4.234-1.313,7.445-2.824,8.03a6.732,6.732,0,0,1-2.68.584,1.117,1.117,0,0,0-1.271,1.167c-.09,1.023.383,1.46,1.331,1.46,3.285,0,6.317-.437,9.237-.437,7.3,0,13.646.875,20.143.875,2.774,0,3.431,0,4.277-3.8.622-2.92,2.081-12.847,2.377-16.2.129-1.46.232-2.629-.352-2.629-.511,0-.709.585-1,2.191-1.039,5.986-2.185,9.051-4.237,10.8s-5.119,1.752-7.017,1.752c-7.445,0-8.42-2.19-7.678-12.264.3-4.234,1.557-17.665,1.995-22.629l1.017-11.534c.077-.875.2-1.459.566-1.459,1.752,0,8.966.146,10.328.438,2.648.584,3.478,2.773,3.586,5.694.051,1.9-.026,2.774-.082,4.234-.064.73-.06,2.335.451,2.335.657,0,.8-1.605.9-2.773.09-1.022.823-6.862,1.154-9.782.949-7.446,1.447-9.782,1.524-10.657s-.116-1.169-.408-1.169c-.365,0-.722.73-1.335,1.9-.787,1.46-1.92,1.9-3.7,2.19-1.7.292-10.1.292-11.7.292-.438,0-.46-.584-.369-1.606l3.256-36.937c.09-1.021.275-1.459.64-1.459,1.46,0,9.1.292,10.314.585,3.573.874,4.148,2.626,4.427,5.254a27.553,27.553,0,0,1,.027,4.672c-.155,1.752-.086,2.628.425,2.628s.734-.876.871-1.606c.3-1.751,1.013-8.175,1.215-9.636.81-6.715,1.33-8.467,1.42-9.489C1896.865,1480.031,1896.843,1479.447,1896.479,1479.447Z" transform="translate(-106.895 -251.279)"/><path class="cls-4" d="M1955.057,1588.359a5.75,5.75,0,0,1-2.005-.438c-1.057-.439-3.887-1.46-7.228-9.928-3.509-9.052-7.387-22.191-12.443-38.542,8.429-11.972,11.481-21.754,12.433-32.557.864-9.782-1.4-17.227-3.2-20-3.466-5.4-8.279-6.279-12.878-6.279-2.263,0-7.849.438-10.331.438-1.533,0-6.093-.438-9.963-.438-1.094,0-1.631.291-1.721,1.314s.321,1.314,1.125,1.314a7.478,7.478,0,0,1,2.808.438c2.319,1.021,2.7,3.358,2.406,8.321-.267,4.673-.627,8.761-2.583,30.951l-2.266,25.695c-1.184,13.432-2.2,24.965-3.106,31.1-.666,4.234-1.314,7.445-2.825,8.03a6.735,6.735,0,0,1-2.679.584,1.116,1.116,0,0,0-1.271,1.167c-.091,1.023.381,1.46,1.331,1.46,2.92,0,7.557-.437,8.944-.437,1.1,0,6.458.437,10.692.437a1.414,1.414,0,0,0,1.59-1.46c.063-.729-.19-1.167-.774-1.167a16.6,16.6,0,0,1-3.526-.584c-2.138-.585-2.293-3.8-2.138-8.03.175-6.132,1.192-17.665,2.389-31.243l.18-2.044c.077-.875.322-1.167.687-1.167l6.106.292c.511,0,.937.146,1.224,1.021.756,2.191,3.238,12.118,5.451,20.147,3.1,11.242,5.265,18.1,8.108,21.462,1.718,2.044,3.478,2.773,7.566,2.773h7.154c.875,0,1.413-.292,1.516-1.46C1955.9,1588.8,1955.641,1588.359,1955.057,1588.359Zm-24.737-52.266c-1.482,1.9-2.482,2.481-5.4,2.481a9.862,9.862,0,0,1-5.419-1.46c-.473-.437-.567-1.021-.425-2.627l3.912-44.383c.1-1.166.3-1.751.838-2.043a8.7,8.7,0,0,1,3.92-.584c4.307,0,10.641,5.986,8.813,26.716C1935.5,1526.166,1932.793,1532.881,1930.32,1536.093Z" transform="translate(-106.895 -251.279)"/><path class="cls-4" d="M2005.123,1497.4c-.039.438-.029,1.168-.068,1.607-.119,2.189-.039,2.92.545,2.92.439,0,.662-.877.863-2.337.335-3.8,1.441-13.869,1.713-16.936.192-2.189.2-3.064-.315-3.064a10.871,10.871,0,0,0-2.035.729,18.729,18.729,0,0,1-5.1.73h-28.907a37.647,37.647,0,0,1-7.236-.73c-1.8-.292-2.4-1.752-2.984-1.752-.438,0-.735.876-1.12,2.775-.249,1.167-2.808,14.452-3.014,16.789-.142,1.605-.06,2.336.452,2.336.438,0,.708-.585.957-1.752a29.511,29.511,0,0,1,1.691-5.111c1.378-3.212,3.194-3.941,7.455-4.233,3.588-.146,8.141-.437,10.927-.584l-5.276,59.857c-1.185,13.432-2.2,24.965-3.108,31.1-.591,4.234-1.313,7.445-2.824,8.03a6.735,6.735,0,0,1-2.679.584,1.117,1.117,0,0,0-1.272,1.167c-.09,1.023.383,1.46,1.332,1.46,2.92,0,7.557-.437,9.236-.437,2.043,0,6.6.437,11.422.437a1.426,1.426,0,0,0,1.516-1.46.947.947,0,0,0-1.064-1.167,15.21,15.21,0,0,1-3.672-.584c-2.139-.585-2.294-3.8-2.153-7.884.189-6.278,1.2-17.811,2.39-31.243l5.277-59.857c4.294.147,7.275.292,9.159.438C2003.7,1489.521,2005.312,1493.608,2005.123,1497.4Z" transform="translate(-106.895 -251.279)"/><path class="cls-4" d="M2075.505,1588.359a7.6,7.6,0,0,1-4.4-1.461c-2.074-1.313-2.43-5.547-2.276-14.745l1.312-90.224c.05-3.066-.258-4.527-.915-4.527s-1.125,1.169-1.916,3.5l-27.2,83.364-12.669-82.341c-.614-3.8-.987-4.527-1.571-4.527s-1.138,1.315-1.576,3.8l-15.619,95.189c-.8,4.964-1.889,10.658-4.01,11.534a5.148,5.148,0,0,1-2.228.438c-.73,0-1.194.291-1.258,1.022-.116,1.313.441,1.605,1.172,1.605,2.336,0,5.879-.437,7.265-.437,1.315,0,4.561.437,7.626.437,1.1,0,1.779-.292,1.894-1.605.064-.731-.42-1.022-1-1.022a7.1,7.1,0,0,1-3-.73c-1.189-.584-2.023-1.9-1.778-4.672.206-2.336.446-4.233.824-6.862l9.081-59.127c1.59,10.949,4.476,30.367,4.863,33.432.516,4.088,4.314,26.425,5.474,33.141.782,4.38,1.254,7.3,1.911,7.3s1.139-1.315,3.422-8.176l22.054-67.157-1.289,65.113c-.068,4.088-.455,5.986-.918,6.277a2.154,2.154,0,0,0-.945,1.607c-.077.876.322,1.314,1.975,1.606,2.882.438,12.918.875,14.742.875a1.789,1.789,0,0,0,2.039-1.605C2076.66,1588.505,2076.162,1588.359,2075.505,1588.359Z" transform="translate(-106.895 -251.279)"/><path class="cls-4" d="M2125.185,1479.447c-.366,0-.841.438-1.22.584a17,17,0,0,1-3.215.875c-1.4.147-15.928.147-18.264.147-3.8,0-7.114-.438-10.472-.438-1.1,0-1.631.291-1.722,1.314s.321,1.314,1.125,1.314a7.484,7.484,0,0,1,2.809.438c2.319,1.021,2.7,3.358,2.4,8.321-.266,4.673-.627,8.761-2.583,30.951l-2.265,25.695c-1.184,13.432-2.2,24.965-3.107,31.1-.665,4.234-1.314,7.445-2.824,8.03a6.74,6.74,0,0,1-2.68.584,1.117,1.117,0,0,0-1.272,1.167c-.089,1.023.383,1.46,1.332,1.46,3.286,0,6.317-.437,9.237-.437,7.3,0,13.646.875,20.142.875,2.775,0,3.432,0,4.278-3.8.622-2.92,2.081-12.847,2.377-16.2.129-1.46.232-2.629-.352-2.629-.512,0-.709.585-1,2.191-1.038,5.986-2.185,9.051-4.237,10.8s-5.118,1.752-7.016,1.752c-7.446,0-8.421-2.19-7.679-12.264.3-4.234,1.558-17.665,1.995-22.629l1.017-11.534c.077-.875.2-1.459.567-1.459,1.752,0,8.965.146,10.327.438,2.65.584,3.478,2.773,3.586,5.694.051,1.9-.026,2.774-.081,4.234-.065.73-.06,2.335.451,2.335.657,0,.8-1.605.9-2.773.09-1.022.824-6.862,1.154-9.782.95-7.446,1.448-9.782,1.524-10.657s-.115-1.169-.408-1.169c-.365,0-.721.73-1.335,1.9-.787,1.46-1.919,1.9-3.7,2.19-1.7.292-10.1.292-11.7.292-.437,0-.46-.584-.369-1.606l3.257-36.937c.09-1.021.274-1.459.639-1.459,1.461,0,9.1.292,10.314.585,3.572.874,4.149,2.626,4.428,5.254a27.419,27.419,0,0,1,.026,4.672c-.155,1.752-.086,2.628.425,2.628s.734-.876.872-1.606c.3-1.751,1.013-8.175,1.214-9.636.811-6.715,1.331-8.467,1.421-9.489C2125.571,1480.031,2125.55,1479.447,2125.185,1479.447Z" transform="translate(-106.895 -251.279)"/><path class="cls-4" d="M2195.088,1480.615c-3.577,0-6.39.438-7.193.438-1.533,0-5-.438-8.793-.438-1.1,0-1.913.146-2.015,1.314-.077.876.177,1.314,1.052,1.314,1.022,0,2.774,0,3.793.876,1.623,1.46,2.035,4.234,1.322,13.139l-5.113,66.282c-1.036-2.337-9.337-24.089-13.426-34.018-8.791-21.168-17.789-44.965-18.5-46.864-1.009-2.627-1.5-4.525-2.3-4.525-.73,0-1.129,2.044-1.387,4.965-1.857,19.417-5.329,55.476-8.277,86.427-1.192,12.7-1.857,16.936-3.858,18.1a7.285,7.285,0,0,1-3.35.73,1.116,1.116,0,0,0-1.271,1.167c-.116,1.315.528,1.46,1.477,1.46,3.8,0,7.266-.437,7.923-.437,1.387,0,4.268.437,9.013.437,1.021,0,1.7-.292,1.808-1.46.076-.876-.336-1.167-1.139-1.167a5.975,5.975,0,0,1-3.706-1.022c-1.37-1.022-1.983-4.817-1.126-16.2l4.643-61.756c1.068,2.773,7.743,21.461,14.31,37.228,6.265,15.039,13.922,34.164,17.751,42.922.66,1.607,1.394,3.212,2.2,3.212.658,0,1.065-1.314,1.348-4.525,3.008-30.805,5.917-61.317,8.925-92.123.794-8.175,1.649-11.241,3.8-12.409a4.4,4.4,0,0,1,2.229-.438,1.282,1.282,0,0,0,1.429-1.314C2196.754,1480.761,2196.037,1480.615,2195.088,1480.615Z" transform="translate(-106.895 -251.279)"/><path class="cls-4" d="M2250.584,1479.594a10.871,10.871,0,0,0-2.035.729,18.737,18.737,0,0,1-5.1.73h-28.906a37.647,37.647,0,0,1-7.236-.73c-1.8-.292-2.4-1.752-2.985-1.752-.437,0-.734.876-1.12,2.775-.249,1.167-2.807,14.452-3.013,16.789-.142,1.605-.06,2.336.452,2.336.437,0,.708-.585.957-1.752a29.423,29.423,0,0,1,1.691-5.111c1.378-3.212,3.193-3.941,7.454-4.233,3.589-.146,8.142-.437,10.928-.584l-5.276,59.857c-1.185,13.432-2.2,24.965-3.108,31.1-.592,4.234-1.313,7.445-2.824,8.03a6.74,6.74,0,0,1-2.68.584,1.116,1.116,0,0,0-1.271,1.167c-.09,1.023.383,1.46,1.332,1.46,2.92,0,7.556-.437,9.236-.437,2.043,0,6.6.437,11.422.437a1.426,1.426,0,0,0,1.516-1.46.947.947,0,0,0-1.065-1.167,15.21,15.21,0,0,1-3.672-.584c-2.138-.585-2.294-3.8-2.152-7.884.188-6.278,1.2-17.811,2.39-31.243l5.277-59.857c4.294.147,7.274.292,9.159.438,6.471.292,8.082,4.379,7.893,8.175-.039.438-.03,1.168-.069,1.607-.119,2.189-.039,2.92.545,2.92.44,0,.662-.877.864-2.337.335-3.8,1.441-13.869,1.712-16.936C2251.091,1480.469,2251.1,1479.594,2250.584,1479.594Z" transform="translate(-106.895 -251.279)"/><path class="cls-4" d="M2308.635,1478.571c-21.9,0-32.992,32.265-35.194,57.23-2.278,25.842,3.422,57.229,24.372,57.229,18.542,0,32.551-26.425,35.5-59.857S2326.811,1478.571,2308.635,1478.571Zm13.981,60c-3.72,42.194-15.983,47.156-21.093,47.156-14.015,0-20.287-24.087-17.609-54.456,3.2-36.351,13.591-45.695,21.986-45.695C2317.871,1485.579,2325.5,1505.872,2322.616,1538.574Z" transform="translate(-106.895 -251.279)"/><path class="cls-4" d="M2382.286,1479.447c-.365,0-.782.584-1.245.876a7.819,7.819,0,0,1-3.045.583c-1.691.147-16.51.147-19.283.147-3.8,0-7.115-.438-10.474-.438-1.094,0-1.7.291-1.807,1.46-.078.875.408,1.168,1.137,1.168a7.48,7.48,0,0,1,2.809.438c2.319,1.021,2.7,3.358,2.4,8.321-.265,4.673-.627,8.761-2.583,30.951l-2.264,25.695c-1.237,14.016-2.2,24.965-3.108,31.1-.665,4.234-1.313,7.445-2.824,8.03a6.74,6.74,0,0,1-2.68.584c-.8,0-1.134.438-1.2,1.167-.1,1.168.381,1.46,1.4,1.46,2.775,0,7.411-.437,9.31-.437s6.457.437,11.056.437c1.1,0,1.645-.437,1.735-1.46.064-.729-.189-1.167-1.138-1.167a15.218,15.218,0,0,1-3.6-.584c-2.139-.585-2.293-3.8-2.139-8.03.176-6.132,1.14-17.081,2.377-31.1l1.043-11.826c.09-1.021.262-1.312.626-1.312,1.241,0,8.979,0,10.764.437,2.213.583,3.077,3.212,3.26,5.256a30.12,30.12,0,0,1,.039,4.526c-.09,1.022-.034,2.043.405,2.043.729,0,.858-1.46.974-2.773.09-1.022.828-7.738,1.233-10.658.617-4.527,1.3-8.175,1.38-9.052s-.029-1.314-.322-1.314c-.437,0-.635.585-1.078,1.461-1.266,2.774-2.434,2.774-6.668,2.774-2.628,0-7.385.145-9.356.145-.438,0-.472-.438-.4-1.314l3.219-36.5c.14-1.6.4-2.044.837-2.044,2.177.147,8.661.293,11.2.44,2.762.145,4.1,2.334,4.433,4.378a27.626,27.626,0,0,1-.052,5.548c-.069,1.607.013,2.336.525,2.336s.733-.876.909-2.044c.3-1.752,1.206-10.365,1.408-11.825.553-3.8,1.074-5.548,1.164-6.57C2382.746,1480.031,2382.578,1479.447,2382.286,1479.447Z" transform="translate(-106.895 -251.279)"/><path class="cls-4" d="M2530.362,1588.359a7.985,7.985,0,0,1-3.014-.584c-1.469-.73-3.4-2.774-5.021-15.914-2.716-22.191-9.143-81.757-10.187-89.786-.434-3.358-.829-4.673-1.413-4.673-.657,0-1.31,1.607-2.559,5.841l-26.406,91.685c-2.1,7.3-3.928,12.262-7.364,13.139-.208.051-.457.1-.715.145a8.692,8.692,0,0,1-2.98-1.314c-2.073-1.313-2.43-5.547-2.275-14.745l1.311-90.224c.051-3.066-.258-4.527-.915-4.527s-1.125,1.169-1.914,3.5l-27.2,83.364-12.67-82.341c-.614-3.8-.988-4.527-1.572-4.527s-1.138,1.315-1.575,3.8l-15.618,95.189c-.8,4.964-1.889,10.658-4.01,11.534a5.157,5.157,0,0,1-2.23.438c-.729,0-1.194.291-1.259,1.022-.115,1.313.444,1.605,1.174,1.605,2.336,0,5.878-.437,7.265-.437,1.314,0,4.56.437,7.626.437,1.1,0,1.778-.292,1.894-1.605.065-.731-.42-1.022-1-1.022a7.1,7.1,0,0,1-3-.73c-1.191-.584-2.023-1.9-1.779-4.672.207-2.336.446-4.233.825-6.862l9.082-59.127c1.589,10.949,4.476,30.367,4.863,33.432.515,4.088,4.312,26.425,5.473,33.141.781,4.38,1.254,7.3,1.911,7.3s1.137-1.315,3.422-8.176l22.053-67.157-1.287,65.113c-.07,4.088-.456,5.986-.92,6.277a2.149,2.149,0,0,0-.943,1.607c-.078.876.321,1.314,1.974,1.606,2.224.338,8.7.675,12.38.811a2.382,2.382,0,0,0,.611.064c.349,0,.7,0,1.05-.011.287.007.537.011.7.011a3.136,3.136,0,0,0,.508-.045c3.016-.111,5.749-.392,6.393-.392,2.263,0,5.362.437,7.7.437.805,0,1.268-.292,1.371-1.46.077-.876-.116-1.167-.992-1.167h-1.1c-2.263,0-2.753-1.9-2.52-4.526a55.186,55.186,0,0,1,1.879-8.9l5.782-20.878c.224-.876.4-1.167.761-1.167H2510.2c.365,0,.559.291.641,1.02l3.111,30.952c.21,1.752-.416,3.066-.953,3.358a1.291,1.291,0,0,0-1.137,1.313c-.078.877.274,1.023,1.575,1.168,5.814.292,11.654.292,14.283.292,2.7,0,3.382-.292,3.486-1.46C2531.285,1588.65,2530.946,1588.359,2530.362,1588.359Zm-20.9-42.776h-13.432c-.293,0-.327-.438-.2-1.022l9.882-35.915c.447-1.752.7-1.315.8,0l3.391,36.06C2509.938,1545.145,2509.826,1545.583,2509.461,1545.583Z" transform="translate(-106.895 -251.279)"/><path class="cls-4" d="M2562.2,1480.615c-2.774,0-7.12.438-8.944.438-2.117,0-6.678-.438-9.451-.438-1.168,0-1.778.291-1.856,1.168-.1,1.167.309,1.46,1.039,1.46a5.243,5.243,0,0,1,2.577.584c1.542.73,2.053,3.212,1.761,8.175-.265,4.673-.626,8.761-2.582,30.951l-2.265,25.695c-1.249,14.162-2.266,25.7-3.172,31.828-.592,4.233-1.248,6.714-2.76,7.3a6.731,6.731,0,0,1-2.679.584,1.114,1.114,0,0,0-1.27,1.167c-.091,1.023.381,1.46,1.33,1.46,2.92,0,7.557-.437,9.236-.437,1.971,0,6.531.437,11.35.437a1.426,1.426,0,0,0,1.515-1.46.947.947,0,0,0-1.065-1.167,15.2,15.2,0,0,1-3.671-.584c-2.139-.585-2.418-3.212-2.289-7.154.261-6.278,1.277-17.811,2.526-31.973l2.265-25.695c1.957-22.19,2.317-26.278,2.875-30.951.6-5.108,1.4-7.592,3.434-8.321a6.831,6.831,0,0,1,2.23-.438c.728,0,1.193-.293,1.3-1.46C2563.707,1480.906,2563.149,1480.615,2562.2,1480.615Z" transform="translate(-106.895 -251.279)"/><path class="cls-4" d="M2632.645,1480.615c-3.578,0-6.391.438-7.194.438-1.533,0-5-.438-8.794-.438-1.1,0-1.911.146-2.013,1.314-.078.876.176,1.314,1.051,1.314,1.022,0,2.774,0,3.793.876,1.623,1.46,2.035,4.234,1.323,13.139l-5.114,66.282c-1.035-2.337-9.337-24.089-13.426-34.018-8.791-21.168-17.789-44.965-18.5-46.864-1.009-2.627-1.5-4.525-2.3-4.525-.731,0-1.129,2.044-1.387,4.965-1.858,19.417-5.328,55.476-8.277,86.427-1.194,12.7-1.858,16.936-3.859,18.1a7.278,7.278,0,0,1-3.349.73,1.115,1.115,0,0,0-1.271,1.167c-.116,1.315.527,1.46,1.477,1.46,3.8,0,7.265-.437,7.922-.437,1.387,0,4.269.437,9.013.437,1.022,0,1.7-.292,1.809-1.46.076-.876-.335-1.167-1.139-1.167a5.974,5.974,0,0,1-3.706-1.022c-1.37-1.022-1.983-4.817-1.126-16.2l4.643-61.756c1.068,2.773,7.743,21.461,14.308,37.228,6.267,15.039,13.924,34.164,17.752,42.922.66,1.607,1.395,3.212,2.2,3.212.659,0,1.066-1.314,1.349-4.525,3.008-30.805,5.917-61.317,8.925-92.123.794-8.175,1.648-11.241,3.8-12.409a4.4,4.4,0,0,1,2.228-.438,1.283,1.283,0,0,0,1.43-1.314C2634.311,1480.761,2633.594,1480.615,2632.645,1480.615Z" transform="translate(-106.895 -251.279)"/><path class="cls-4" d="M2663.073,1548.648l5.278-59.857c4.294.147,7.274.292,9.158.438,6.471.292,8.082,4.379,7.893,8.175-.039.438-.031,1.168-.069,1.607-.12,2.189-.038,2.92.546,2.92.437,0,.662-.877.863-2.337.335-3.8,1.442-13.869,1.713-16.936.192-2.189.2-3.064-.314-3.064a10.869,10.869,0,0,0-2.036.729,18.735,18.735,0,0,1-5.1.73H2652.1a37.649,37.649,0,0,1-7.237-.73c-1.8-.292-2.4-1.752-2.984-1.752-.438,0-.734.876-1.121,2.775-.248,1.167-2.807,14.452-3.013,16.789-.141,1.605-.059,2.336.452,2.336.438,0,.707-.585.957-1.752a29.423,29.423,0,0,1,1.691-5.111c1.379-3.212,3.194-3.941,7.454-4.233,3.59-.146,8.141-.437,10.929-.584l-5.278,59.857c-1.184,13.432-2.2,24.965-3.106,31.1-.593,4.234-1.315,7.445-2.824,8.03a6.741,6.741,0,0,1-2.681.584,1.117,1.117,0,0,0-1.271,1.167c-.09,1.023.383,1.46,1.332,1.46,2.918,0,7.557-.437,9.236-.437,2.044,0,6.6.437,11.423.437a1.426,1.426,0,0,0,1.515-1.46.947.947,0,0,0-1.065-1.167,15.2,15.2,0,0,1-3.671-.584c-2.14-.585-2.294-3.8-2.152-7.884C2660.872,1573.613,2661.889,1562.08,2663.073,1548.648Z" transform="translate(-106.895 -251.279)"/><path class="cls-4" d="M2734.907,1588.359a7.974,7.974,0,0,1-3.014-.584c-1.469-.73-3.407-2.774-5.022-15.914-2.715-22.191-9.143-81.757-10.187-89.786-.435-3.358-.83-4.673-1.413-4.673-.658,0-1.31,1.607-2.56,5.841l-26.4,91.685c-2.1,7.3-3.929,12.262-7.365,13.139a10.215,10.215,0,0,1-2.142.292c-.584,0-1.048.291-1.124,1.167-.1,1.168.308,1.46,1.258,1.46,3.795,0,7.848-.437,8.652-.437,2.263,0,5.363.437,7.7.437.8,0,1.267-.292,1.369-1.46.078-.876-.115-1.167-.991-1.167h-1.1c-2.262,0-2.753-1.9-2.52-4.526a55.13,55.13,0,0,1,1.881-8.9l5.781-20.878c.224-.876.395-1.167.76-1.167h16.279c.365,0,.558.291.641,1.02l3.11,30.952c.211,1.752-.417,3.066-.953,3.358a1.293,1.293,0,0,0-1.138,1.313c-.078.877.275,1.023,1.576,1.168,5.815.292,11.655.292,14.282.292,2.7,0,3.383-.292,3.486-1.46C2735.83,1588.65,2735.491,1588.359,2734.907,1588.359Zm-20.9-42.776h-13.432c-.291,0-.326-.438-.2-1.022l9.882-35.915c.446-1.752.7-1.315.8,0l3.391,36.06C2714.48,1545.145,2714.369,1545.583,2714,1545.583Z" transform="translate(-106.895 -251.279)"/><path class="cls-4" d="M2766.744,1480.615c-2.774,0-7.119.438-8.945.438-2.115,0-6.676-.438-9.45-.438-1.168,0-1.779.291-1.855,1.168-.1,1.167.309,1.46,1.039,1.46a5.242,5.242,0,0,1,2.576.584c1.541.73,2.053,3.212,1.762,8.175-.267,4.673-.627,8.761-2.584,30.951l-2.265,25.695c-1.249,14.162-2.265,25.7-3.17,31.828-.592,4.233-1.25,6.714-2.76,7.3a6.741,6.741,0,0,1-2.681.584,1.115,1.115,0,0,0-1.27,1.167c-.091,1.023.382,1.46,1.332,1.46,2.92,0,7.556-.437,9.235-.437,1.971,0,6.53.437,11.349.437a1.426,1.426,0,0,0,1.515-1.46.946.946,0,0,0-1.064-1.167,15.226,15.226,0,0,1-3.672-.584c-2.139-.585-2.418-3.212-2.289-7.154.262-6.278,1.279-17.811,2.527-31.973l2.266-25.695c1.956-22.19,2.316-26.278,2.875-30.951.6-5.108,1.4-7.592,3.433-8.321a6.826,6.826,0,0,1,2.229-.438c.73,0,1.194-.293,1.3-1.46C2768.252,1480.906,2767.693,1480.615,2766.744,1480.615Z" transform="translate(-106.895 -251.279)"/><path class="cls-4" d="M2837.188,1480.615c-3.577,0-6.389.438-7.192.438-1.533,0-5-.438-8.8-.438-1.095,0-1.91.146-2.013,1.314-.078.876.175,1.314,1.052,1.314,1.022,0,2.774,0,3.791.876,1.623,1.46,2.037,4.234,1.324,13.139l-5.113,66.282c-1.035-2.337-9.338-24.089-13.426-34.018-8.791-21.168-17.789-44.965-18.5-46.864-1.009-2.627-1.5-4.525-2.3-4.525-.731,0-1.13,2.044-1.387,4.965-1.858,19.417-5.329,55.476-8.277,86.427-1.193,12.7-1.859,16.936-3.859,18.1a7.281,7.281,0,0,1-3.349.73,1.117,1.117,0,0,0-1.272,1.167c-.115,1.315.529,1.46,1.479,1.46,3.794,0,7.264-.437,7.921-.437,1.387,0,4.268.437,9.014.437,1.022,0,1.7-.292,1.807-1.46.078-.876-.335-1.167-1.138-1.167a5.974,5.974,0,0,1-3.706-1.022c-1.369-1.022-1.984-4.817-1.126-16.2l4.642-61.756c1.069,2.773,7.744,21.461,14.31,37.228,6.267,15.039,13.924,34.164,17.75,42.922.662,1.607,1.4,3.212,2.2,3.212.657,0,1.065-1.314,1.348-4.525,3.008-30.805,5.916-61.317,8.925-92.123.794-8.175,1.647-11.241,3.8-12.409a4.4,4.4,0,0,1,2.227-.438,1.283,1.283,0,0,0,1.431-1.314C2838.854,1480.761,2838.137,1480.615,2837.188,1480.615Z" transform="translate(-106.895 -251.279)"/><path class="cls-4" d="M2868.87,1480.615c-2.774,0-7.12.438-8.944.438-2.117,0-6.678-.438-9.451-.438-1.168,0-1.778.291-1.856,1.168-.1,1.167.309,1.46,1.039,1.46a5.243,5.243,0,0,1,2.577.584c1.542.73,2.053,3.212,1.761,8.175-.266,4.673-.626,8.761-2.582,30.951l-2.266,25.695c-1.248,14.162-2.265,25.7-3.171,31.828-.592,4.233-1.248,6.714-2.76,7.3a6.731,6.731,0,0,1-2.679.584,1.114,1.114,0,0,0-1.27,1.167c-.091,1.023.38,1.46,1.33,1.46,2.92,0,7.557-.437,9.236-.437,1.971,0,6.531.437,11.35.437a1.426,1.426,0,0,0,1.515-1.46.947.947,0,0,0-1.065-1.167,15.2,15.2,0,0,1-3.671-.584c-2.139-.585-2.418-3.212-2.289-7.154.261-6.278,1.277-17.811,2.526-31.973l2.265-25.695c1.957-22.19,2.317-26.278,2.875-30.951.6-5.108,1.4-7.592,3.434-8.321a6.826,6.826,0,0,1,2.23-.438c.728,0,1.193-.293,1.3-1.46C2870.377,1480.906,2869.819,1480.615,2868.87,1480.615Z" transform="translate(-106.895 -251.279)"/><path class="cls-4" d="M2939.314,1480.615c-3.577,0-6.39.438-7.193.438-1.533,0-5-.438-8.794-.438-1.1,0-1.911.146-2.014,1.314-.077.876.177,1.314,1.052,1.314,1.022,0,2.774,0,3.793.876,1.623,1.46,2.035,4.234,1.322,13.139l-5.113,66.282c-1.035-2.337-9.337-24.089-13.426-34.018-8.791-21.168-17.789-44.965-18.5-46.864-1.009-2.627-1.5-4.525-2.3-4.525-.731,0-1.129,2.044-1.387,4.965-1.859,19.417-5.328,55.476-8.277,86.427-1.194,12.7-1.858,16.936-3.859,18.1a7.278,7.278,0,0,1-3.349.73,1.115,1.115,0,0,0-1.271,1.167c-.116,1.315.527,1.46,1.477,1.46,3.8,0,7.265-.437,7.922-.437,1.387,0,4.269.437,9.013.437,1.022,0,1.705-.292,1.809-1.46.076-.876-.335-1.167-1.139-1.167a5.974,5.974,0,0,1-3.706-1.022c-1.37-1.022-1.983-4.817-1.126-16.2l4.643-61.756c1.068,2.773,7.743,21.461,14.308,37.228,6.267,15.039,13.924,34.164,17.752,42.922.66,1.607,1.395,3.212,2.2,3.212.659,0,1.066-1.314,1.349-4.525,3.008-30.805,5.917-61.317,8.925-92.123.794-8.175,1.648-11.241,3.8-12.409a4.4,4.4,0,0,1,2.228-.438,1.283,1.283,0,0,0,1.43-1.314C2940.98,1480.761,2940.264,1480.615,2939.314,1480.615Z" transform="translate(-106.895 -251.279)"/><path class="cls-4" d="M3000.984,1536.239c-2.408,0-6.316.438-8.578.438-2.191,0-6.751-.438-10.547-.438-1.021,0-1.558.291-1.662,1.46-.076.875.336,1.167.993,1.167a7.456,7.456,0,0,1,2.808.439c2.319,1.021,2.77,3.357,2.4,8.321-.312,4.38-.8,9.928-1.445,17.228l-1.21,13.723c-.219,2.483-.678,4.38-1.863,5.4-1.894,1.606-4.449,1.606-6.347,1.606-15.4,0-23.331-23.505-20.563-54.894,1.583-17.958,5.175-28.907,9.869-35.768,5.855-8.469,11.236-9.052,15.252-9.052,8.248,0,13.5,6.716,15.275,11.387,1.536,4.088,1.49,8.761,1.412,12.118-.029,1.168.052,1.9.563,1.9.584,0,.868-.73,1.074-3.066,1.609-18.25,2.48-22.337,2.621-23.943.09-1.022,0-1.607-.867-1.752a24.209,24.209,0,0,1-5.625-1.607,43.758,43.758,0,0,0-12.715-2.335c-6.133,0-12.719,1.023-20.473,9.49-7.35,8.029-14.851,24.38-16.912,47.74-3.552,40.294,10.8,57.229,28.681,57.229,5.693,0,12.989-1.606,18.171-6.569.967-1.023,1.065-1.315,1.412-5.256l1.416-16.059c.644-7.3,1.159-13.14,1.618-17.52.524-5.109,1.472-7.591,3.509-8.321a6.4,6.4,0,0,1,2.009-.439c.51,0,.975-.292,1.051-1.167C3002.42,1536.53,3001.934,1536.239,3000.984,1536.239Z" transform="translate(-106.895 -251.279)"/><path class="cls-4" d="M3095.021,1480.615c-3.578,0-6.39.438-7.193.438-1.533,0-5-.438-8.8-.438-1.095,0-1.91.146-2.013,1.314-.078.876.175,1.314,1.052,1.314,1.022,0,2.774,0,3.791.876,1.623,1.46,2.037,4.234,1.325,13.139l-5.114,66.282c-1.035-2.337-9.338-24.089-13.426-34.018-8.791-21.168-17.789-44.965-18.5-46.864-1.009-2.627-1.5-4.525-2.3-4.525-.731,0-1.13,2.044-1.387,4.965-1.858,19.417-5.329,55.476-8.277,86.427-1.193,12.7-1.859,16.936-3.859,18.1a7.281,7.281,0,0,1-3.349.73,1.117,1.117,0,0,0-1.272,1.167c-.115,1.315.529,1.46,1.479,1.46,3.795,0,7.264-.437,7.921-.437,1.387,0,4.268.437,9.014.437,1.022,0,1.7-.292,1.807-1.46.078-.876-.335-1.167-1.138-1.167a5.974,5.974,0,0,1-3.706-1.022c-1.369-1.022-1.984-4.817-1.126-16.2l4.642-61.756c1.069,2.773,7.744,21.461,14.31,37.228,6.267,15.039,13.924,34.164,17.75,42.922.662,1.607,1.4,3.212,2.2,3.212.657,0,1.065-1.314,1.348-4.525,3.008-30.805,5.916-61.317,8.925-92.123.794-8.175,1.647-11.241,3.8-12.409a4.4,4.4,0,0,1,2.227-.438,1.283,1.283,0,0,0,1.431-1.314C3096.686,1480.761,3095.969,1480.615,3095.021,1480.615Z" transform="translate(-106.895 -251.279)"/><path class="cls-4" d="M3135.35,1478.571c-21.9,0-32.993,32.265-35.194,57.23-2.278,25.842,3.422,57.229,24.372,57.229,18.542,0,32.552-26.425,35.5-59.857S3153.526,1478.571,3135.35,1478.571Zm13.981,60c-3.72,42.194-15.983,47.156-21.093,47.156-14.015,0-20.286-24.087-17.609-54.456,3.2-36.351,13.592-45.695,21.986-45.695C3144.587,1485.579,3152.215,1505.872,3149.331,1538.574Z" transform="translate(-106.895 -251.279)"/><path class="cls-4" d="M3344.888,1588.359a7.982,7.982,0,0,1-3.015-.584c-1.47-.73-3.406-2.774-5.021-15.914-2.715-22.191-9.144-81.757-10.188-89.786-.435-3.358-.829-4.673-1.413-4.673-.657,0-1.31,1.607-2.559,5.841l-26.406,91.685c-2.1,7.3-3.928,12.262-7.363,13.139-.209.051-.458.1-.715.145a8.68,8.68,0,0,1-2.979-1.314c-2.075-1.313-2.431-5.547-2.277-14.745l1.311-90.224c.051-3.066-.257-4.527-.914-4.527s-1.126,1.169-1.915,3.5l-27.205,83.364-12.669-82.341c-.615-3.8-.988-4.527-1.572-4.527s-1.138,1.315-1.576,3.8l-15.619,95.189c-.8,4.964-1.889,10.658-4.01,11.534l-.134.049c-.056-.02-.1-.027-.159-.049-1.055-.439-3.886-1.46-7.226-9.928-3.51-9.052-7.388-22.191-12.444-38.542,8.429-11.972,11.481-21.754,12.433-32.557.862-9.782-1.4-17.227-3.2-20-3.465-5.4-8.28-6.279-12.878-6.279-2.263,0-7.85.438-10.332.438-1.532,0-6.093-.438-9.961-.438-1.1,0-1.632.291-1.723,1.314s.323,1.314,1.126,1.314a7.478,7.478,0,0,1,2.808.438c2.319,1.021,2.7,3.358,2.405,8.321-.266,4.673-.626,8.761-2.582,30.951l-2.266,25.695c-1.184,13.432-2.2,24.965-3.107,31.1-.665,4.234-1.313,7.445-2.824,8.03a6.731,6.731,0,0,1-2.679.584,1.116,1.116,0,0,0-1.271,1.167c-.09,1.023.382,1.46,1.331,1.46,2.92,0,7.557-.437,8.944-.437,1.1,0,6.459.437,10.692.437a1.412,1.412,0,0,0,1.588-1.46c.065-.729-.188-1.167-.772-1.167a16.6,16.6,0,0,1-3.525-.584c-2.139-.585-2.3-3.8-2.14-8.03.175-6.132,1.192-17.665,2.389-31.243l.181-2.044c.077-.875.322-1.167.687-1.167l6.107.292c.511,0,.935.146,1.223,1.021.756,2.191,3.238,12.118,5.45,20.147,3.1,11.242,5.266,18.1,8.109,21.462,1.718,2.044,3.479,2.773,7.567,2.773h7.154a1.654,1.654,0,0,0,.969-.24c1.243-.1,2.365-.2,3.011-.2,1.314,0,4.561.437,7.627.437,1.1,0,1.778-.292,1.894-1.605.063-.731-.422-1.022-1.006-1.022a7.107,7.107,0,0,1-3-.73c-1.19-.584-2.023-1.9-1.779-4.672.206-2.336.447-4.233.825-6.862l9.081-59.127c1.59,10.949,4.477,30.367,4.864,33.432.516,4.088,4.313,26.425,5.473,33.141.781,4.38,1.254,7.3,1.911,7.3s1.138-1.315,3.422-8.176l22.054-67.157-1.289,65.113c-.068,4.088-.455,5.986-.917,6.277a2.155,2.155,0,0,0-.946,1.607c-.077.876.323,1.314,1.976,1.606,2.223.338,8.7.675,12.379.811a2.4,2.4,0,0,0,.612.064q.523,0,1.05-.011c.286.007.536.011.7.011a3.138,3.138,0,0,0,.509-.045c3.015-.111,5.749-.392,6.393-.392,2.263,0,5.364.437,7.7.437.8,0,1.266-.292,1.369-1.46.077-.876-.115-1.167-.991-1.167h-1.1c-2.263,0-2.753-1.9-2.522-4.526a55.463,55.463,0,0,1,1.881-8.9l5.782-20.878c.224-.876.4-1.167.761-1.167h16.279c.365,0,.557.291.639,1.02l3.111,30.952c.211,1.752-.417,3.066-.953,3.358a1.293,1.293,0,0,0-1.138,1.313c-.077.877.275,1.023,1.577,1.168,5.814.292,11.654.292,14.282.292,2.7,0,3.383-.292,3.485-1.46C3345.81,1588.65,3345.472,1588.359,3344.888,1588.359Zm-149.129-52.266c-1.482,1.9-2.483,2.481-5.4,2.481a9.858,9.858,0,0,1-5.418-1.46c-.472-.437-.568-1.021-.426-2.627l3.913-44.383c.1-1.166.3-1.751.838-2.043a8.7,8.7,0,0,1,3.92-.584c4.306,0,10.641,5.986,8.813,26.716C3200.941,1526.166,3198.231,1532.881,3195.759,1536.093Zm128.226,9.49h-13.431c-.292,0-.327-.438-.2-1.022l9.881-35.915c.447-1.752.7-1.315.8,0l3.392,36.06C3324.461,1545.145,3324.351,1545.583,3323.985,1545.583Z" transform="translate(-106.895 -251.279)"/><path class="cls-4" d="M3386.011,1568.212c-.584,0-.808.876-1,2.189a31.856,31.856,0,0,1-2.67,8.76c-2.173,3.942-5.032,4.088-8.9,4.088-5.693,0-7.5-1.021-8.549-3.212-1.3-2.628-.413-12.7,1.235-31.389l2.266-25.695c1.956-22.19,2.316-26.278,2.874-30.951.6-5.108,1.4-7.592,3.434-8.321a10.447,10.447,0,0,1,2.886-.438c.876,0,1.34-.293,1.43-1.314s-.395-1.314-1.417-1.314c-2.847,0-8.215.438-9.967.438-1.971,0-6.53-.438-9.962-.438-1.095,0-1.631.291-1.722,1.314s.322,1.314,1.125,1.314a5.431,5.431,0,0,1,2.37.438c2.32,1.021,2.7,3.358,2.407,8.321-.267,4.673-.627,8.761-2.583,30.951L3357,1548.648c-1.185,13.432-2.2,24.965-3.107,31.1-.666,4.234-1.314,7.445-2.824,8.03a6.736,6.736,0,0,1-2.68.584,1.118,1.118,0,0,0-1.272,1.167c-.09,1.023.384,1.46,1.333,1.46,3.284,0,6.316-.437,9.235-.437,7.811,0,14.45.875,21.166.875,3.8,0,4.225-.73,4.947-3.942.957-4.233,2.433-15.183,2.575-16.789C3386.53,1568.941,3386.521,1568.212,3386.011,1568.212Z" transform="translate(-106.895 -251.279)"/><path class="cls-4" d="M3448.754,1482.513c-2.152-.438-4.591-1.752-7.3-2.482a35.681,35.681,0,0,0-10.457-1.46c-10.877,0-18.326,5.839-24.432,15.475-8.14,12.848-11.192,30.075-12.067,40-1.249,14.161-.792,30.513,5.255,43.068,5.626,11.533,13.635,15.913,23.635,15.913,4.672,0,10.31-1.021,13.436-3.357,1.33-1.023,1.687-1.752,2.271-4.235,1.167-4.962,3.164-17.665,3.318-19.417.1-1.167.047-2.189-.464-2.189-.584,0-.782.584-1.207,2.919a40.361,40.361,0,0,1-3.33,9.636c-3.513,6.716-7.584,8.176-14.08,8.176-9.781,0-21.476-17.227-18.412-51.974,1.248-14.162,3.857-28.031,10.049-37.813,3.727-5.838,8.172-9.051,14.522-9.051a14.76,14.76,0,0,1,14.02,9.051,32.607,32.607,0,0,1,1.664,13.432c-.181,2.044-.151,3.358.433,3.358.658,0,.918-1.314,1.185-3.5.4-2.92,1.039-10.95,1.609-15.768.6-5.109.97-6.861,1.073-8.029C3449.552,1483.39,3449.543,1482.658,3448.754,1482.513Z" transform="translate(-106.895 -251.279)"/><path class="cls-4" d="M3505.934,1480.615c-1.387,0-6.245.438-7.85.438-2.117,0-4.414-.438-6.823-.438-.876,0-1.267.291-1.357,1.314-.077.876.555,1.169,1.185,1.461,1.19.583,1.341,2.189,1.212,3.649a36.632,36.632,0,0,1-1.692,7.592c-1.421,4.525-13.451,36.643-14.489,40.147-.808-4.087-7.925-39.272-8.56-43.651a22.953,22.953,0,0,1-.44-4.964c.1-1.168.571-2.336,1.254-2.628,1.147-.585,1.671-.73,1.748-1.606s-.249-1.314-.979-1.314c-3.286,0-6.317.438-7.85.438-2.409,0-7.845-.438-9.158-.438a1.343,1.343,0,0,0-1.5,1.314c-.09,1.021.395,1.314.979,1.314a4.727,4.727,0,0,1,2.9,1.9c1.245,1.6,2.749,5.254,4.1,10.656,1.886,7.592,8.835,39.712,9.141,42.047a56.512,56.512,0,0,1,.327,15.329l-1.054,11.972c-.207,2.336-.748,8.467-1.507,14.6-.52,4.234-1.46,7.445-2.97,8.03a6.662,6.662,0,0,1-2.607.584,1.153,1.153,0,0,0-1.272,1.167c-.1,1.168.456,1.46,1.479,1.46,2.7,0,7.337-.437,9.162-.437,1.971,0,6.532.437,11.131.437a1.471,1.471,0,0,0,1.661-1.46.947.947,0,0,0-1.065-1.167,15.21,15.21,0,0,1-3.6-.584c-2.139-.585-2.513-3.8-2.286-8.03.323-6.132.864-12.263,1.069-14.6l1.055-11.972a69.819,69.819,0,0,1,2.382-14.6c1.867-6.277,15.112-40.586,18.036-46.426,1.953-3.942,2.912-5.694,4.572-7.153a5.814,5.814,0,0,1,3.368-1.752,1.426,1.426,0,0,0,1.515-1.46C3507.223,1480.906,3506.736,1480.615,3505.934,1480.615Z" transform="translate(-106.895 -251.279)"/><path class="cls-5" d="M1209,894.579v482.184h-35.089v11.869h269.309V1203.177h-.438c-41.23,129.077-85.53,172.1-137.286,173.586v-262.6c28.509,2.226,57.9,40.8,74.564,98.662h.438V1005.852h-.438c-16.229,56.378-46.932,95.7-74.564,97.92V866.39c51.756.741,96.056,45.993,137.286,173.586h.438V854.521H1169.966Z" transform="translate(-106.895 -251.279)"/><path class="cls-5" d="M1480.5,1063.714h.438c32.9-127.593,69.74-188.423,108.776-196.583v509.632h-39.475v11.869h175.446v-11.869h-39.475V867.131c39.475,8.16,76.318,68.99,109.214,196.583h.439V854.521H1480.5Z" transform="translate(-106.895 -251.279)"/><path class="cls-5" d="M1854.628,894.579v482.184h-35.089v11.869h269.309V1203.177h-.439c-41.229,129.077-85.529,172.1-137.286,173.586v-262.6c28.51,2.226,57.9,40.8,74.565,98.662h.438V1005.852h-.438c-16.229,56.378-46.932,95.7-74.565,97.92V866.39c51.757.741,96.057,45.993,137.286,173.586h.439V854.521H1815.592Z" transform="translate(-106.895 -251.279)"/><path class="cls-5" d="M2353.762,1126.769c45.616-20.771,71.494-66.022,71.494-139.462,0-89.019-49.563-132.786-135.97-132.786H2123.929l39.036,40.058v482.184h-35.089v11.869h168.866v-11.869H2259.46V1143.831l83.775,244.8h125v-11.869h-21.053Zm-94.3,2.967V866.39H2273.5c34.212,0,50.879,47.476,50.879,122.4C2324.375,1080.776,2313.41,1124.543,2259.46,1129.736Z" transform="translate(-106.895 -251.279)"/><polygon class="cls-5" points="2628.896 641.817 2653.458 926.676 2497.312 603.242 2363.534 603.242 2405.642 646.267 2398.623 1125.484 2374.5 1125.484 2374.5 1137.353 2485.03 1137.353 2485.03 1125.484 2431.958 1125.484 2414.413 689.294 2639.423 1137.353 2662.23 1137.353 2662.23 641.817 2701.706 603.242 2589.421 603.242 2628.896 641.817"/><polygon class="cls-5" points="2889.425 603.242 2714.856 603.242 2753.893 643.3 2753.893 1125.484 2718.804 1125.484 2718.804 1137.353 2885.478 1137.353 2885.478 1125.484 2850.388 1125.484 2850.388 643.3 2889.425 603.242"/><path class="cls-5" d="M3016.05,1063.714h.438c32.9-127.593,69.74-188.423,108.777-196.583v509.632h-39.476v11.869h175.445v-11.869h-39.475V867.131c39.475,8.16,76.319,68.99,109.216,196.583h.438V854.521H3016.05Z" transform="translate(-106.895 -251.279)"/><polygon class="cls-5" points="3547.771 643.3 3586.809 603.242 3461.804 603.242 3509.612 643.3 3456.979 917.774 3375.835 643.3 3414.872 603.242 3235.479 603.242 3270.129 643.3 3366.186 969.702 3366.186 1125.484 3331.097 1125.484 3331.097 1137.353 3497.77 1137.353 3497.77 1125.484 3462.681 1125.484 3462.681 926.676 3547.771 643.3"/><g class="cls-6"><g class="cls-7"><path class="cls-8" d="M1209,894.579v482.184h-35.089v11.869h269.309V1203.177h-.438c-41.23,129.077-85.53,172.1-137.286,173.586v-262.6c28.509,2.226,57.9,40.8,74.564,98.662h.438V1005.852h-.438c-16.229,56.378-46.932,95.7-74.564,97.92V866.39c51.756.741,96.056,45.993,137.286,173.586h.438V854.521H1169.966Z" transform="translate(-106.895 -251.279)"/><path class="cls-8" d="M1480.5,1063.714h.438c32.9-127.593,69.74-188.423,108.776-196.583v509.632h-39.475v11.869h175.446v-11.869h-39.475V867.131c39.475,8.16,76.318,68.99,109.214,196.583h.439V854.521H1480.5Z" transform="translate(-106.895 -251.279)"/><path class="cls-8" d="M1854.628,894.579v482.184h-35.089v11.869h269.309V1203.177h-.439c-41.229,129.077-85.529,172.1-137.286,173.586v-262.6c28.51,2.226,57.9,40.8,74.565,98.662h.438V1005.852h-.438c-16.229,56.378-46.932,95.7-74.565,97.92V866.39c51.757.741,96.057,45.993,137.286,173.586h.439V854.521H1815.592Z" transform="translate(-106.895 -251.279)"/><path class="cls-8" d="M2353.762,1126.769c45.616-20.771,71.494-66.022,71.494-139.462,0-89.019-49.563-132.786-135.97-132.786H2123.929l39.036,40.058v482.184h-35.089v11.869h168.866v-11.869H2259.46V1143.831l83.775,244.8h125v-11.869h-21.053Zm-94.3,2.967V866.39H2273.5c34.212,0,50.879,47.476,50.879,122.4C2324.375,1080.776,2313.41,1124.543,2259.46,1129.736Z" transform="translate(-106.895 -251.279)"/><polygon class="cls-8" points="2628.896 641.817 2653.458 926.676 2497.312 603.242 2363.534 603.242 2405.642 646.267 2398.623 1125.484 2374.5 1125.484 2374.5 1137.353 2485.03 1137.353 2485.03 1125.484 2431.958 1125.484 2414.413 689.294 2639.423 1137.353 2662.23 1137.353 2662.23 641.817 2701.706 603.242 2589.421 603.242 2628.896 641.817"/><polygon class="cls-8" points="2889.425 603.242 2714.856 603.242 2753.893 643.3 2753.893 1125.484 2718.804 1125.484 2718.804 1137.353 2885.478 1137.353 2885.478 1125.484 2850.388 1125.484 2850.388 643.3 2889.425 603.242"/><path class="cls-8" d="M3016.05,1063.714h.438c32.9-127.593,69.74-188.423,108.777-196.583v509.632h-39.476v11.869h175.445v-11.869h-39.475V867.131c39.475,8.16,76.319,68.99,109.216,196.583h.438V854.521H3016.05Z" transform="translate(-106.895 -251.279)"/><polygon class="cls-8" points="3547.771 643.3 3586.809 603.242 3461.804 603.242 3509.612 643.3 3456.979 917.774 3375.835 643.3 3414.872 603.242 3235.479 603.242 3270.129 643.3 3366.186 969.702 3366.186 1125.484 3331.097 1125.484 3331.097 1137.353 3497.77 1137.353 3497.77 1125.484 3462.681 1125.484 3462.681 926.676 3547.771 643.3"/></g></g></g></g></svg>