<svg id="レイヤー_1" data-name="レイヤー 1" xmlns="http://www.w3.org/2000/svg" viewBox="0 0 1862.48 1392"><path d="M264.52,1353.89c-90.41-19.6-148.52-54.39-159.77-103.19-8.67-37.65,11.5-79.55,54.7-122.4q-3.76-14.13-7-28.48c-89.53,68-135.25,136.07-121.57,195.44C48.52,1371.7,161.44,1419.65,331.23,1436A729.22,729.22,0,0,1,264.52,1353.89Z" transform="translate(-28.52 -217)"/><path d="M1888.61,883.05c-17.72-76.92-131.93-125-303.49-141a709.67,709.67,0,0,1,23.81,115c18.8,15,30.94,32.42,35.47,52.08,7.06,30.63-5,64.07-33,98.54a710.18,710.18,0,0,1-42.77,187.9C1783,1093,1910.28,977.05,1888.61,883.05Z" transform="translate(-28.52 -217)"/><path d="M1888.61,883.05c-9.68-42-48.18-75.45-109.1-99.74l-30.63,98.83-105.52,23c.38,1.32.73,2.64,1,4,30.25,131.25-289.89,314.13-715.05,408.47S135,1382,104.75,1250.7c-6.94-30.11,4.58-62.94,31.57-96.8L124,1122.76c-70.53,60.24-105.18,119.82-93,172.5,36.49,158.36,481.94,194.46,994.93,80.63S1925.11,1041.41,1888.61,883.05Z" transform="translate(-28.52 -217)"/><path d="M1219,1187a1681.18,1681.18,0,0,0,342.84-188.93A702.52,702.52,0,0,0,1567,913c0-384.39-311.61-696-696-696S175,528.61,175,913a692.79,692.79,0,0,0,128.11,402.48C551.2,1348.17,908.87,1313.05,1219,1187Z" transform="translate(-28.52 -217)"/><path d="M989,1449c-135.82,24.59-335.81,60.8-514.35,36.19A692.76,692.76,0,0,0,871,1609c245.11,0,460.63-126.72,584.62-318.2C1204.08,1408,1036.18,1440.46,989,1449Z" transform="translate(-28.52 -217)"/></svg>