<svg id="レイヤー_1" data-name="レイヤー 1" xmlns="http://www.w3.org/2000/svg" width="3840" height="3840" viewBox="0 0 3840 3840"><defs><style>.cls-1{fill:#fefefe;}.cls-2{fill:#fcfcfc;}</style></defs><path d="M2872.563,1038.083c9.25,114.477-18.027,238.47-81.657,356.078-67.487,124.738-91.242,254.74-59.955,398.528,29.471,135.443-25.7,201.734-163.068,224.058-59.8,9.719-120.71,12.594-180.559,22.088-64.524,10.237-97.966,46.574-85.064,115.73,3.537,18.953,4.539,38.37,7.786,57.389,24.622,144.257,3.512,183.411-138.207,230.882-177.321,59.4-356.2,72.653-532.922-3.218-93.332-40.069-116.693-89.525-96.215-189.572,35.377-172.839,23.466-189.822-155.132-219.928-24.448-4.121-49.169-6.625-73.624-10.711-143.887-24.043-203.87-88.128-178.291-232.265,26.494-149.294-16.105-276.459-76.423-405.125C776.873,779.711,1189.889,96.386,1853.188,61.5,2156.8,45.535,2430.544,105.186,2641.5,340.387,2814.125,532.85,2877.624,765.5,2872.563,1038.083Z"/><path d="M2379.678,2903.657c117.641,42.21,220.583,115.123,345.815,119.319,57.717,1.934,116.794,7.27,151.126-57.713,11.659-22.068,37.349-30.555,62.976-35.266,108.2-19.893,209.505-2.926,298.713,62.1,116.313,84.783,106.448,232.669-17.92,305.933-119.292,70.274-142.182,129.721-100.033,259.8,35.109,108.354-36.934,213.957-151.642,222.285-166.648,12.1-300.358-113.69-312.269-286.076-5.755-83.282-71.673-133.467-137.8-162.92C2327.56,3246,2131.66,3171.734,1938.269,3091.708c-24.02-9.939-41.811-2.851-62.5,5.36-156.16,61.964-312.92,122.433-468.672,185.4-58.611,23.694-115.882,50.473-161.3,97.85-39.468,41.167-62.876,81.406-60.409,144.9,6,154.5-234.186,299.2-373.987,231.207-82.882-40.312-118.107-124.854-88.922-213.41,39.612-120.194,15.733-184.849-91.819-248.616-147.052-87.188-144.749-248.754,5.369-332.3,71.875-40,150.209-54.632,231.406-46.143,29.159,3.048,68.741,9.035,83.657,28.746,85.66,113.2,191.8,69.482,293.146,41.708,68.569-18.791,133.389-51.258,224.5-87.363-219.55-66.425-396.028-192.1-613.231-204.708-50.872-2.952-91.831,11.364-131.787,51.91-74.117,75.21-167.676,54-256.242,25.23-136.733-44.423-189.947-112.138-179.487-221.552,5.335-55.812,28.5-95.87,80.614-124.942,136.625-76.209,156.187-129.493,113.578-277.62-29.724-103.334,38.465-202.724,144.864-211.149,174.5-13.816,310.032,107.015,321.378,284.37,3.637,56.842,42.488,93.126,84.193,126.274,108.264,86.051,243.4,114.6,366.2,169.059,150.9,66.917,306.87,122.325,459.461,185.571,38.552,15.979,70.4,17.225,109.772,1.233,232.067-94.271,465.109-186.163,698.361-277.478,59.956-23.471,114.768-54.8,161.875-97.722,37.072-33.778,60.911-72.771,58.344-129.607-7.4-163.753,226.841-317.9,376.278-251.021,77.245,34.568,116.325,122.5,91.672,206.262-41.738,141.809-21.1,192.747,109.9,271.213,102.421,61.349,118.887,187.411,35.688,273.231-108.152,111.56-292.657,119.577-414.883,22.6-60.066-47.656-134.5-33.29-199.213-16.075C2710.571,2750.807,2549,2835.34,2379.678,2903.657Z"/><path class="cls-1" d="M2354.932,1708.277c-174.777-.286-280.572-74.621-304.984-214.292-21.289-121.8,40.878-206,163.009-220.074,84.314-9.712,165.2,2.777,240.565,42.508,113.78,59.986,158.166,144.868,130.963,246.856C2557.967,1662.693,2485.463,1708.491,2354.932,1708.277Z"/><path class="cls-1" d="M1488.355,1707.648c-112.579-.69-183.062-44.411-205.886-127.79-30.765-112.389.258-187.549,104.092-249.1,72.789-43.149,151.589-62.9,236.409-57.24,99.293,6.63,167.844,60.5,185.411,145.917,19.883,96.678-23.14,191.031-106.679,235.463C1634.918,1690.418,1564,1708.4,1488.355,1707.648Z"/><path class="cls-2" d="M1929.258,2007.278c-53.15-13.384-130.871,8.107-129.055-86.4,1.422-74.06,91.908-201.917,136.667-199.4,45.393,2.558,125.72,137.733,122.335,209.644C2054.977,2020.947,1983.6,1998.3,1929.258,2007.278Z"/></svg>