<?xml version="1.0" encoding="UTF-8" standalone="no"?>
<svg id="レイヤー_1" data-name="レイヤー 1" xmlns="http://www.w3.org/2000/svg" width="1068.074" height="1062.412" viewBox="0 0 1068.074 1062.412"><defs><style>.cls-1{fill:#131313;}.cls-2{fill:#bababa;}.cls-3{fill:#bdbdbd;}.cls-4{fill:#d0d0d0;}.cls-5{fill:#b3b3b3;}.cls-6{fill:#656565;}.cls-7{fill:#c5c5c5;}.cls-8{fill:#a9a9a9;}.cls-9{fill:#929292;}.cls-10{fill:#4c4c4c;}</style></defs><path class="cls-1" d="M1295.036,162.052c3.83,1.193,5.623,4.624,8.5,7.38-3.6,1.738-6.6-.809-9.708-.378.323-2.179,1.973-2.762,3.82-2.88C1297.628,164.037,1295.539,163.574,1295.036,162.052Z" transform="translate(-426.375 -6.444)"/><path class="cls-2" d="M1199.284,527.137c-1.822,3.268-3.659,6.527-5.463,9.805-2.344,4.259-1.829,5.081,3.115,5.044a3.29,3.29,0,0,1-4.441.722c-1.683-1.058-1.153-3.009-.727-4.547,1.165-4.2,3.973-7.533,6.252-11.14A.752.752,0,0,1,1199.284,527.137Z" transform="translate(-426.375 -6.444)"/><path class="cls-3" d="M1199.284,527.137l-1.264-.116c1.744-3.172,3.244-6.514,6.185-8.849C1203.686,521.776,1201.329,524.371,1199.284,527.137Z" transform="translate(-426.375 -6.444)"/><path class="cls-4" d="M1221.84,294.053c-.084,2.294-1.361,5.051,2.289,5.895-1.619.381-3.673.728-4.328-.931C1219.078,297.186,1220.366,295.4,1221.84,294.053Z" transform="translate(-426.375 -6.444)"/><path class="cls-5" d="M1201.95,541.017c1.908-.956,3.767-2.07,6.033-1.882C1206.5,541.446,1204.256,541.335,1201.95,541.017Z" transform="translate(-426.375 -6.444)"/><path d="M1492.458,476.509c3.24-1.637,1.964-3.6.129-5.387-2.428-2.36-4.3-4.865-4.752-8.447a405.256,405.256,0,0,0-9.489-49.831c-31.3-122.451-96.731-222.537-197.549-298.921C1195.06,48.966,1098,13.845,990.745,7.373a522.855,522.855,0,0,0-91.239,2.553,516.441,516.441,0,0,0-89.661,17.949C705.028,59.3,617.321,116.919,547.8,201.453c-70.141,85.283-109.624,183.394-119.5,293.319A545.823,545.823,0,0,0,440.6,662.714c27.491,112.993,85.148,207.769,173.512,283.392,70.027,59.93,150.583,98.793,240.947,117.238,2.174.444,3.056.119,4.2-1.917,6.947-12.356,15.583-23.589,23.829-35.076,19.949-27.789,43.581-52.509,65.545-78.62,7.161-8.513,13.324-17.731,15.765-28.819,1.4-6.347-.018-12.772-.183-19.164a33.027,33.027,0,0,0-9.065-22.012c-9.442-10.419-19.871-19.923-28.764-30.873-4.846-5.967-10.044-12.264-11.06-19.714-1.5-11.025-.255-22.123,5.238-32.422,4-7.5,8.829-14.483,13.522-22.067h-5.009c-25.659,0-51.319-.05-76.978.057-3.575.015-4.45-.508-3.375-4.42,5.948-21.623,11.513-43.352,17.233-65.038,5.593-21.208,11.393-42.364,16.7-63.644,1.278-5.128,3.786-5.038,7.828-4.2a303.569,303.569,0,0,0,44.8,5.52c5.473.306,10.976.054,16.449.347,7.891.423,15.912,2.317,23.614,1.39,10.461-1.259,20.992-1.143,31.455-2.175a308.931,308.931,0,0,0,50.665-9.649c20.454-5.546,38.916-15.961,57.63-25.623a25.61,25.61,0,0,0,8.376-6.766c-10.226-4.149-17.429-11.733-25.015-18.644-13.519-12.317-26.675-25.039-39.756-37.823-15.435-15.085-32.453-28.338-48.815-42.332-14.605-12.492-32.26-20.063-50.171-26.52a373.066,373.066,0,0,0-82.725-19.1c-3.23-.385-4.887-1.327-2.716-4.836,1.478-2.388,2.54-5.035,3.781-7.57q16.217-33.108,32.439-66.215c.838-1.707,1.267-4.058,4.078-3.309,2.2.586,4.609.878,6.5,2.006,9.014,5.368,19.1,8.775,27.957,14.13,14.064,8.5,29.684,12.362,44.8,17.787a40.938,40.938,0,0,0,13.084,2.027c18.071.377,35.459-2.953,52.89-7.7,19.967-5.433,36.814-16.18,53.116-28,10.87-7.878,19.748-18.287,30.984-25.851,2.907-1.957,6.029-3.718,8.166-6.781,2.1-3,1.461-5.734-2.019-6.68-5-1.359-10.25-2.058-15.093-3.662-20.14-6.671-40.105-13.551-61.5-15.577-9.211-.872-18.212-3.39-27.628-4.17a135.663,135.663,0,0,0-34.4,1.8c-21.778,3.75-41.7,13.384-61.916,21.864-8.013,3.362-15.6,7.752-24.329,12.154l17.635-36.176c-20.2-1.766-39.874-3.714-59.59-5.151-22.917-1.671-45.862-2.981-68.806-4.233-4.1-.224-4.454-1.266-3.08-4.939,11.69-31.257,23.184-62.588,34.732-93.9q29.217-79.212,58.393-158.439c1.037-2.817,2-4.971,5.657-5.151,8.975-.441,17.919-1.623,26.894-1.906,35.193-1.109,70.267.415,105.035,6.262,67.869,11.415,131.014,35.293,189.1,72.334,22.5,14.349,43.431,30.8,63.886,47.887a18.589,18.589,0,0,1,5.673,6.714c-2.493-.019-4.761-1.577-6.882.288q-25.409,44.165-50.82,88.329-10.562,18.346-21.167,36.67c-.6,2.494-2.836,5.623,2.289,5.895,17.59,1.364,34.914,4.781,52.422,6.793,15,1.723,29.971,3.641,45.348,5.521-1.756,4.251-4.077,7.632-6.11,11.192-13.949,24.428-27.761,48.934-41.634,73.4q-19.5,34.4-39.053,68.777c-10.081,17.639-19.324,35.774-30.9,52.536-1.759,3.2-3.793,6.226-5.77,9.285-1.646,3.188-3.66,6.164-5.429,9.28-.891,1.571-1.246,3.593-.071,5.084.967,1.228,2.622.891,4,.165l5.014-.969c1.955-.806,4.183-.737,6.033-1.882l59.356-12.444c-1.457,2.257-2.36,3.82-3.418,5.271q-23,31.547-46.027,63.074c-10.715,14.74-21.117,29.711-32.035,44.3-11.2,14.965-22.11,30.151-33.277,45.137-8.082,10.846-15.871,22-23.774,33.016-12.361,17.238-25.1,34.207-37.413,51.476a7.75,7.75,0,0,1-7.266,3.761c-29.658-.108-59.316-.063-88.974-.063-4.5,0-9-.043-13.5.025-1.533.022-2.953-.338-3.779,2.062a35.8,35.8,0,0,0-1.216,20.429c3.242,13.172,12.255,22.846,22.349,30.849,13.941,11.054,24.932,24.107,32.528,40.049,7.291,15.3,12.014,31.206,11.552,48.484a205.808,205.808,0,0,1-2.87,31.335c-2.4,13.3-4.691,26.647-6.559,40.064-1.713,12.3-3.8,24.593-4.5,36.956-.791,14.117-.052,28.314-.275,42.472-.056,3.526,1.34,3.717,4.078,3.327a537.523,537.523,0,0,0,88.214-19.96c167.477-53.616,296.478-183.619,348.755-351.409,15.839-50.838,23.265-102.945,23.672-156.095a568.251,568.251,0,0,0-2.934-57.841C1490.43,480.794,1489.141,478.185,1492.458,476.509ZM964.405,347.993c14.683-6.691,29.574-12.787,45.15-17.13,7.077-1.973,14.773-1.979,21.4-4.327,7.314-2.593,14.3-2.444,21.481-2.394,15.927.111,31.181,4.339,46.456,8.329,5.945,1.553,11.607,3.856,17.364,5.927a13.668,13.668,0,0,1,5.831,4.368c2.013,2.368,2.5,4.348-.262,7.066-17.682,17.394-38.6,27.635-63.033,32.551-20.237,4.071-40.414,3.838-60.671,3.5-16.612-.275-32.218-5.616-47.282-12.439-4.829-2.188-9.706-4.27-14.957-6.574C943.684,357.589,953.989,352.739,964.405,347.993ZM656.135,136.944c11.886-8.568,23.774-17.11,36.11-25.033,2.877-1.847,4.225-1.526,6.354,1.079q38.191,46.725,76.626,93.253c5.279,6.413,10.524,12.854,15.91,19.175,1.519,1.782,2.422,3.287,1.494,5.764-6.685,17.839-13.25,35.723-20.041,54.1-8.823-10.693-17.395-21.056-25.94-31.441Q701.143,198.536,655.6,143.264C653.4,140.6,652.776,139.366,656.135,136.944Zm-55.506,48.534a492.3,492.3,0,0,1,39.477-36c2.14-1.764,3.291-1.743,5.123.5,18.618,22.817,37.64,45.309,55.983,68.344,20.923,26.275,42.615,51.912,63.8,77.968,1.849,2.275,2.255,3.981,1.137,6.647-2.178,5.2-3.829,10.619-6,15.824-1.58,3.795-1.516,5.406,3.461,5.445,7.8.06,15.586,1.1,23.385,1.619a5.335,5.335,0,0,1,4.143,2.2q28.441,34.772,57.057,69.4c1.785,2.152,2,3.682.787,6.118-9.147,18.437-18.163,36.939-27.547,56.091-12.991-15.768-25.572-31.025-38.138-46.294Q700.872,313.174,618.45,213c-6.026-7.323-11.922-14.758-18.129-21.924C598.3,188.737,598.606,187.553,600.629,185.478ZM552.762,241.5q16.067-21.382,33.961-41.239c1.937-2.147,2.915-2.833,5.132-.116q40.71,49.887,81.652,99.585,28.5,34.68,57.072,69.3,41.126,49.876,82.263,99.743c1.3,1.582,2.838,2.844,1.461,5.6-9.272,18.558-18.3,37.235-27.633,56.322-11.063-13.4-21.864-26.444-32.617-39.524Q718.4,447.811,682.78,404.424q-64.8-78.556-129.743-157C551.3,245.325,550.929,243.941,552.762,241.5Zm-1.131,531.117c-11.811.066-23.624-.081-35.432.118-3.319.055-4.927-1.075-6.422-4.038a507.747,507.747,0,0,1-35.847-92.538c-.3-1.032-.686-2.1,1.06-2.1l80.484,97.652C554.239,773.328,552.81,772.612,551.631,772.619Zm23.814.094a6.3,6.3,0,0,1-5.4-2.741q-50.385-61.35-100.936-122.565c-3.054-3.693-4.039-7.826-4.888-12.262a420.956,420.956,0,0,1-7.3-60.67C510.847,640.4,564.845,706.194,619.8,772.659,604.08,772.659,589.762,772.6,575.445,772.713Zm62.864,0c-2.662.014-3.846-1.681-5.182-3.3-13.652-16.565-27.589-32.909-40.827-49.8-28.941-36.927-59.427-72.581-89.029-108.963-15.122-18.587-30.412-37.036-45.645-55.533-1.181-1.434-2.234-2.829-2.263-4.829-.319-21.663.2-43.286,2.883-64.814.031-.249.288-.47.8-1.268L696.31,772.658C676.184,772.658,657.246,772.61,638.309,772.713Zm141.446-.1c-20.988.061-41.977-.024-62.964.119a8.17,8.17,0,0,1-7.131-3.408q-49.065-59.84-98.3-119.537-73.867-89.8-147.787-179.557c-2.414-2.926-2.781-5.5-2.216-9.047a510.483,510.483,0,0,1,14.155-63.123Q630.069,585.476,783.518,771.547C782.361,773.417,780.9,772.611,779.755,772.614ZM824.317,714.1c-4.919,17.765-9.474,35.63-14.264,53.431-.494,1.839.3,4.89-2.793,5.037-3.32.158-6.579.8-9.366-2.768-8.7-11.145-17.9-21.9-26.878-32.832-60.824-74.03-121.267-148.379-182.6-221.981-35.564-42.674-70.587-85.79-106.27-128.36a5.642,5.642,0,0,1-1.166-6.243,550.773,550.773,0,0,1,23.779-58.775c11.093,13.452,21.786,26.387,32.444,39.351,34.661,42.159,68.91,84.665,104.064,126.408,41.561,49.35,81.968,99.641,123.167,149.283,19.446,23.431,38.794,46.942,58.273,70.345C824.572,709.241,825.154,711.075,824.317,714.1Zm22.722-85.812q-8.681,32.5-17.24,65.036a8.146,8.146,0,0,1-.986,1.6c-9.554-11.59-18.939-22.963-28.311-34.346Q726.927,571.2,653.358,481.818c-9.834-11.946-19.491-24.045-29.535-35.812-37.036-43.394-72.524-88.067-109.185-131.767-3.068-3.657-3.356-6.213-1.09-10.3,8.481-15.287,17.357-30.322,27.047-44.872.817-1.226,1.734-2.384,2.823-3.871,14.351,17.428,28.51,34.6,42.643,51.788q49.291,59.958,98.567,119.93,46.894,57.016,93.892,113.948c1.758,2.126,1.464,3.645.415,5.749-4.956,9.94-9.809,19.93-15.19,30.9,11.916-2.129,22.844-3.933,33.7-6.1,3.618-.723,6.007-.324,8.519,2.792,12.943,16.06,26.142,31.914,39.318,47.785C846.876,623.913,847.726,625.712,847.039,628.285Zm4.659-18.034c-4.407-5.34-8.527-10.279-12.588-15.266q-9.882-12.136-19.694-24.332c-1.288-1.6-2.928-3.06,1-3.709,14.7-2.427,29.359-5.132,44.775-7.865C860.673,576.221,856.27,592.915,851.7,610.251ZM912.41,492.692c11.518,1.538,22.521,4.646,33.5,7.9,13.305,3.94,24.291,12.373,35.441,20.306,15.972,11.363,28.21,26.624,41.373,40.786a213.922,213.922,0,0,1,27.408,36.015c1.181,1.985,2.181,3.591-1.252,5.006-16.206,6.68-33.031,10.7-50.319,13.4a216.164,216.164,0,0,1-44.613,2.8c-20.725-1.078-40.75-5.856-60.291-12.805-1.955-.695-1.814-1.576-1.466-2.871,1.456-5.411,2.978-10.8,4.6-16.663,19.477,14.653,47.557,12.594,65.545-4.43,1.21-1.145,2.237-2.581,3.628-3.42,16.674-10.072,17.274-26.793,12.058-43.13a37,37,0,0,0-14.837-19.866c-7.976-5.413-15.811-10.956-25.418-13.436a52.17,52.17,0,0,0-28.329.8A53.661,53.661,0,0,0,881.7,521.613a6.783,6.783,0,0,1-4.363,2.923c-14.238,2.476-28.463,5.028-43.57,7.711,4.39-9.034,9.152-17.166,12.354-25.872,3.492-9.5,9.326-13.88,19.42-14.508C881.223,490.891,896.728,490.6,912.41,492.692ZM884.1,331.594c-9.3,19.021-18.346,37.529-27.574,56.405l-50.433-61.286Zm-63.66-175.966c-7.143,19.1-14.177,38.247-21.252,57.376a16.065,16.065,0,0,1-.858,1.593c-7.8-9.42-15.431-18.577-23-27.785-21.937-26.686-43.782-53.447-65.854-80.021-2.71-3.263-1.844-4.154,1.311-5.919,14.186-7.937,28.7-15.187,43.454-22,3.6-1.661,5.415-1.2,7.766,1.7,15.394,18.973,30.932,37.83,46.421,56.727,3.686,4.5,7.268,9.085,11.1,13.455A4.153,4.153,0,0,1,820.438,155.628Zm27.044-73.29c-7.037,18.735-13.9,37.537-21.105,57.119L770.886,72.034c8.972-4,18.025-7.077,27.089-10.091,8.025-2.67,16.126-5.11,24.184-7.679,2.178-.7,3.9-.888,5.654,1.335,5.866,7.439,12.035,14.638,17.993,22.006C846.848,78.893,848.386,79.932,847.482,82.338ZM853.1,66.889c-4.793-5.841-9.067-11.047-13.706-16.7,7.218-2.546,14.221-3.453,21.846-5.339C858.419,52.483,855.886,59.339,853.1,66.889Zm433.677,202.4c-2.189-.263-1.8-1.285-.971-2.663,2.956-4.93,5.859-9.892,9.159-15.479l17.712,21.322C1303.11,271.293,1294.945,270.273,1286.775,269.291Zm17.414-26.34c-2.214-2.586-2.246-4.531-.565-7.447,7.266-12.611,15.169-24.87,21.428-38.049,1.252-.8,1.215-3.75,3.823-2.3,14.717,16.745,29.287,33.6,42.22,51.808a505.886,505.886,0,0,1,77.8,167.056c.315,1.2,1.449,2.672-.976,2.977-18.2-20.991-35.229-42.936-52.868-64.384-9.438-11.476-18.925-22.912-28.255-34.475-1.325-1.643-3.689-2.391-4.1-4.783-2-2.6.394-4.427,1.474-6.084,5.309-8.152,8.927-17.18,13.92-25.616l-5.356-1.493c-13.454-.759-26.64-3.574-39.981-5.2a6.081,6.081,0,0,1-4.037-2.616C1320.57,262.518,1312.485,252.644,1304.189,242.951Zm-46.71,251.741c6.671-11.932,12.881-23.016,19.058-34.117.926-1.663,1.845-3.053,3.6-.9,6.882,8.428,13.734,16.882,21,25.828ZM1154.567,772.627c-5.943-.066-11.888-.022-18.618-.022,2.556-5.95,6.84-9.689,10-14.834,3.671,4.272,7.119,8.116,10.361,12.127C1158.023,772.021,1156.815,772.652,1154.567,772.627Zm100.234-.921c-.769,1.876-2.935.817-4.445.827-11.985.086-23.971.048-35.957.048-11.819,0-23.639-.06-35.457.043a7.769,7.769,0,0,1-6.772-2.974q-8.425-9.795-16.422-19.925c-1.309-1.664-1.647-2.879-.253-4.765q13.692-18.513,27.169-37.186c2.439-3.36,4.729-6.828,7.116-10.226,1.542-2.2,2.835-2.569,4.823-.094,10.057,12.513,20.262,24.909,30.474,37.3,9.161,11.112,18.407,22.154,27.592,33.247C1253.6,769.123,1255.384,770.283,1254.8,771.706Zm92.479.376c-.445.917-1.478.478-2.237.479q-34.975.034-69.952.037c-2.01,0-3.168-.829-4.475-2.433q-24.032-29.484-48.309-58.768c-6.965-8.44-13.927-16.884-21.041-25.2-1.326-1.55-1.607-2.248-.259-4.065,11.454-15.449,22.736-31.025,34.366-46.968,14.882,17.979,29.613,35.664,44.219,53.452,15.036,18.313,29.9,36.769,44.939,55.08,7.145,8.7,14.522,17.2,21.8,25.791C1346.98,770.251,1347.792,771.025,1347.28,772.082Zm72.3-22.789q-5.092,10.248-9.983,20.594a4.415,4.415,0,0,1-4.671,2.816c-6.329-.13-12.661-.045-18.992-.045q-9,0-17.994,0a6.155,6.155,0,0,1-5.47-2.491c-12.531-15.436-25.389-30.605-38.005-45.973-8.515-10.373-16.7-21.012-25.215-31.389-11.241-13.708-22.655-27.275-33.992-40.9-6.363-7.65-12.674-15.343-19.105-22.935-2.432-2.871-2.882-5.069-.288-8.521,10.456-13.918,20.494-28.15,30.655-42.288,2.013-2.8,3.49-3.549,6.146-.231,11.7,14.615,23.693,29,35.565,43.48,11.781,14.369,23.5,28.787,35.331,43.117,10.32,12.5,20.831,24.849,31.113,37.382,8.62,10.507,17,21.209,25.552,31.772,2.812,3.473,6.111,6.514,8.636,10.272C1420.117,745.816,1420.6,747.243,1419.58,749.293Zm26.777-73.432c-5.544,18.105-11.416,36.07-18.449,53.649-.408,1.021-.915,2-1.683,3.667-10.351-12.557-20.356-24.691-30.358-36.829q-27.057-32.833-54.11-65.671-24.19-29.359-48.382-58.717c-6.312-7.662-6.367-7.709-.73-15.533,9.769-13.561,19.68-27.021,29.38-40.63,1.734-2.432,2.7-1.576,4.027.063,11.887,14.705,23.7,29.468,35.69,44.092s24.139,29.079,36.2,43.629q21.258,25.65,42.47,51.339c.418.5.624,1.281,1.136,1.6C1449.413,661.447,1448.781,667.945,1446.357,675.861Zm17.424-105.642c-1.331,26.465-5.215,52.567-11.006,79.392-5.6-6.565-10.772-12.415-15.7-18.466-8.344-10.247-16.543-20.6-25.145-30.648-8.711-10.171-16.835-20.842-25.341-31.191-7.329-8.918-14.872-17.66-22.242-26.544-3.7-4.455-6.983-9.223-10.823-13.593-6.663-7.581-12.811-15.613-19.413-23.251-2.23-2.582-2.021-4.491.044-6.8a85.267,85.267,0,0,0,8.72-12.11c.636-1.047.4-2.5,1.545-3.312a6.5,6.5,0,0,0,1.8-3.067,3.656,3.656,0,0,1,1.3-1.367c1.2-.654,2.61-1.559,1.885-2.963-.654-1.266-2.261-.965-3.538-.4-9.245,2.045-18.5,4.051-27.728,6.162-2.435.557-3.956-.222-5.521-2.146q-12.879-15.829-26.031-31.433c-1.57-1.868-1.38-3.393-.275-5.325,9.716-16.984,19.461-33.953,28.981-51.046,1.9-3.406,2.808-2.036,4.38-.01,8.316,10.722,16.491,21.563,25.085,32.059,20.481,25.012,41.219,49.814,61.757,74.779,11.488,13.965,22.365,28.458,34.324,42,7.227,8.184,13.837,16.872,21.256,24.868A5.577,5.577,0,0,1,1463.781,570.219Zm.856-24.2c-.009.463-.107.925-.282,2.349-14.441-18.969-29.957-35.909-44.414-53.731q-26.637-32.837-53.54-65.458-20.355-24.749-40.941-49.307c-1.214-1.454-1.707-2.6-.687-4.387q14.3-25.052,28.508-50.157a12.166,12.166,0,0,1,1.1-1.367c3.9,4.573,7.717,8.913,11.388,13.371q30.854,37.467,61.668,74.965,12.5,15.134,25.4,29.939a19.357,19.357,0,0,1,4.31,9.884A500.577,500.577,0,0,1,1464.637,546.024Z" transform="translate(-426.375 -6.444)"/><path class="cls-6" d="M1347.682,479.851l-.877,1.067a13.109,13.109,0,0,1-1.843,3.138L1342.889,487c-1.561-.609-3.773-.951-1.316-3.208,2.1-1.933,3.633-4.509,6.4-5.7C1348.449,478.772,1348.607,479.4,1347.682,479.851Z" transform="translate(-426.375 -6.444)"/><path class="cls-1" d="M1324.537,191.046l-9.206-8.893-.779.754,9.407,8.776Z" transform="translate(-426.375 -6.444)"/><path class="cls-7" d="M1347.682,479.851l.287-1.759c2.247-3.531-1.446-1.411-2.088-2.194,1.5-1.5,3.287-.994,5.485-.961C1350.581,477.243,1349.982,479.135,1347.682,479.851Z" transform="translate(-426.375 -6.444)"/><path class="cls-1" d="M1328.888,195.153c-2.134-.661-2.151,2.194-3.823,2.3C1326.518,192.681,1326.518,192.681,1328.888,195.153Z" transform="translate(-426.375 -6.444)"/><path class="cls-8" d="M475,674.057l-1.06,2.1c-.3-1.418-3.072-2.4-1.2-4.015C473.665,671.349,474.588,672.95,475,674.057Z" transform="translate(-426.375 -6.444)"/><path d="M1194.5,143.877c-4.24-1.669-8.068-4.48-12.211-6.08-12.052-4.654-24.433-8.46-36.7-12.561-18.2-6.084-36.805-10.676-56.023-10.8a253.624,253.624,0,0,0-50.833,4.706c-18.493,3.652-36.471,9.049-53.424,17.408-19.3,9.517-37.458,20.73-53.6,35.208-11.171,10.023-21.072,20.868-28.289,34.077-1.64,3-2.12,5.913-.11,8.869,2.337,3.437,7.617,4.431,12.036,2.278,8.4-4.1,17.108-7.911,26.37-8.657a117.5,117.5,0,0,1,25.767.607c12.6,1.765,25.1,3.945,37.485,6.719,16.919,3.79,33.909,6.791,49.823,7.463a86.131,86.131,0,0,0,12.748-.926c18-2.906,34.552-9.019,48.183-21.456,12.248-11.176,24.364-22.515,36.132-34.19,9.457-9.383,21.424-13.824,33.412-18.276,2.284-.848,5.145-2.46,8-.42,1.137.813,2.3-.023,2.588-1.354A1.917,1.917,0,0,0,1194.5,143.877Zm-38.126,7.687a240.233,240.233,0,0,0-20.2,16.68c-11.055,10.476-24.021,18.49-36.806,26.566-12.531,7.915-26.576,12.59-41.2,15.081a53.968,53.968,0,0,1-12.951.116c-16.3-1.222-32.457-3.129-48.312-7.574-6.54-1.833-13.669-1.487-20.5-2.379C965,198.565,953.544,199.4,942.117,199c-3.345-.117-6.426,1.543-10.3.918,2.409-6.271,6.707-10.482,11.209-14.233,12.776-10.645,25.993-20.648,41.272-27.674a234.578,234.578,0,0,1,57.226-18.09c13.274-2.362,26.564-4.918,39.967-4.6,15.555.374,31.14.852,46.649,3.477,9.289,1.573,18.258,3.947,27.29,6.321,1.713.451,4,.854,4.32,2.671C1160.1,149.76,1157.789,150.491,1156.377,151.564Z" transform="translate(-426.375 -6.444)"/><path class="cls-9" d="M1447.93,416.994c1.425-.632.423-2.059.976-2.977l1.145,2.915c.256,1.017.81,2.2-1.106,2.029Z" transform="translate(-426.375 -6.444)"/><path class="cls-10" d="M1448.945,418.961c.96-.354.932-1.246,1.106-2.029.907,1.039,1.41,2.35.38,3.339C1449.91,420.771,1449.109,419.827,1448.945,418.961Z" transform="translate(-426.375 -6.444)"/><path class="cls-7" d="M1344.962,484.056a2.918,2.918,0,0,1,1.843-3.138C1347.028,482.456,1347,483.845,1344.962,484.056Z" transform="translate(-426.375 -6.444)"/><path d="M1039.35,330.057c13.135-.111,19.63,3.95,22.849,14.892,1.554,5.28,1.506,10.5-1.892,15.568-7.861,11.719-18.259,18.388-32.666,18.6-6.809.1-12.03-3.567-15.648-7.977-8-9.75-9.023-21.543-.469-31.653,5.76-6.809,13.756-8.2,21.852-9.391A41.462,41.462,0,0,1,1039.35,330.057Z" transform="translate(-426.375 -6.444)"/><path d="M1094.919,171.812c1.1,15.121-16.673,30.964-29.624,33.34a49.592,49.592,0,0,1-26.447-2.363c-10.873-4.07-20.07-13.491-15.847-30.184,6.594-26.069,29.971-35.142,51-32,9.266,1.384,18.429,12.816,19.9,23.122C1094.3,166.5,1095.418,169.212,1094.919,171.812Z" transform="translate(-426.375 -6.444)"/></svg>