<?xml version="1.0" encoding="UTF-8" standalone="no"?>
<svg id="レイヤー_1" data-name="レイヤー 1" xmlns="http://www.w3.org/2000/svg" width="797.128" height="803.058" viewBox="0 0 797.128 803.058"><defs><style>.cls-1{fill:#010101;}.cls-2{fill:#020202;}.cls-3{fill:#0d0d0d;}.cls-4{fill:#0f0f0f;}</style></defs><path class="cls-1" d="M957.529,542.27c19.4,0,38.812-.312,58.206.1,17.486.368,26.9,9.462,27.051,25.01.15,15.654-9.217,25.362-26.487,25.536q-59.7.6-119.4.019c-17.482-.154-26.9-9.445-27.049-24.992-.155-16.129,9.526-25.291,27.979-25.6C917.724,542.012,937.628,542.267,957.529,542.27Z" transform="translate(-559.272 -139.337)"/><path class="cls-1" d="M956.552,793.117c-19.9,0-39.807.319-59.7-.094-17.469-.363-26.88-9.5-27-25.054-.125-15.646,9.246-25.318,26.536-25.49q59.694-.593,119.4-.016c17.466.155,26.878,9.479,27,25.038.126,15.646-9.241,25.106-26.536,25.507C996.361,793.47,976.452,793.116,956.552,793.117Z" transform="translate(-559.272 -139.337)"/><path class="cls-2" d="M956.891,691.592c-19.9,0-39.8.28-59.695-.086-17.042-.314-26.867-9.074-27.2-23.24-.343-14.8,9.762-24.239,27.542-24.374q58.946-.449,117.9.008c17.049.136,26.865,9.051,27.193,23.226.344,14.8-9.758,24.073-27.54,24.389C995.7,691.86,976.292,691.593,956.891,691.592Z" transform="translate(-559.272 -139.337)"/><path class="cls-1" d="M983.153,865.856c0,16.86.416,33.733-.117,50.576-.535,16.916-10.447,26.348-25.973,25.951-14.89-.38-24.223-9.519-24.456-25.956-.478-33.713.007-67.439-.323-101.156-.073-7.5,1.869-10.128,9.9-10.46,41.025-1.694,41.014-1.952,41.014,38.73v22.315Z" transform="translate(-559.272 -139.337)"/><path class="cls-3" d="M957.9,604.815c3.97,0,8.032.547,11.892-.1,12.965-2.183,15.969,3.645,15.066,15.623-.58,7.691-3.593,8.958-10.021,8.792-11.4-.295-22.861-.668-34.222.092-10.064.674-9.828-5.13-9.6-12.069.206-6.355-1.625-13.5,9.037-12.439C945.944,605.3,951.946,604.817,957.9,604.815Z" transform="translate(-559.272 -139.337)"/><path class="cls-4" d="M956.732,730.6c-3.948,0-7.943-.388-11.836.077-9.594,1.147-13.767-1.248-13.875-12.468-.116-12.146,5.767-12.388,14.546-11.984a240.433,240.433,0,0,0,28.118-.051c8.861-.634,10.354,3.283,10.723,11.213.468,10.062-2.109,14.792-12.884,13.325C966.678,730.053,961.668,730.6,956.732,730.6Z" transform="translate(-559.272 -139.337)"/><path d="M1354.619,461.518c-8.94-39.287-54.574-70.141-95.334-64.171-13.877,2.032-26.6,7.426-38.476,14.933-13.386,8.461-27.791,11.035-42.588,4.593a422.144,422.144,0,0,1-40.023-19.594c-17.983-10.214-28.565-26.211-30.248-46.9-1.083-13.314-.2-26.789-.2-45.6,13.771-88.961-71.416-187.868-187.866-160.936-64.506,14.919-120.516,78.466-111.861,167.463,5.961,61.28-3.388,78.434-57.732,103.38-21.2,9.73-40.363,6.466-59.969-2.853-8.924-4.243-17.667-9.121-26.986-12.231-29.738-9.924-65.423,2.015-86.738,28.3-19.858,24.487-23.218,59.433-7.082,86.569,17.5,29.429,44.005,44.1,78.3,42.074,34.731-2.053,58.21-20.77,70.8-52.856,5.62-14.318,9.541-29.5,21.815-39.951,24.055-20.491,50.875-36.329,81.641-44.205,26.534-6.793,67.386,6.7,78.208,25.089a224.305,224.305,0,0,1,18.734,42.04c4.519,13.326.609,33.056,12.412,39.11,11.848,6.076,29.2.873,44.06,1.809,10.134.638,13.768-3.082,15.1-12.855,3.252-23.8,11.288-46.076,23.093-67.123,11.932-21.272,31.367-30.942,53.9-31.624,54.393-1.647,109.643,36.743,129.222,87.488,16.129,41.8,58.135,62.738,100.124,49.9C1338.313,540.709,1363.511,500.592,1354.619,461.518ZM687.157,478.872c-1.274,24.919-21.322,43.179-46.266,42.137-25.556-1.066-46.127-21.6-45.526-45.442.6-23.762,22.834-44.143,47.538-43.574C666.4,432.534,688.337,455.777,687.157,478.872ZM956.866,388.98c-47.575,5.4-102.99-44.194-102.183-100.083.811-56.181,44.327-101.162,100.917-101.921,56.867-.762,104.7,45.7,105.157,101.511C1061.25,348.59,1003.142,393.518,956.866,388.98Z" transform="translate(-559.272 -139.337)"/></svg>